<svg width="24" height="24" viewBox="0 0 24 24" fill="none" xmlns="http://www.w3.org/2000/svg">
<path d="M17.7714 10.1836C17.9472 10.1836 18.0742 10.2617 18.1523 10.418C18.2304 10.5547 18.2207 10.7012 18.123 10.8574L12.3515 19.5879C12.2734 19.7051 12.1562 19.7637 12 19.7637C11.8437 19.7637 11.7265 19.7051 11.6484 19.5879L5.87691 10.8574C5.77926 10.7207 5.76949 10.5742 5.84762 10.418C5.92574 10.2617 6.05269 10.1836 6.22847 10.1836H9.15816V4.67578C9.15816 4.53906 9.19722 4.43164 9.27535 4.35352C9.35347 4.27539 9.4609 4.23633 9.59762 4.23633H14.4023C14.5195 4.23633 14.6171 4.27539 14.6953 4.35352C14.7929 4.43164 14.8418 4.53906 14.8418 4.67578V10.1836H16.3066C17.166 10.1836 17.6543 10.1836 17.7714 10.1836ZM12 18.5625L16.9804 11.0625H14.4023C14.2851 11.0625 14.1777 11.0234 14.08 10.9453C14.0019 10.8477 13.9628 10.7402 13.9628 10.623V5.11523H10.0371V10.623C10.0371 10.7402 9.98824 10.8379 9.89058 10.916C9.81246 10.9941 9.7148 11.043 9.59762 11.0625H7.01949L9.50972 14.8125C10.955 17 11.7851 18.25 12 18.5625Z" fill="#77BC1F"/>
</svg>
