<svg width="24" height="24" viewBox="0 0 24 24" fill="none" xmlns="http://www.w3.org/2000/svg">
<path d="M20.0713 5.4375L20.1299 5.81836C20.1689 5.93555 20.1787 6.60938 20.1592 7.83984C20.1396 9.05078 19.9248 10.5156 19.5146 12.2344C18.9482 14.4805 18.04 16.3262 16.79 17.7715C15.54 19.2168 13.9873 20.2324 12.1318 20.8184L11.9854 20.8477L11.8682 20.8184C10.0127 20.2324 8.45996 19.2168 7.20996 17.7715C5.95996 16.3262 5.05176 14.4805 4.48535 12.2344C4.0752 10.5156 3.86035 9.05078 3.84082 7.83984C3.82129 6.60938 3.83105 5.93555 3.87012 5.81836L3.89941 5.4082H4.30957C5.59863 5.4082 6.71191 5.30078 7.64941 5.08594C8.58691 4.87109 9.3291 4.64648 9.87598 4.41211C10.4814 4.13867 10.9307 3.9043 11.2236 3.70898C11.5361 3.51367 11.6924 3.40625 11.6924 3.38672L11.9854 3.15234L12.2783 3.38672C12.2783 3.48438 12.8838 3.82617 14.0947 4.41211C15.3252 4.99805 17.1807 5.33984 19.6611 5.4375H19.8662C19.9834 5.4375 20.0518 5.4375 20.0713 5.4375ZM5.33496 12.0586C6.35059 16.043 8.4209 18.6211 11.5459 19.793V4.55859C11.0186 4.91016 10.1885 5.27148 9.05566 5.64258C7.92285 6.01367 6.47754 6.22852 4.71973 6.28711C4.68066 6.77539 4.69043 7.53711 4.74902 8.57227C4.82715 9.60742 5.02246 10.7695 5.33496 12.0586ZM18.6357 12.0586C18.9482 10.7695 19.1338 9.60742 19.1924 8.57227C19.2705 7.53711 19.29 6.77539 19.251 6.28711C17.4932 6.22852 16.0479 6.01367 14.915 5.64258C13.7822 5.27148 12.9521 4.91016 12.4248 4.55859V19.793C15.5498 18.6211 17.6201 16.043 18.6357 12.0586ZM13.5088 8.60156C13.3916 8.60156 13.2842 8.5625 13.1865 8.48438C13.1084 8.38672 13.0693 8.2793 13.0693 8.16211C13.0693 8.04492 13.1084 7.9375 13.1865 7.83984L14.5049 6.55078C14.6025 6.45312 14.7002 6.4043 14.7979 6.4043C14.915 6.4043 15.0127 6.45312 15.0908 6.55078C15.1885 6.62891 15.2373 6.72656 15.2373 6.84375C15.2373 6.96094 15.1982 7.06836 15.1201 7.16602L13.8018 8.45508C13.7236 8.55273 13.626 8.60156 13.5088 8.60156ZM13.8018 11.4727C13.7236 11.5703 13.626 11.6191 13.5088 11.6191C13.3916 11.5996 13.2842 11.5508 13.1865 11.4727C13.1084 11.375 13.0693 11.2773 13.0693 11.1797C13.0693 11.0625 13.1084 10.9551 13.1865 10.8574L16.6436 7.40039C16.7412 7.32227 16.8389 7.2832 16.9365 7.2832C17.0537 7.2832 17.1611 7.33203 17.2588 7.42969C17.3564 7.50781 17.4053 7.60547 17.4053 7.72266C17.4053 7.83984 17.3564 7.9375 17.2588 8.01562L15.5303 9.74414C14.5342 10.7598 13.958 11.3359 13.8018 11.4727ZM17.2295 9.97852C17.3271 9.90039 17.4346 9.86133 17.5518 9.86133C17.6689 9.86133 17.7666 9.91016 17.8447 10.0078C17.9424 10.0859 17.9912 10.1836 17.9912 10.3008C17.9912 10.418 17.9521 10.5254 17.874 10.623L14.0068 14.4609C13.9092 14.5391 13.8018 14.5781 13.6846 14.5781C13.5674 14.5781 13.46 14.5391 13.3623 14.4609C13.2842 14.3633 13.2451 14.2656 13.2451 14.168C13.2451 14.0508 13.2939 13.9434 13.3916 13.8457L15.2959 11.9121C16.4287 10.7988 17.0732 10.1543 17.2295 9.97852ZM15.8525 14.4902C15.9502 14.3926 16.0576 14.3438 16.1748 14.3438C16.292 14.3438 16.3896 14.3926 16.4678 14.4902C16.5654 14.5879 16.6143 14.6953 16.6143 14.8125C16.6143 14.9102 16.5752 15.0078 16.4971 15.1055L14.0068 17.5957C13.9092 17.6738 13.8018 17.7129 13.6846 17.7129C13.5674 17.7129 13.46 17.6738 13.3623 17.5957C13.2842 17.498 13.2451 17.3906 13.2451 17.2734C13.2451 17.1562 13.2939 17.0586 13.3916 16.9805L14.6221 15.7207C15.3447 14.998 15.7549 14.5879 15.8525 14.4902Z" fill="#77BC1F"/>
</svg>
