<svg width="24" height="24" viewBox="0 0 24 24" fill="none" xmlns="http://www.w3.org/2000/svg">
<path d="M18.5625 9.29004C19.2852 9.56348 19.8613 10.0225 20.291 10.667C20.7402 11.292 20.9648 11.9951 20.9648 12.7764C20.9453 13.8506 20.5742 14.7393 19.8516 15.4424C19.1484 16.1455 18.2695 16.5068 17.2148 16.5264H15.252V15.6475H17.2148C18.0352 15.6279 18.709 15.3545 19.2363 14.8271C19.7832 14.2803 20.0664 13.5967 20.0859 12.7764C20.0859 12.1318 19.8906 11.5654 19.5 11.0771C19.1289 10.5693 18.6406 10.2178 18.0352 10.0225L17.7422 9.93457V9.6416C17.625 8.62598 17.2051 7.7959 16.4824 7.15137C15.7793 6.50684 14.9102 6.1748 13.875 6.15527C13.2109 6.15527 12.5957 6.31152 12.0293 6.62402C11.4629 6.93652 11.0039 7.36621 10.6523 7.91309L10.4766 8.20605L10.125 8.08887C9.83203 7.99121 9.53906 7.94238 9.24609 7.94238C8.62109 7.96191 8.07422 8.15723 7.60547 8.52832C7.13672 8.87988 6.81445 9.3584 6.63867 9.96387L6.55078 10.2275L6.25781 10.2568C5.57422 10.3545 5.00781 10.6572 4.55859 11.165C4.12891 11.6533 3.91406 12.249 3.91406 12.9521C3.93359 13.7139 4.19727 14.3486 4.70508 14.8564C5.21289 15.3643 5.84766 15.6279 6.60938 15.6475H8.66016V16.5264H6.60938C5.59375 16.5068 4.74414 16.165 4.06055 15.501C3.39648 14.8174 3.05469 13.9678 3.03516 12.9521C3.05469 12.0732 3.31836 11.3213 3.82617 10.6963C4.35352 10.0518 5.03711 9.63184 5.87695 9.43652C6.15039 8.7334 6.58984 8.16699 7.19531 7.7373C7.80078 7.30762 8.48438 7.08301 9.24609 7.06348C9.53906 7.06348 9.82227 7.10254 10.0957 7.18066C10.5645 6.5752 11.1211 6.10645 11.7656 5.77441C12.4297 5.44238 13.1328 5.27637 13.875 5.27637C15.0859 5.2959 16.1211 5.67676 16.9805 6.41895C17.8398 7.1416 18.3672 8.09863 18.5625 9.29004ZM15.4277 14.417C15.3301 14.5537 15.2031 14.6318 15.0469 14.6514H13.6992V18.2842C13.6992 18.4014 13.6602 18.5088 13.582 18.6064C13.5039 18.6846 13.3965 18.7236 13.2598 18.7236H10.7402C10.623 18.7236 10.5156 18.6846 10.418 18.6064C10.3398 18.5088 10.3008 18.4014 10.3008 18.2842V14.6514H8.95312C8.79688 14.6318 8.66992 14.5537 8.57227 14.417C8.49414 14.2607 8.50391 14.1143 8.60156 13.9775L11.6484 9.40723C11.7266 9.27051 11.8438 9.20215 12 9.20215C12.1562 9.20215 12.2734 9.27051 12.3516 9.40723L15.3984 13.9775C15.4961 14.1143 15.5059 14.2607 15.4277 14.417ZM13.2598 13.7725H14.2266L12 10.4326L9.77344 13.7725H10.7109C10.8477 13.7725 10.9551 13.8213 11.0332 13.9189C11.1113 13.9971 11.1504 14.0947 11.1504 14.2119V17.8447H12.8203V14.2119C12.8203 14.0947 12.8594 13.9971 12.9375 13.9189C13.0352 13.8213 13.1426 13.7725 13.2598 13.7725Z" fill="#77BC1F"/>
</svg>
