<svg width="24" height="24" viewBox="0 0 24 24" fill="none" xmlns="http://www.w3.org/2000/svg">
<path d="M19.5879 11.6451C19.7051 11.7428 19.7637 11.8697 19.7637 12.026C19.7637 12.1627 19.7051 12.2799 19.5879 12.3775L10.8574 18.149C10.7793 18.1881 10.7012 18.2076 10.623 18.2076C10.5449 18.2076 10.4766 18.1978 10.418 18.1783C10.2617 18.0806 10.1836 17.9537 10.1836 17.7974V14.8385H4.67578C4.53906 14.8385 4.43164 14.7994 4.35352 14.7213C4.27539 14.6431 4.23633 14.5357 4.23633 14.399V9.59432C4.23633 9.47713 4.27539 9.37948 4.35352 9.30135C4.43164 9.20369 4.53906 9.15487 4.67578 9.15487H10.1836V6.22518C10.1836 6.0494 10.252 5.92244 10.3887 5.84432C10.5449 5.76619 10.7012 5.77596 10.8574 5.87362L15.2227 8.74471C17.7617 10.4244 19.2168 11.3912 19.5879 11.6451ZM11.0625 16.9771L18.5625 11.9967L11.0625 7.01619V9.59432C11.0625 9.71151 11.0137 9.81893 10.916 9.91659C10.8379 9.99471 10.7402 10.0338 10.623 10.0338H5.11523V13.9596H10.623C10.7402 13.9596 10.8379 14.0084 10.916 14.106C10.9941 14.1842 11.043 14.2818 11.0625 14.399V15.6881C11.0625 16.4303 11.0625 16.8599 11.0625 16.9771Z" fill="#77BC1F"/>
</svg>
