<svg width="24" height="24" viewBox="0 0 24 24" fill="none" xmlns="http://www.w3.org/2000/svg">
<path d="M12 7.03418C12.1172 7.03418 12.2148 7.08301 12.293 7.18066C12.3906 7.25879 12.4395 7.35645 12.4395 7.47363V18.5479C12.4395 18.6846 12.3906 18.792 12.293 18.8701C12.2148 18.9482 12.1172 18.9873 12 18.9873C11.8828 18.9873 11.7754 18.9482 11.6777 18.8701C11.5996 18.792 11.5605 18.6846 11.5605 18.5479V7.47363C11.5605 7.35645 11.5996 7.25879 11.6777 7.18066C11.7754 7.08301 11.8828 7.03418 12 7.03418ZM14.4023 7.44434C14.4023 7.32715 14.4414 7.22949 14.5195 7.15137C14.6172 7.07324 14.7246 7.03418 14.8418 7.03418C15.1152 7.07324 15.252 7.22949 15.252 7.50293L14.5488 18.5771C14.5098 18.8311 14.3633 18.9678 14.1094 18.9873C13.8359 18.9482 13.6992 18.792 13.6992 18.5186L14.0508 12.9814C14.2461 9.75879 14.3633 7.91309 14.4023 7.44434ZM9.1582 7.03418C9.27539 7.03418 9.37305 7.07324 9.45117 7.15137C9.54883 7.22949 9.59766 7.32715 9.59766 7.44434L10.3008 18.5186C10.3203 18.6357 10.291 18.7432 10.2129 18.8408C10.1348 18.9189 10.0273 18.9678 9.89062 18.9873C9.77344 18.9873 9.66602 18.9482 9.56836 18.8701C9.49023 18.792 9.45117 18.6943 9.45117 18.5771L8.74805 7.50293C8.74805 7.38574 8.77734 7.28809 8.83594 7.20996C8.91406 7.1123 9.02148 7.05371 9.1582 7.03418ZM19.5 5.10059C19.6172 5.10059 19.7148 5.14941 19.793 5.24707C19.8906 5.3252 19.9395 5.43262 19.9395 5.56934C19.9395 5.68652 19.8906 5.78418 19.793 5.8623C19.7148 5.94043 19.6172 5.97949 19.5 5.97949H18.3574L16.9805 20.8916C16.9805 21.0088 16.9316 21.1064 16.834 21.1846C16.7559 21.2432 16.6582 21.2822 16.541 21.3018H7.45898C7.3418 21.2822 7.24414 21.2432 7.16602 21.1846C7.08789 21.1064 7.03906 21.0088 7.01953 20.8916L5.64258 5.97949H4.5C4.38281 5.97949 4.27539 5.94043 4.17773 5.8623C4.09961 5.78418 4.06055 5.68652 4.06055 5.56934C4.06055 5.43262 4.09961 5.3252 4.17773 5.24707C4.27539 5.14941 4.38281 5.10059 4.5 5.10059H8.63086V3.1377C8.63086 3.02051 8.66992 2.92285 8.74805 2.84473C8.82617 2.74707 8.93359 2.69824 9.07031 2.69824H14.9004C15.0371 2.69824 15.1445 2.74707 15.2227 2.84473C15.3008 2.92285 15.3398 3.02051 15.3398 3.1377V5.10059H18.7383C19.168 5.10059 19.4219 5.10059 19.5 5.10059ZM9.50977 3.57715V5.10059H14.4902V3.57715H12C10.5547 3.57715 9.72461 3.57715 9.50977 3.57715ZM16.1602 20.3936L17.5078 5.9502H6.52148L7.83984 20.3936H12C14.4219 20.3936 15.8086 20.3936 16.1602 20.3936Z" fill="#77BC1F"/>
</svg>
