<?xml version="1.0" encoding="UTF-8"?>
<svg id="Ebene_2" data-name="Ebene 2" xmlns="http://www.w3.org/2000/svg" width="280" height="200" viewBox="0 0 280 200">
  <defs>
    <style>
      .cls-1, .cls-2 {
        stroke: #fff;
      }

      .cls-1, .cls-2, .cls-3 {
        fill: none;
        stroke-width: 2px;
      }

      .cls-1, .cls-3 {
        stroke-linecap: round;
        stroke-linejoin: round;
      }

      .cls-2 {
        stroke-miterlimit: 10;
      }

      .cls-4 {
        opacity: .1;
      }

      .cls-3 {
        stroke: #77bc1f;
      }
    </style>
  </defs>
  <g>
    <polyline class="cls-3" points="146.80852 158.97593 107.67223 158.97593 97.62922 50.39564 182.37078 50.39564 177.7789 100"/>
    <rect class="cls-3" x="119.26097" y="33.45063" width="41.47806" height="16.94501"/>
    <g>
      <line class="cls-3" x1="140" y1="64.17482" x2="140" y2="142.81619"/>
      <line class="cls-3" x1="160.08604" y1="64.17482" x2="158.39932" y2="106.55723"/>
      <line class="cls-3" x1="119.91396" y1="64.17482" x2="124.93134" y2="142.81619"/>
    </g>
    <line class="cls-3" x1="86.82574" y1="50.39564" x2="193.17426" y2="50.39564"/>
  </g>
  <g>
    <g class="cls-4">
      <path d="M182.3708,110.56182c15.78821,0,28.58716,12.79889,28.58716,28.58713s-12.79895,28.58713-28.58716,28.58713-28.58716-12.79889-28.58716-28.58713,12.79895-28.58713,28.58716-28.58713M182.3708,102.56182c-20.17419,0-36.58716,16.41292-36.58716,36.58713s16.41296,36.58713,36.58716,36.58713,36.58716-16.41292,36.58716-36.58713-16.41296-36.58713-36.58716-36.58713h0Z"/>
    </g>
    <circle class="cls-1" cx="182.37078" cy="139.14895" r="28.58714"/>
  </g>
  <polygon class="cls-2" points="196.9355 129.63926 191.88047 124.58423 182.37078 134.09392 172.86109 124.58423 167.80606 129.63926 177.31575 139.14895 167.80606 148.65863 172.86109 153.71367 182.37078 144.20398 191.88047 153.71367 196.9355 148.65863 187.42581 139.14895 196.9355 129.63926"/>
</svg>