<?xml version="1.0" encoding="UTF-8"?>
<svg id="Ebene_2" data-name="Ebene 2" xmlns="http://www.w3.org/2000/svg" width="280" height="200" viewBox="0 0 280 200">
  <defs>
    <style>
      .cls-1 {
        stroke-miterlimit: 10;
      }

      .cls-1, .cls-2 {
        stroke: #003ca6;
      }

      .cls-1, .cls-2, .cls-3 {
        fill: none;
        stroke-linecap: round;
        stroke-width: 2px;
      }

      .cls-4, .cls-5 {
        fill: #003ca6;
      }

      .cls-2, .cls-3 {
        stroke-linejoin: round;
      }

      .cls-5, .cls-6 {
        opacity: .1;
      }

      .cls-3 {
        stroke: #77bc1f;
      }
    </style>
  </defs>
  <g>
    <g class="cls-6">
      <path class="cls-4" d="M137.97902,15.09775c1.33653,0,2.67305.65666,3.44658,1.96997l95.21031,161.64928c1.57054,2.6665-.35194,6.03-3.44659,6.03H42.76873c-3.09468,0-5.01718-3.3635-3.44659-6.03L134.53241,17.06772c.77354-1.31331,2.11008-1.96997,3.44661-1.96997M137.979,7.09772c-4.29477,0-8.1601,2.20932-10.33978,5.90991L32.42896,174.65695c-2.17973,3.70064-2.20982,8.31596-.07854,12.04477,2.13127,3.72886,6.12336,6.04527,10.41832,6.04527h190.42059c4.29492,0,8.28696-2.31636,10.41827-6.04518,2.13127-3.72882,2.10118-8.34414-.07849-12.04486L148.31877,13.00768c-2.17949-3.70059-6.04486-5.90996-10.33977-5.90996h0Z"/>
    </g>
    <path class="cls-2" d="M134.53242,17.06771L39.32213,178.71699c-1.57056,2.66652.35193,6.03002,3.4466,6.03002h190.42058c3.09467,0,5.01715-3.3635,3.4466-6.03002L141.42561,17.06771c-1.54707-2.62664-5.34612-2.62664-6.89319,0Z"/>
  </g>
  <g>
    <line class="cls-1" x1="137.97901" y1="72.77166" x2="137.97901" y2="131.73711"/>
    <circle class="cls-4" cx="137.97901" cy="151.81623" r="5.61568"/>
  </g>
  <polygon class="cls-5" points="74.35905 32.79856 69.9112 28.35072 61.54377 36.71815 53.17633 28.35072 48.72848 32.79856 57.09592 41.166 48.72848 49.53343 53.17633 53.98128 61.54377 45.61385 69.9112 53.98128 74.35905 49.53343 65.99161 41.166 74.35905 32.79856"/>
  <polygon class="cls-5" points="38.77518 96.0915 35.4992 92.81552 29.33631 98.9784 23.17343 92.81552 19.89745 96.0915 26.06033 102.25438 19.89745 108.41726 23.17343 111.69325 29.33631 105.53036 35.4992 111.69325 38.77518 108.41726 32.6123 102.25438 38.77518 96.0915"/>
  <polygon class="cls-5" points="246.63424 57.25726 243.35826 53.98128 237.19538 60.14416 231.0325 53.98128 227.75651 57.25726 233.9194 63.42014 227.75651 69.58303 231.0325 72.85901 237.19538 66.69613 243.35826 72.85901 246.63424 69.58303 240.47136 63.42014 246.63424 57.25726"/>
  <path class="cls-3" d="M135.15483,36.9663L57.13838,169.42366c-1.28693,2.18497.28837,4.94107,2.82418,4.94107h156.03291c2.53581,0,4.11112-2.7561,2.82418-4.94107L140.80319,36.9663c-1.26769-2.1523-4.38067-2.1523-5.64836,0Z"/>
</svg>