<?xml version="1.0" encoding="UTF-8"?>
<svg id="Ebene_2" data-name="Ebene 2" xmlns="http://www.w3.org/2000/svg" width="280" height="200" viewBox="0 0 280 200">
  <defs>
    <style>
      .cls-1, .cls-2 {
        stroke: #fff;
      }

      .cls-1, .cls-2, .cls-3, .cls-4, .cls-5 {
        fill: none;
        stroke-linejoin: round;
      }

      .cls-1, .cls-5 {
        stroke-width: 1.8px;
      }

      .cls-6 {
        fill: #fff;
      }

      .cls-2, .cls-3, .cls-4 {
        stroke-linecap: round;
        stroke-width: 2px;
      }

      .cls-3, .cls-5 {
        stroke: #003ca6;
      }

      .cls-7 {
        fill: #003ca6;
        opacity: .1;
      }

      .cls-4 {
        stroke: #77bc1f;
      }
    </style>
  </defs>
  <rect class="cls-6" x="118.7234" y="104.8584" width="43.40426" height="16.24798"/>
  <g>
    <path class="cls-2" d="M117.6544,113.32272h-31.70008c-17.53795.00344-31.75798-14.60613-31.76132-32.63138-.00306-16.4417,11.894-30.31872,27.76438-32.38506,4.49592-17.37977,21.84879-27.72293,38.75871-23.10208.75804.20714,1.50834.44315,2.24933.70753,12.9605-20.70193,39.79558-26.68567,59.93785-13.36506,11.21933,7.41964,18.49168,19.73366,19.71784,33.38754,17.72915,5.3676,27.8678,24.49055,22.64533,42.71232-4.19187,14.62576-17.25202,24.66957-32.08693,24.6762h-29.99112"/>
    <path class="cls-7" d="M85.94855,117.63585c-19.82061.00105-35.94695-16.5702-35.95207-36.94365-.00307-17.61683,12.1616-32.70765,28.71412-36.20132,6.0557-17.82216,24.48712-28.22105,42.53128-23.60072,6.86197-9.52916,16.48868-14.94936,27.86451-17.48591,12.41567-2.76925,25.3157-.42697,36,6.6383,11.61043,7.67913,19.3294,18.75733,21.36094,32.6699,8.45093,3.26308,15.40408,9.46282,19.76836,17.6937,4.81301,9.07955,5.89895,19.54162,3.05602,29.45826-4.68392,16.34382-19.53273,27.76302-36.10984,27.77144h-31.9937l-.03924-7.01957h33.63705c12.88078-.00632,22.81539-10.48776,26.45536-23.18839,2.20878-7.70756,1.36563-15.83841-2.37577-22.8942-3.74038-7.05579-9.93028-12.19206-17.42947-14.46221-1.64941-.4991-2.83474-1.98164-2.99353-3.74112-1.11463-12.41633-7.31833-21.91736-17.52215-28.66674-18.16198-12.01306-42.7398-8.08737-54.42604,10.58135-1.04907,1.67418-3.07856,2.3944-4.90521,1.74052-.63928-.22744-1.29597-.43381-1.95266-.61387-14.64699-3.99909-29.7304,4.98886-33.62445,20.04387-.43848,1.69524-1.83382,2.9493-3.52728,3.17042-13.7393,1.7879-24.09884,13.87045-24.09577,28.10417.00307,15.61624,12.3665,30.43907,27.55953,30.43907h33.7056v6.50669h-33.7056Z"/>
  </g>
  <polygon class="cls-1" points="127.17 94.07755 127.17 135.36756 152.84 135.36756 152.84 94.07755 170.83 94.07755 140 47.52755 109.17 94.07755 127.17 94.07755"/>
  <path class="cls-3" d="M118.72341,111.12917h-30.2174c-16.71766.00319-30.27258-13.54657-30.27577-30.26423-.00291-15.24899,11.33769-28.11934,26.46577-30.03577,4.28564-16.119,20.82687-25.71184,36.94588-21.4262.72258.19212,1.43779.411,2.14412.6562,12.35431-19.20017,37.93425-24.74984,57.13441-12.39553,10.69458,6.8814,17.62679,18.30213,18.79559,30.96553,16.89992,4.97822,26.56436,22.71395,21.58615,39.61387-3.9958,13.56477-16.4451,22.87998-30.58615,22.88613h-28.58836"/>
  <polygon class="cls-5" points="127.17 94.07755 127.17 135.36756 152.84 135.36756 152.84 94.07755 170.83 94.07755 140 47.52755 109.17 94.07755 127.17 94.07755"/>
  <g>
    <g>
      <path class="cls-4" d="M118.72341,123.28108h-42.47235c-15.17813,0-27.39671,12.21861-27.39671,27.39671v44.8243M231.14566,195.50209v-44.8243c0-15.1781-12.21861-27.39671-27.39671-27.39671h-41.62129"/>
      <path class="cls-4" d="M86.0414,136.97895v3.53301c0,5.95161,4.79059,10.74341,10.7422,10.74341h86.3952c5.95165,0,10.7422-4.79179,10.7422-10.74341v-3.53301"/>
    </g>
    <path class="cls-4" d="M213.45216,195.50209v-6.50857c0-7.78396-6.31014-14.0941-14.0941-14.0941h-118.71612c-7.78396,0-14.0941,6.31014-14.0941,14.0941v6.50857"/>
  </g>
</svg>