<?xml version="1.0" encoding="UTF-8"?>
<svg xmlns="http://www.w3.org/2000/svg" width="280" height="200" viewBox="0 0 280 200">
  <defs>
    <style>
      .cls-1, .cls-2, .cls-3, .cls-4, .cls-5 {
        fill: none;
        stroke-width: 2px;
      }

      .cls-1, .cls-3, .cls-4 {
        stroke-miterlimit: 10;
      }

      .cls-1, .cls-4, .cls-5 {
        stroke: #77bc1f;
      }

      .cls-1, .cls-5 {
        stroke-linecap: round;
      }

      .cls-2, .cls-3 {
        stroke: #fff;
      }

      .cls-2, .cls-5 {
        stroke-linejoin: round;
      }

      .cls-6 {
        opacity: .1;
      }
    </style>
  </defs>
  <g id="Ebene_5" data-name="Ebene 5">
    <g class="cls-6">
      <path d="M211.68691,109.73363v43.78758h-32.30957v-32.37064l12.08716-11.41695h20.22241M217.68691,103.73363h-28.60815l-1.73413,1.63815-12.08716,11.41695-1.88013,1.77576v40.95673h44.30957v-55.78758h0Z"/>
    </g>
    <g>
      <g>
        <path class="cls-5" d="M263.72299,195.50209V52.39298c0-20.60307-16.58579-37.18886-37.18886-37.18886H53.46586c-20.60311,0-37.18886,16.58579-37.18886,37.18886v143.10911"/>
        <path class="cls-5" d="M66.75548,33.79789v4.79578c0,8.07884,6.50284,14.58333,14.58169,14.58333h117.27463c8.07889,0,14.58169-6.50448,14.58169-14.58333v-4.79578"/>
      </g>
      <path class="cls-5" d="M239.70547,195.50209v-91.09855c0-10.5661-8.56552-19.13162-19.13162-19.13162H59.42615c-10.5661,0-19.13162,8.56552-19.13162,19.13162v91.09855"/>
    </g>
    <g class="cls-6">
      <path d="M89.64321,104.99619c6.00269,0,10.86865,4.86604,10.86865,10.8687v6.985h10.49902v29.34946h-42.73535v-29.34946h10.49902v-6.985c0-6.00266,4.86597-10.8687,10.86865-10.8687M89.64321,98.99619c-9.30151,0-16.86865,7.56726-16.86865,16.8687v.985h-10.49902v41.34946h54.73535v-41.34946h-10.49902v-.985c0-9.30144-7.56714-16.8687-16.86865-16.8687h0Z"/>
    </g>
    <g>
      <polygon class="cls-3" points="211.68689 153.52122 179.37736 153.52122 179.37736 121.15058 191.46438 109.73364 211.68689 109.73364 211.68689 153.52122"/>
      <polyline class="cls-3" points="191.46439 109.73364 191.46439 121.15013 179.37736 121.15013"/>
    </g>
    <g>
      <path class="cls-4" d="M111.01083,152.1994h-42.73523v-29.34952h10.4989v-6.98502c0-6.00255,4.8661-10.86865,10.86866-10.86865s10.86877,4.8661,10.86877,10.86865v6.98502h10.4989v29.34952Z"/>
      <g>
        <path class="cls-4" d="M111.01086,152.19936h-42.73534v-29.34951h42.73534v29.34951Z"/>
        <path class="cls-4" d="M89.64317,104.9962c-6.00257,0-10.86865,4.86604-10.86865,10.86865v6.98499h5.57159v-6.9961c0-2.92544,2.37159-5.29706,5.29706-5.29706s5.29714,2.37162,5.29714,5.29706v6.9961h5.57155v-6.98499c0-6.00261-4.86608-10.86865-10.86869-10.86865Z"/>
        <path class="cls-1" d="M92.06108,137.65408l1.24943,5.2849h-7.33443l1.24943-5.28459c-.8297-.69457-1.36869-1.72498-1.36869-2.89174,0-2.09117,1.69524-3.78641,3.78641-3.78641s3.78633,1.69524,3.78633,3.78641c0,1.16661-.53885,2.19687-1.36847,2.89143Z"/>
      </g>
    </g>
  </g>
  <g id="Ebene_2" data-name="Ebene 2">
    <polygon class="cls-2" points="144.13883 130.0723 127.57129 130.0723 127.57129 140.37234 144.13883 140.37234 144.13883 147.59079 162.81693 135.22032 144.13883 122.84984 144.13883 130.0723"/>
    <g id="g5823">
      <path id="rect5261" class="cls-4" d="M104.82526,31.00099h44.19864c1.77265,0,3.20966,1.43701,3.20966,3.20966h0c0,1.77265-1.43701,3.20966-3.20966,3.20966h-44.19864c-1.77265,0-3.20966-1.43701-3.20966-3.20966h0c0-1.77265,1.43701-3.20966,3.20966-3.20966Z"/>
      <circle id="path5263" class="cls-4" cx="172.39421" cy="33.79789" r="5.99019"/>
    </g>
  </g>
</svg>