<?xml version="1.0" encoding="UTF-8"?>
<svg id="Ebene_2" data-name="Ebene 2" xmlns="http://www.w3.org/2000/svg" width="280" height="200" viewBox="0 0 280 200">
  <defs>
    <style>
      .cls-1 {
        stroke: #fff;
      }

      .cls-1, .cls-2 {
        fill: none;
        stroke-miterlimit: 10;
        stroke-width: 2px;
      }

      .cls-2 {
        stroke: #77bc1f;
      }
    </style>
  </defs>
  <line class="cls-2" x1="166.36873" y1="63.28319" x2="239.19149" y2="63.28319"/>
  <line class="cls-2" x1="183.65512" y1="96.96304" x2="239.19149" y2="96.96304"/>
  <line class="cls-2" x1="183.65512" y1="130.64289" x2="238.57503" y2="130.64289"/>
  <g>
    <line class="cls-2" x1="70.53558" y1="63.28319" x2="117.99576" y2="63.28319"/>
    <line class="cls-2" x1="70.53558" y1="96.96304" x2="100.70947" y2="96.96304"/>
    <line class="cls-2" x1="70.53558" y1="130.64289" x2="117.99576" y2="130.64289"/>
    <circle class="cls-2" cx="47.47852" cy="63.28319" r="6.44661"/>
    <circle class="cls-2" cx="47.47852" cy="97" r="6.44661"/>
    <circle class="cls-2" cx="47.47852" cy="130.64289" r="6.44661"/>
  </g>
  <g>
    <g>
      <circle class="cls-1" cx="142.18229" cy="96.96308" r="41.47287"/>
      <path class="cls-1" d="M142.18239,128.46206c-17.36878,0-31.49937-14.13059-31.49937-31.49902s14.13059-31.49902,31.49937-31.49902,31.49902,14.13059,31.49902,31.49902-14.13024,31.49902-31.49902,31.49902Z"/>
      <path class="cls-1" d="M186.83648,117.68546h10.88384v55.30043c0,1.90246-1.54456,3.44702-3.44702,3.44702h-3.9898c-1.90246,0-3.44702-1.54456-3.44702-3.44702v-55.30043h0Z" transform="translate(-47.66951 179.034) rotate(-45)"/>
    </g>
    <polygon class="cls-1" points="160.03248 85.3451 153.83712 79.14974 142.18222 90.80464 130.52731 79.14974 124.33196 85.3451 135.98686 97 124.33196 108.6549 130.52731 114.85026 142.18222 103.19536 153.83712 114.85026 160.03248 108.6549 148.37758 97 160.03248 85.3451"/>
  </g>
</svg>