<svg width="24" height="24" viewBox="0 0 24 24" fill="none" xmlns="http://www.w3.org/2000/svg">
<path d="M5.18848 11.3701V5.9209H11.3408V11.3701H8.26465C6.46777 11.3701 5.44238 11.3701 5.18848 11.3701ZM6.03809 6.7998V10.4912H10.4619V6.7998H8.26465C6.97559 6.7998 6.2334 6.7998 6.03809 6.7998ZM5.18848 18.0791V12.6299H11.3408V18.0791H8.26465C6.46777 18.0791 5.44238 18.0791 5.18848 18.0791ZM6.03809 13.5088V17.2002H10.4619V13.5088H8.26465C6.97559 13.5088 6.2334 13.5088 6.03809 13.5088ZM12.6592 11.3701V5.9209H18.8115V11.3701H15.7354C13.9385 11.3701 12.9131 11.3701 12.6592 11.3701ZM13.5381 6.7998V10.4912H17.9619V6.7998H15.7354C14.4463 6.7998 13.7139 6.7998 13.5381 6.7998ZM12.6592 18.0791V12.6299H18.8115V18.0791H15.7354C13.9385 18.0791 12.9131 18.0791 12.6592 18.0791ZM13.5381 13.5088V17.2002H17.9619V13.5088H15.7354C14.4463 13.5088 13.7139 13.5088 13.5381 13.5088Z" fill="#77BC1F"/>
</svg>
