<svg width="24" height="24" viewBox="0 0 24 24" fill="none" xmlns="http://www.w3.org/2000/svg">
<path d="M12.0212 2.27397C12.1455 2.28819 12.2489 2.33686 12.3315 2.41999C12.4141 2.50313 12.4552 2.59993 12.4549 2.71042L12.4261 11.5768L21.3132 11.585C21.4375 11.5992 21.5409 11.6479 21.6235 11.731C21.6923 11.8003 21.7265 11.904 21.7261 12.0421C21.7257 12.1526 21.684 12.2491 21.6008 12.3317C21.5177 12.4143 21.414 12.4623 21.2896 12.4757L12.4232 12.4469L12.4152 21.2927C12.401 21.4169 12.3523 21.5203 12.2692 21.6029C12.186 21.6855 12.0823 21.7335 11.958 21.7469C11.8337 21.7327 11.7372 21.691 11.6683 21.6217C11.5858 21.5386 11.5378 21.4348 11.5243 21.3105L11.5532 12.4441L2.68675 12.4153C2.5625 12.401 2.46596 12.3593 2.39713 12.29C2.31454 12.2069 2.27342 12.1101 2.27378 11.9996C2.27423 11.8615 2.30909 11.758 2.37837 11.6892C2.4615 11.6066 2.56524 11.5586 2.68958 11.5452L11.556 11.574L11.5848 2.70759C11.599 2.58334 11.6408 2.4868 11.71 2.41797C11.7932 2.33538 11.8969 2.28738 12.0212 2.27397Z" fill="#77BC1F"/>
</svg>
