<svg width="24" height="24" viewBox="0 0 24 24" fill="none" xmlns="http://www.w3.org/2000/svg">
<path d="M10.4799 19.1191C10.265 19.1191 9.41541 19.1191 7.93103 19.1191H5.3822C5.26501 19.1191 5.15759 19.0801 5.05994 19.002C4.98181 18.9043 4.94275 18.7969 4.94275 18.6797V13.582C4.94275 13.4648 4.98181 13.3672 5.05994 13.2891C5.15759 13.1914 5.26501 13.1426 5.3822 13.1426H10.4799C10.597 13.1426 10.6947 13.1914 10.7728 13.2891C10.8705 13.3672 10.9193 13.4648 10.9193 13.582V18.6797C10.9193 18.7969 10.8705 18.9043 10.7728 19.002C10.6947 19.0801 10.597 19.1191 10.4799 19.1191ZM5.82166 18.2402C5.99744 18.2402 6.70056 18.2402 7.93103 18.2402H10.0404V14.0215H5.82166V18.2402ZM19.2982 11.0332C19.0443 11.0332 17.9994 11.0332 16.1635 11.0332H12.9994C12.8236 11.0332 12.6967 10.9648 12.6185 10.8281C12.5404 10.6719 12.5404 10.5156 12.6185 10.3594L15.7826 4.91016C15.8607 4.75391 15.9877 4.67578 16.1635 4.67578C16.3197 4.67578 16.4369 4.75391 16.515 4.91016L19.6791 10.3594C19.7572 10.5156 19.7474 10.6719 19.6498 10.8281C19.5717 10.9648 19.4545 11.0332 19.2982 11.0332ZM13.7318 10.1543C13.9467 10.1543 14.7474 10.1543 16.1342 10.1543H18.5658L16.1635 5.99414L13.7318 10.1543ZM16.1342 19.3535C15.1576 19.334 14.347 19.002 13.7025 18.3574C13.058 17.6934 12.726 16.873 12.7064 15.8965C12.726 14.9199 13.058 14.1094 13.7025 13.4648C14.347 12.8203 15.1576 12.4883 16.1342 12.4688C17.1107 12.4883 17.9213 12.8203 18.5658 13.4648C19.2299 14.1094 19.5717 14.9199 19.5912 15.8965C19.5717 16.873 19.2299 17.6934 18.5658 18.3574C17.9213 19.002 17.1107 19.334 16.1342 19.3535ZM16.1342 13.3477C15.4115 13.3672 14.806 13.6211 14.3177 14.1094C13.8295 14.5781 13.5853 15.1836 13.5853 15.9258C13.5853 16.6484 13.8295 17.2539 14.3177 17.7422C14.806 18.2109 15.4115 18.4551 16.1342 18.4746C16.8763 18.4551 17.4818 18.2109 17.9506 17.7422C18.4388 17.2539 18.683 16.6484 18.683 15.9258C18.683 15.1836 18.4388 14.5781 17.9506 14.1094C17.4818 13.6211 16.8763 13.3672 16.1342 13.3477ZM9.45447 11.0918C9.31775 11.0918 8.80017 11.0918 7.90173 11.0918H6.3783C6.22205 11.0723 6.09509 10.9941 5.99744 10.8574L4.32751 8.04492C4.24939 7.88867 4.24939 7.74219 4.32751 7.60547L5.90955 4.85156C6.0072 4.71484 6.13416 4.64648 6.29041 4.64648H9.51306C9.68884 4.64648 9.8158 4.71484 9.89392 4.85156L11.5345 7.60547C11.6127 7.74219 11.6127 7.88867 11.5345 8.04492L9.80603 10.8867C9.72791 11.0039 9.61072 11.0723 9.45447 11.0918ZM6.61267 10.2129C6.72986 10.2129 7.15955 10.2129 7.90173 10.2129H9.1908L10.6556 7.81055L9.27869 5.52539H6.55408L5.20642 7.81055L6.61267 10.2129Z" fill="#77BC1F"/>
</svg>
