<?xml version="1.0" encoding="UTF-8"?>
<svg id="Ebene_2" data-name="Ebene 2" xmlns="http://www.w3.org/2000/svg" viewBox="0 0 280 200">
  <defs>
    <style>
      .cls-1 {
        stroke: #003ca6;
      }

      .cls-1, .cls-2 {
        fill: none;
        stroke-linecap: round;
        stroke-linejoin: round;
        stroke-width: 2px;
      }

      .cls-3 {
        fill: #77bc1f;
      }

      .cls-4 {
        opacity: .1;
      }

      .cls-2 {
        stroke: #77bc1f;
      }
    </style>
  </defs>
  <g>
    <g class="cls-4">
      <path class="cls-3" d="M139.9998857214,28.7659606934c39.341796875,0,71.234375,31.892578125,71.234375,71.2340393066s-31.892578125,71.2340393066-71.234375,71.2340393066c-39.3413085938,0-71.2338867188-31.892578125-71.2338867188-71.2340393066S100.6585771277,28.7659606934,139.9998857214,28.7659606934M139.9998857214,20.7659606934c-43.6899414062,0-79.2338867188,35.5442352295-79.2338867188,79.2340393066,0,43.6898078918,35.5439453125,79.2340393066,79.2338867188,79.2340393066s79.234375-35.5442314148,79.234375-79.2340393066c0-43.6898040771-35.5444335938-79.2340393066-79.234375-79.2340393066h0Z"/>
    </g>
    <circle class="cls-2" cx="140" cy="100" r="71.2340425532"/>
  </g>
  <polygon class="cls-1" points="178.9829101562 80.9426583469 168.3911132812 70.3511056125 130.8325195312 107.9096383273 111.6088867188 88.6860055148 101.0170898438 99.2775582492 130.7788085938 129.0389107883 130.7856445312 129.0321969211 130.8393554688 129.0860909641 178.9829101562 80.9426583469"/>
</svg>