<?xml version="1.0" encoding="UTF-8"?>
<svg id="Ebene_2" data-name="Ebene 2" xmlns="http://www.w3.org/2000/svg" viewBox="0 0 280 200">
  <defs>
    <style>
      .cls-1 {
        stroke: #fff;
      }

      .cls-1, .cls-2, .cls-3 {
        fill: none;
        stroke-width: 2px;
      }

      .cls-1, .cls-3 {
        stroke-linecap: round;
        stroke-linejoin: round;
      }

      .cls-4 {
        opacity: .2;
      }

      .cls-2 {
        stroke-miterlimit: 10;
      }

      .cls-2, .cls-3 {
        stroke: #77bc1f;
      }
    </style>
  </defs>
  <g>
    <circle class="cls-2" cx="140" cy="100" r="71.2340425532"/>
    <g class="cls-4">
      <path d="M139.9998857214,28.7659662125c39.341796875,0,71.234375,31.892539978,71.234375,71.2340393066,0,39.3414611816-31.892578125,71.2340393066-71.234375,71.2340393066-39.3413085938,0-71.2338867188-31.892578125-71.2338867188-71.2340393066,0-39.3414993286,31.892578125-71.2340393066,71.2338867188-71.2340393066M139.9998857214,20.7659662125c-43.6899414062,0-79.2338867188,35.5442352295-79.2338867188,79.2340393066s35.5439453125,79.2340393066,79.2338867188,79.2340393066,79.234375-35.5442352295,79.234375-79.2340393066S183.6898271277,20.7659662125,139.9998857214,20.7659662125h0Z"/>
    </g>
    <circle class="cls-3" cx="140" cy="100" r="71.2340425532"/>
  </g>
  <polygon class="cls-1" points="178.9829101562 80.9426583469 168.3911132812 70.3511056125 130.8325195312 107.9096383273 111.6088867188 88.6860055148 101.0170898438 99.2775582492 130.7788085938 129.0389107883 130.7856445312 129.0321969211 130.8393554688 129.0860909641 178.9829101562 80.9426583469"/>
</svg>