<svg width="24" height="24" viewBox="0 0 24 24" fill="none" xmlns="http://www.w3.org/2000/svg">
<path d="M12.0043 15.6538C12.9643 15.6538 13.7789 15.2981 14.4481 14.5868C15.1174 13.8754 15.452 13.0117 15.452 11.9955C15.452 10.9793 15.1159 10.1171 14.4439 9.40875C13.7718 8.70042 12.9558 8.34625 11.9957 8.34625C11.0357 8.34625 10.2211 8.70192 9.55185 9.41325C8.88264 10.1246 8.54803 10.9883 8.54803 12.0045C8.54803 13.0207 8.88405 13.8829 9.5561 14.5912C10.2282 15.2996 11.0442 15.6538 12.0043 15.6538ZM12 14.7C11.2914 14.7 10.6891 14.4375 10.1931 13.9125C9.69711 13.3875 9.44911 12.75 9.44911 12C9.44911 11.25 9.69711 10.6125 10.1931 10.0875C10.6891 9.5625 11.2914 9.3 12 9.3C12.7086 9.3 13.3109 9.5625 13.8069 10.0875C14.3029 10.6125 14.5509 11.25 14.5509 12C14.5509 12.75 14.3029 13.3875 13.8069 13.9125C13.3109 14.4375 12.7086 14.7 12 14.7ZM12.0026 18.5C9.95622 18.5 8.09123 17.9106 6.40764 16.7317C4.72405 15.5529 3.46317 13.9757 2.625 12C3.46317 10.0243 4.72319 8.44708 6.40504 7.26825C8.0869 6.08942 9.95102 5.5 11.9974 5.5C14.0438 5.5 15.9088 6.08942 17.5924 7.26825C19.2759 8.44708 20.5368 10.0243 21.375 12C20.5368 13.9757 19.2768 15.5529 17.595 16.7318C15.9131 17.9106 14.049 18.5 12.0026 18.5ZM12 17.5C13.7793 17.5 15.413 17.0042 16.901 16.0125C18.389 15.0208 19.5267 13.6833 20.314 12C19.5267 10.3167 18.389 8.97917 16.901 7.9875C15.413 6.99583 13.7793 6.5 12 6.5C10.2207 6.5 8.587 6.99583 7.09898 7.9875C5.61096 8.97917 4.47329 10.3167 3.68598 12C4.47329 13.6833 5.61096 15.0208 7.09898 16.0125C8.587 17.0042 10.2207 17.5 12 17.5Z" fill="#77BC1F"/>
</svg>
