<svg width="24" height="24" viewBox="0 0 24 24" fill="none" xmlns="http://www.w3.org/2000/svg">
<path d="M21.1113 14.7393L21.1406 14.7979C21.1406 14.8174 21.1406 14.8271 21.1406 14.8271V18.958C21.1211 19.0752 21.0723 19.1826 20.9941 19.2803C20.916 19.3584 20.8184 19.3975 20.7012 19.3975H3.29883C3.18164 19.3975 3.08398 19.3584 3.00586 19.2803C2.92773 19.1826 2.87891 19.0752 2.85938 18.958V14.7979L2.91797 14.5928L6.55078 8.17676C6.64844 8.04004 6.77539 7.97168 6.93164 7.97168H10.5938V8.85059H7.19531L4.06055 14.3877H19.9395L16.8633 8.85059H13.4062V7.97168H17.127C17.2832 7.97168 17.4102 8.04004 17.5078 8.17676L21.082 14.6514L21.1113 14.71C21.1113 14.7295 21.1113 14.7393 21.1113 14.7393ZM20.2617 18.5186H20.2324V15.2666H3.73828V18.5186H12C16.8242 18.5186 19.5781 18.5186 20.2617 18.5186ZM5.49609 17.3174C5.35938 17.3174 5.25195 17.2783 5.17383 17.2002C5.0957 17.1025 5.05664 16.9951 5.05664 16.8779C5.05664 16.7412 5.0957 16.6338 5.17383 16.5557C5.25195 16.4775 5.35938 16.4385 5.49609 16.4385H17.1855C17.3027 16.4385 17.4004 16.4775 17.4785 16.5557C17.5762 16.6338 17.625 16.7412 17.625 16.8779C17.625 16.9951 17.5762 17.1025 17.4785 17.2002C17.4004 17.2783 17.3027 17.3174 17.1855 17.3174H11.3262C7.92773 17.3174 5.98438 17.3174 5.49609 17.3174ZM18.8262 17.3467C18.6895 17.3467 18.5723 17.3076 18.4746 17.2295C18.3965 17.1318 18.3574 17.0244 18.3574 16.9072C18.3574 16.7705 18.3965 16.6631 18.4746 16.585C18.5723 16.4873 18.6797 16.4385 18.7969 16.4385C18.9336 16.4385 19.041 16.4873 19.1191 16.585C19.2168 16.6631 19.2656 16.7705 19.2656 16.9072C19.2656 17.0244 19.2168 17.1318 19.1191 17.2295C19.041 17.3076 18.9434 17.3467 18.8262 17.3467ZM9.65625 10.6377L10.2715 10.0225L11.5605 11.3115V4.60254H12.4395V11.3115L13.7285 10.0225L14.3438 10.6377L12 12.9814L10.8281 11.8096C10.1445 11.126 9.75391 10.7354 9.65625 10.6377Z" fill="#77BC1F"/>
</svg>
