<?xml version="1.0" encoding="UTF-8"?>
<svg id="Ebene_2" data-name="Ebene 2" xmlns="http://www.w3.org/2000/svg" viewBox="0 0 280 200">
  <defs>
    <style>
      .cls-1 {
        opacity: .2;
      }

      .cls-2 {
        stroke: #fff;
      }

      .cls-2, .cls-3 {
        stroke-miterlimit: 10;
      }

      .cls-2, .cls-3, .cls-4 {
        fill: none;
        stroke-width: 2px;
      }

      .cls-3, .cls-4 {
        stroke: #77bc1f;
      }

      .cls-4 {
        stroke-linecap: round;
        stroke-linejoin: round;
      }
    </style>
  </defs>
  <g>
    <circle class="cls-3" cx="140" cy="100" r="71.2340425532"/>
    <g class="cls-1">
      <path d="M139.9997610539,28.7659662125c39.341796875,0,71.234375,31.892539978,71.234375,71.2340393066,0,39.3414611816-31.892578125,71.2340393066-71.234375,71.2340393066-39.3413085938,0-71.2338867188-31.892578125-71.2338867188-71.2340393066,0-39.3414993286,31.892578125-71.2340393066,71.2338867188-71.2340393066M139.9997610539,20.7659662125c-43.6899414062,0-79.2338867188,35.5442352295-79.2338867188,79.2340393066s35.5439453125,79.2340393066,79.2338867188,79.2340393066,79.234375-35.5442352295,79.234375-79.2340393066S183.6897024601,20.7659662125,139.9997610539,20.7659662125h0Z"/>
    </g>
    <circle class="cls-4" cx="140" cy="100" r="71.2340425532"/>
  </g>
  <polygon class="cls-2" points="168.8046892523 81.1926627525 158.8073372475 71.1953107477 140 90.0026479952 121.1926627525 71.1953107477 111.1953107477 81.1926627525 130.0026479952 100 111.1953107477 118.8073372475 121.1926627525 128.8046892523 140 109.9973520048 158.8073372475 128.8046892523 168.8046892523 118.8073372475 149.9973520048 100 168.8046892523 81.1926627525"/>
</svg>