<?xml version="1.0" encoding="UTF-8"?>
<svg id="Ebene_2" data-name="Ebene 2" xmlns="http://www.w3.org/2000/svg" viewBox="0 0 280 200">
  <defs>
    <style>
      .cls-1 {
        stroke: #003ca6;
        stroke-miterlimit: 10;
      }

      .cls-1, .cls-2 {
        fill: none;
        stroke-width: 2px;
      }

      .cls-3 {
        fill: #77bc1f;
      }

      .cls-4 {
        opacity: .1;
      }

      .cls-2 {
        stroke: #77bc1f;
        stroke-linecap: round;
        stroke-linejoin: round;
      }
    </style>
  </defs>
  <g>
    <g class="cls-4">
      <path class="cls-3" d="M139.9997610539,28.7659606934c39.341796875,0,71.234375,31.892578125,71.234375,71.2340393066s-31.892578125,71.2340393066-71.234375,71.2340393066c-39.3413085938,0-71.2338867188-31.892578125-71.2338867188-71.2340393066S100.6584524601,28.7659606934,139.9997610539,28.7659606934M139.9997610539,20.7659606934c-43.6899414062,0-79.2338867188,35.5442352295-79.2338867188,79.2340393066,0,43.6898078918,35.5439453125,79.2340393066,79.2338867188,79.2340393066s79.234375-35.5442314148,79.234375-79.2340393066c0-43.6898040771-35.5444335938-79.2340393066-79.234375-79.2340393066h0Z"/>
    </g>
    <circle class="cls-2" cx="140" cy="100" r="71.2340425532"/>
  </g>
  <polygon class="cls-1" points="168.8046892523 81.1926627525 158.8073372475 71.1953107477 140 90.0026479952 121.1926627525 71.1953107477 111.1953107477 81.1926627525 130.0026479952 100 111.1953107477 118.8073372475 121.1926627525 128.8046892523 140 109.9973520048 158.8073372475 128.8046892523 168.8046892523 118.8073372475 149.9973520048 100 168.8046892523 81.1926627525"/>
</svg>