<svg width="24" height="24" viewBox="0 0 24 24" fill="none" xmlns="http://www.w3.org/2000/svg">
<path d="M15.2559 12.077L14.5037 11.2808C14.6454 10.4078 14.4116 9.652 13.8024 9.0135C13.1932 8.375 12.4821 8.13075 11.6693 8.28075L10.9171 7.4845C11.0758 7.41534 11.2414 7.36342 11.414 7.32875C11.5866 7.29425 11.7819 7.277 12 7.277C12.9629 7.277 13.7789 7.63117 14.4481 8.3395C15.1174 9.04783 15.452 9.91158 15.452 10.9308C15.452 11.1616 15.4357 11.3748 15.4031 11.5703C15.3703 11.7658 15.3213 11.9347 15.2559 12.077ZM18.2428 15.15L17.5269 14.4808C18.1253 13.9974 18.6567 13.4683 19.1212 12.8933C19.5858 12.3183 19.9833 11.6641 20.314 10.9308C19.5267 9.24742 18.3969 7.90992 16.9246 6.91825C15.4524 5.92658 13.8108 5.43075 12 5.43075C11.5434 5.43075 11.0946 5.46408 10.6537 5.53075C10.2128 5.59742 9.77978 5.69742 9.35463 5.83075L8.617 5.05C9.16575 4.83084 9.72412 4.67283 10.2921 4.576C10.8602 4.47917 11.4295 4.43075 12 4.43075C14.0506 4.43075 15.9262 5.02725 17.6268 6.22025C19.3274 7.41309 20.5768 8.98325 21.375 10.9308C21.0371 11.7346 20.6093 12.49 20.0915 13.197C19.5736 13.9042 18.9574 14.5552 18.2428 15.15ZM19.2965 20.5693L15.6192 16.6885C15.2013 16.8847 14.6826 17.0574 14.0632 17.2068C13.4435 17.3561 12.7558 17.4308 12 17.4308C9.93724 17.4308 8.06163 16.8343 6.37316 15.6413C4.68469 14.4484 3.4353 12.8783 2.625 10.9308C2.99189 10.0474 3.47577 9.22017 4.07665 8.449C4.67737 7.67783 5.31871 7.03075 6.00068 6.50775L3.36618 3.70775L4.03484 3L19.9652 19.8615C19.9652 19.8615 19.2965 20.5693 19.2965 20.5693ZM6.66934 7.21525C6.12783 7.62308 5.57427 8.159 5.00867 8.823C4.44306 9.48717 4.00217 10.1898 3.68598 10.9308C4.47329 12.6141 5.60309 13.9516 7.07536 14.9433C8.54764 15.9349 10.1892 16.4308 12 16.4308C12.5451 16.4308 13.0944 16.3747 13.6479 16.2625C14.2014 16.1503 14.6175 16.0372 14.8962 15.923L13.3553 14.2808C13.2063 14.3693 12.9986 14.442 12.7322 14.499C12.4658 14.556 12.2217 14.5845 12 14.5845C11.0371 14.5845 10.2211 14.2303 9.55185 13.522C8.88264 12.8137 8.54803 11.9499 8.54803 10.9308C8.54803 10.7089 8.57496 10.4602 8.62881 10.1845C8.68266 9.909 8.75139 9.67958 8.83501 9.49625C8.83501 9.49625 6.66935 7.21525 6.66934 7.21525Z" fill="#77BC1F"/>
</svg>
