<svg width="1024" height="1024" version="1.1" xmlns="http://www.w3.org/2000/svg" desc="Created with imagetracer.js version 1.2.6" ><path fill="rgb(0,0,0)" stroke="rgb(0,0,0)" stroke-width="1" opacity="0" d="M 0 0 L 1024 0 L 1024 1024 L 0 1024 L 0 0 Z M 495 77 L 494 78 L 481 78 L 480 79 L 452 81 L 416 88 L 386 96 L 345 111 Q 270 143 215 195 Q 154 251 117 331 L 102 368 L 89 411 L 81 452 L 79 478 L 78 479 L 78 492 L 77 493 L 77 532 L 78 533 L 78 547 L 79 548 L 79 557 L 80 558 L 80 565 L 81 566 L 81 573 L 84 586 L 84 591 L 94 633 L 107 671 Q 141 756 201 817 Q 256 874 334 909 L 369 923 L 405 934 L 436 941 L 454 943 L 455 944 L 471 945 L 472 946 L 481 946 L 482 947 L 543 947 L 544 946 L 570 944 L 608 937 Q 634 931 659 922 Q 748 889 811 829 Q 872 772 909 691 L 925 650 L 937 607 L 944 568 L 944 560 L 946 551 L 946 538 L 947 537 L 947 489 L 946 488 L 946 475 L 945 474 L 943 451 L 936 414 L 923 370 Q 891 282 834 220 Q 773 152 685 113 L 636 95 L 591 84 L 574 82 L 573 81 L 557 80 L 556 79 L 532 78 L 531 77 L 495 77 Z " /><path fill="rgb(119,188,32)" stroke="rgb(119,188,32)" stroke-width="1" opacity="0.984313725490196" d="M 491.5 78 L 533.5 78 L 534.5 79 L 547.5 79 L 548.5 80 L 574.5 82 L 626.5 93 L 671.5 108 Q 712.5 124.5 747.5 147 L 787.5 176 L 818.5 205 L 820 205 L 820 206.5 Q 837.4 222.6 852 241.5 L 879 279.5 L 897 310.5 L 917 354.5 L 931 396.5 L 938 425.5 L 943 454.5 L 943 462.5 L 945 471.5 L 945 484.5 L 946 485.5 L 946 539.5 L 945 540.5 L 945 552.5 L 944 553.5 L 942 576.5 L 936 608.5 L 922 656.5 L 908 691.5 Q 870.3 773.8 807.5 831 Q 750.1 885.1 670.5 917 L 632.5 930 L 589.5 940 L 571.5 942 L 570.5 943 L 563.5 943 L 562.5 944 L 555.5 944 L 554.5 945 L 509.5 947 L 508.5 946 L 470.5 945 L 469.5 944 L 446.5 942 L 424.5 938 L 385.5 928 L 332.5 908 Q 254.6 871.9 199 813.5 Q 164.2 777.8 138 733.5 Q 117.6 698.9 103 658.5 L 91 619.5 L 82 574.5 L 80 550.5 L 79 549.5 L 79 536.5 L 78 535.5 L 78 489.5 L 79 488.5 L 79 475.5 L 80 474.5 L 82 449.5 L 88 417.5 L 101 371.5 L 117 331.5 Q 156 248 220.5 190 Q 275.6 139.6 350.5 109 L 390.5 95 L 422.5 87 L 449.5 82 L 476.5 80 L 477.5 79 L 490.5 79 L 491.5 78 Z M 490 97 L 489 98 L 474 98 L 465 100 L 457 100 L 419 107 Q 376 117 340 134 Q 271 166 221 216 Q 166 268 133 342 Q 117 377 107 419 L 101 450 L 99 473 L 98 474 L 98 487 L 97 488 L 97 538 L 98 539 L 98 552 L 100 561 L 100 569 L 107 607 L 121 654 Q 151 734 204 792 Q 256 850 330 886 L 378 906 L 412 916 L 446 923 L 468 925 L 469 926 L 479 926 L 480 927 L 493 927 L 494 928 L 532 928 L 533 927 L 557 926 L 558 925 L 565 925 L 566 924 L 573 924 L 586 921 L 591 921 L 628 912 L 666 899 Q 746 866 803 810 Q 858 756 892 682 L 909 637 L 919 599 L 924 571 L 925 556 L 926 555 L 927 520 L 928 519 L 926 471 L 925 470 L 924 454 L 921 441 L 921 436 L 911 395 L 900 363 Q 869 284 815 228 Q 756 163 669 127 L 629 113 L 587 103 L 569 101 L 568 100 L 561 100 L 560 99 L 552 99 L 551 98 L 537 98 L 536 97 L 490 97 Z " /><path fill="rgb(119,188,32)" stroke="rgb(119,188,32)" stroke-width="1" opacity="0.984313725490196" d="M 504.5 175 L 525.5 175 L 539.5 178 Q 554 183 563 193.5 Q 571 202.5 576 214.5 L 580 227.5 L 581 245.5 L 582 247.5 L 581 248.5 L 581 262.5 L 578 278.5 L 572 295.5 Q 568.8 304.3 562.5 310 L 556.5 312 L 549 307.5 L 548 299.5 Q 563.1 279.1 563 243.5 L 562 242.5 L 561 229.5 L 558 220.5 Q 553.5 209 544.5 202 L 530.5 195 L 511.5 193 L 501.5 195 L 494.5 198 L 485 206.5 L 477 220.5 L 473 234.5 L 472 247.5 L 471 248.5 L 471 275.5 L 476 304.5 L 482 323.5 L 491 343.5 L 503.5 360 Q 509.3 365.7 518.5 368 L 530.5 368 L 534 370 L 537 376.5 Q 536.1 383.1 531.5 386 Q 525.6 388.6 515.5 387 L 503.5 383 L 493 377 Q 494.1 374.3 491.5 375 L 476 355.5 Q 466.4 338.1 460 317.5 L 453 283.5 L 452 250.5 L 453 249.5 L 454 234.5 L 459 215.5 Q 464.9 198.9 476.5 188 L 492.5 178 L 504.5 175 Z " /><path fill="rgb(241,246,240)" stroke="rgb(241,246,240)" stroke-width="1" opacity="1" d="M 489.5 103 L 535 103.5 L 489.5 104 L 489.5 103 Z " /><path fill="rgb(241,246,240)" stroke="rgb(241,246,240)" stroke-width="1" opacity="1" d="M 474.5 104 L 486 104.5 L 474.5 105 L 474.5 104 Z " /><path fill="rgb(241,246,240)" stroke="rgb(241,246,240)" stroke-width="1" opacity="1" d="M 538.5 104 L 550 104.5 L 538.5 105 L 538.5 104 Z " /><path fill="rgb(241,246,240)" stroke="rgb(241,246,240)" stroke-width="1" opacity="1" d="M 466.5 105 L 472 105.5 L 466.5 106 L 466.5 105 Z " /><path fill="rgb(241,246,240)" stroke="rgb(241,246,240)" stroke-width="1" opacity="1" d="M 552.5 105 L 559 105.5 L 552.5 106 L 552.5 105 Z " /><path fill="rgb(241,246,240)" stroke="rgb(241,246,240)" stroke-width="1" opacity="1" d="M 457.5 106 L 464 106.5 L 457.5 107 L 457.5 106 Z " /><path fill="rgb(241,246,240)" stroke="rgb(241,246,240)" stroke-width="1" opacity="1" d="M 561.5 106 L 568 106.5 L 561.5 107 L 561.5 106 Z " /><path fill="rgb(241,246,240)" stroke="rgb(241,246,240)" stroke-width="1" opacity="1" d="M 450.5 107 L 456 107.5 L 450.5 108 L 450.5 107 Z " /><path fill="rgb(241,246,240)" stroke="rgb(241,246,240)" stroke-width="1" opacity="1" d="M 569.5 107 L 573 107.5 L 569.5 108 L 569.5 107 Z " /><path fill="rgb(241,246,240)" stroke="rgb(241,246,240)" stroke-width="1" opacity="1" d="M 444.5 108 L 449 108.5 L 444.5 109 L 444.5 108 Z " /><path fill="rgb(241,246,240)" stroke="rgb(241,246,240)" stroke-width="1" opacity="1" d="M 575.5 108 L 580 108.5 L 575.5 109 L 575.5 108 Z " /><path fill="rgb(241,246,240)" stroke="rgb(241,246,240)" stroke-width="1" opacity="1" d="M 438.5 109 L 443 109.5 L 438.5 110 L 438.5 109 Z " /><path fill="rgb(241,246,240)" stroke="rgb(241,246,240)" stroke-width="1" opacity="1" d="M 581.5 109 L 586 109.5 L 581.5 110 L 581.5 109 Z " /><path fill="rgb(241,246,240)" stroke="rgb(241,246,240)" stroke-width="1" opacity="1" d="M 434.5 110 L 437 110.5 L 434.5 111 L 434.5 110 Z " /><path fill="rgb(241,246,240)" stroke="rgb(241,246,240)" stroke-width="1" opacity="1" d="M 587.5 110 L 591 110.5 L 587.5 111 L 587.5 110 Z " /><path fill="rgb(241,246,240)" stroke="rgb(241,246,240)" stroke-width="1" opacity="1" d="M 429.5 111 L 433 111.5 L 429.5 112 L 429.5 111 Z " /><path fill="rgb(241,246,240)" stroke="rgb(241,246,240)" stroke-width="1" opacity="1" d="M 592.5 111 L 596 111.5 L 592.5 112 L 592.5 111 Z " /><path fill="rgb(241,246,240)" stroke="rgb(241,246,240)" stroke-width="1" opacity="1" d="M 424.5 112 L 428 112.5 L 424.5 113 L 424.5 112 Z " /><path fill="rgb(241,246,240)" stroke="rgb(241,246,240)" stroke-width="1" opacity="1" d="M 597.5 112 L 605 113.5 L 601.5 114 L 597.5 113 L 597.5 112 Z " /><path fill="rgb(241,246,240)" stroke="rgb(241,246,240)" stroke-width="1" opacity="1" d="M 419.5 113 L 423 113.5 L 419.5 114 L 419.5 113 Z " /><path fill="rgb(241,246,240)" stroke="rgb(241,246,240)" stroke-width="1" opacity="1" d="M 415.5 114 L 418 114.5 L 415.5 115 L 415.5 114 Z " /><path fill="rgb(241,246,240)" stroke="rgb(241,246,240)" stroke-width="1" opacity="1" d="M 606.5 114 L 609 114.5 L 606.5 115 L 606.5 114 Z " /><path fill="rgb(241,246,240)" stroke="rgb(241,246,240)" stroke-width="1" opacity="1" d="M 411.5 115 L 414 115.5 L 408.5 117 L 408.5 116 L 411.5 115 Z " /><path fill="rgb(241,246,240)" stroke="rgb(241,246,240)" stroke-width="1" opacity="1" d="M 610.5 115 L 613 115.5 L 610.5 116 L 610.5 115 Z " /><path fill="rgb(241,246,240)" stroke="rgb(241,246,240)" stroke-width="1" opacity="1" d="M 614.5 116 L 617 116.5 L 614.5 117 L 614.5 116 Z " /><path fill="rgb(241,246,240)" stroke="rgb(241,246,240)" stroke-width="1" opacity="1" d="M 404.5 117 L 407 117.5 L 404.5 118 L 404.5 117 Z " /><path fill="rgb(241,246,240)" stroke="rgb(241,246,240)" stroke-width="1" opacity="1" d="M 618.5 117 L 624 118.5 L 621.5 119 L 618.5 118 L 618.5 117 Z " /><path fill="rgb(241,246,240)" stroke="rgb(241,246,240)" stroke-width="1" opacity="1" d="M 400.5 118 L 403 118.5 L 400.5 119 L 400.5 118 Z " /><path fill="rgb(241,246,240)" stroke="rgb(241,246,240)" stroke-width="1" opacity="1" d="M 396.5 119 L 399 119.5 L 387.5 123 L 387.5 122 L 396.5 119 Z " /><path fill="rgb(241,246,240)" stroke="rgb(241,246,240)" stroke-width="1" opacity="1" d="M 625.5 119 L 631 120.5 L 628.5 121 L 625.5 120 L 625.5 119 Z " /><path fill="rgb(241,246,240)" stroke="rgb(241,246,240)" stroke-width="1" opacity="1" d="M 635.5 122 L 640 123.5 L 638.5 124 L 635.5 123 L 635.5 122 Z " /><path fill="rgb(241,246,240)" stroke="rgb(241,246,240)" stroke-width="1" opacity="1" d="M 641.5 124 L 649 126.5 L 647.5 127 L 641.5 125 L 641.5 124 Z " /><path fill="rgb(241,246,240)" stroke="rgb(241,246,240)" stroke-width="1" opacity="1" d="M 375.5 126 L 377 126.5 L 370.5 129 L 370.5 128 L 375.5 126 Z " /><path fill="rgb(241,246,240)" stroke="rgb(241,246,240)" stroke-width="1" opacity="1" d="M 650.5 127 L 657 129.5 L 655.5 130 L 650.5 128 L 650.5 127 Z " /><path fill="rgb(241,246,240)" stroke="rgb(241,246,240)" stroke-width="1" opacity="1" d="M 367.5 129 L 369 129.5 L 362.5 132 L 362.5 131 L 367.5 129 Z " /><path fill="rgb(241,246,240)" stroke="rgb(241,246,240)" stroke-width="1" opacity="1" d="M 658.5 130 L 672 135.5 L 670.5 136 L 658.5 131 L 658.5 130 Z " /><path fill="rgb(241,246,240)" stroke="rgb(241,246,240)" stroke-width="1" opacity="1" d="M 359.5 132 L 361 132.5 L 357.5 134 L 357.5 133 L 359.5 132 Z " /><path fill="rgb(241,246,240)" stroke="rgb(241,246,240)" stroke-width="1" opacity="1" d="M 352.5 135 L 354 135.5 L 350.5 137 L 350.5 136 L 352.5 135 Z " /><path fill="rgb(241,246,240)" stroke="rgb(241,246,240)" stroke-width="1" opacity="1" d="M 673.5 136 L 679 138.5 L 677.5 139 L 673.5 137 L 673.5 136 Z " /><path fill="rgb(241,246,240)" stroke="rgb(241,246,240)" stroke-width="1" opacity="1" d="M 347.5 137 L 349 137.5 L 343.5 140 L 343.5 139 L 347.5 137 Z " /><path fill="rgb(241,246,240)" stroke="rgb(241,246,240)" stroke-width="1" opacity="1" d="M 680.5 139 L 709 153.5 L 707.5 153 L 680.5 140 L 680.5 139 Z " /><path fill="rgb(241,246,240)" stroke="rgb(241,246,240)" stroke-width="1" opacity="1" d="M 338.5 141 L 340 141.5 L 337.5 143 L 338.5 141 Z " /><path fill="rgb(241,246,240)" stroke="rgb(241,246,240)" stroke-width="1" opacity="1" d="M 334.5 143 L 336 143.5 L 319.5 152 L 320.5 150 L 334.5 143 Z " /><path fill="rgb(241,246,240)" stroke="rgb(241,246,240)" stroke-width="1" opacity="1" d="M 317.5 152 L 316.5 154 L 310.5 157 L 311.5 155 L 317.5 152 Z " /><path fill="rgb(241,246,240)" stroke="rgb(241,246,240)" stroke-width="1" opacity="1" d="M 710.5 154 Q 729.9 163.6 746 176.5 L 743.5 175 L 718.5 159 L 711.5 156 L 710.5 154 Z " /><path fill="rgb(241,246,240)" stroke="rgb(241,246,240)" stroke-width="1" opacity="1" d="M 306.5 158 L 305.5 160 L 303.5 161 L 304.5 159 L 306.5 158 Z " /><path fill="rgb(241,246,240)" stroke="rgb(241,246,240)" stroke-width="1" opacity="1" d="M 301.5 161 L 300.5 163 L 290.5 169 L 291.5 167 L 301.5 161 Z " /><path fill="rgb(241,246,240)" stroke="rgb(241,246,240)" stroke-width="1" opacity="1" d="M 288.5 169 L 287.5 171 Q 246.8 196.8 215 231.5 Q 187.7 259.7 166.5 294 L 167 292.5 Q 196.7 244.7 237.5 208 L 270.5 181 L 288.5 169 Z " /><path fill="rgb(241,246,240)" stroke="rgb(241,246,240)" stroke-width="1" opacity="1" d="M 520.5 174 L 523 174.5 L 520.5 175 L 520.5 174 Z " /><path fill="rgb(241,246,240)" stroke="rgb(241,246,240)" stroke-width="1" opacity="1" d="M 747.5 177 L 770 194.5 L 766.5 192 L 749.5 180 L 747.5 177 Z " /><path fill="rgb(241,246,240)" stroke="rgb(241,246,240)" stroke-width="1" opacity="1" d="M 480.5 184 L 479.5 186 L 480.5 184 Z " /><path fill="rgb(241,246,240)" stroke="rgb(241,246,240)" stroke-width="1" opacity="1" d="M 470.5 194 L 469.5 196 L 470.5 194 Z " /><path fill="rgb(241,246,240)" stroke="rgb(241,246,240)" stroke-width="1" opacity="1" d="M 771.5 195 Q 796.1 214.9 817 238.5 Q 846.8 271.2 869 311.5 L 867 310.5 Q 834.2 251.3 785.5 208 Q 776.5 202.5 771.5 195 Z " /><path fill="rgb(241,246,240)" stroke="rgb(241,246,240)" stroke-width="1" opacity="1" d="M 565.5 196 L 566.5 198 L 565.5 196 Z " /><path fill="rgb(241,246,240)" stroke="rgb(241,246,240)" stroke-width="1" opacity="1" d="M 493.5 199 L 492.5 201 L 493.5 199 Z " /><path fill="rgb(241,246,240)" stroke="rgb(241,246,240)" stroke-width="1" opacity="1" d="M 546.5 204 L 548.5 207 L 546.5 204 Z " /><path fill="rgb(241,246,240)" stroke="rgb(241,246,240)" stroke-width="1" opacity="1" d="M 551.5 210 L 552.5 212 L 551.5 210 Z " /><path fill="rgb(241,246,240)" stroke="rgb(241,246,240)" stroke-width="1" opacity="1" d="M 471.5 253 L 472 255.5 L 471 255.5 L 471.5 253 Z " /><path fill="rgb(241,246,240)" stroke="rgb(241,246,240)" stroke-width="1" opacity="1" d="M 581.5 256 L 582 259.5 L 581 259.5 L 581.5 256 Z " /><path fill="rgb(241,246,240)" stroke="rgb(241,246,240)" stroke-width="1" opacity="1" d="M 471.5 269 L 472 271.5 L 471 271.5 L 471.5 269 Z " /><path fill="rgb(241,246,240)" stroke="rgb(241,246,240)" stroke-width="1" opacity="1" d="M 452.5 278 L 453 280.5 L 452 280.5 L 452.5 278 Z " /><path fill="rgb(241,246,240)" stroke="rgb(241,246,240)" stroke-width="1" opacity="1" d="M 165.5 295 L 165 296.5 L 157.5 309 L 158 307.5 L 165.5 295 Z " /><path fill="rgb(241,246,240)" stroke="rgb(241,246,240)" stroke-width="1" opacity="1" d="M 547.5 300 L 548 303.5 L 547 303.5 L 547.5 300 Z " /><path fill="rgb(241,246,240)" stroke="rgb(241,246,240)" stroke-width="1" opacity="1" d="M 565.5 307 L 562.5 311 L 565.5 307 Z " /><path fill="rgb(241,246,240)" stroke="rgb(241,246,240)" stroke-width="1" opacity="1" d="M 550.5 309 L 551.5 311 L 550.5 309 Z " /><path fill="rgb(241,246,240)" stroke="rgb(241,246,240)" stroke-width="1" opacity="1" d="M 156.5 310 L 156 311.5 L 152.5 318 L 153 316.5 L 156.5 310 Z " /><path fill="rgb(241,246,240)" stroke="rgb(241,246,240)" stroke-width="1" opacity="1" d="M 712.5 315 L 713.5 317 L 712.5 315 Z " /><path fill="rgb(241,246,240)" stroke="rgb(241,246,240)" stroke-width="1" opacity="1" d="M 870.5 315 L 874 320.5 L 872 319.5 L 870.5 315 Z " /><path fill="rgb(241,246,240)" stroke="rgb(241,246,240)" stroke-width="1" opacity="1" d="M 301.5 318 L 300.5 320 L 301.5 318 Z " /><path fill="rgb(241,246,240)" stroke="rgb(241,246,240)" stroke-width="1" opacity="1" d="M 151.5 319 L 151 320.5 L 141.5 340 L 141 338.5 L 151.5 319 Z " /><path fill="rgb(241,246,240)" stroke="rgb(241,246,240)" stroke-width="1" opacity="1" d="M 874.5 322 L 876 324.5 L 875 324.5 L 874.5 322 Z " /><path fill="rgb(241,246,240)" stroke="rgb(241,246,240)" stroke-width="1" opacity="1" d="M 876.5 326 L 878 328.5 L 877 328.5 L 876.5 326 Z " /><path fill="rgb(241,246,240)" stroke="rgb(241,246,240)" stroke-width="1" opacity="1" d="M 297.5 328 L 298 758.5 L 297 758.5 L 297.5 328 Z " /><path fill="rgb(241,246,240)" stroke="rgb(241,246,240)" stroke-width="1" opacity="1" d="M 880.5 334 L 889 352.5 L 888 352.5 L 880 335.5 L 880.5 334 Z " /><path fill="rgb(241,246,240)" stroke="rgb(241,246,240)" stroke-width="1" opacity="1" d="M 140.5 341 L 140 342.5 L 137.5 349 L 137 347.5 L 140.5 341 Z " /><path fill="rgb(241,246,240)" stroke="rgb(241,246,240)" stroke-width="1" opacity="1" d="M 665.5 347 L 669 347.5 L 665.5 348 L 665.5 347 Z " /><path fill="rgb(241,246,240)" stroke="rgb(241,246,240)" stroke-width="1" opacity="1" d="M 136.5 350 L 137 351.5 L 134.5 356 L 134 354.5 L 136.5 350 Z " /><path fill="rgb(241,246,240)" stroke="rgb(241,246,240)" stroke-width="1" opacity="1" d="M 341.5 350 L 340.5 352 L 341.5 350 Z " /><path fill="rgb(241,246,240)" stroke="rgb(241,246,240)" stroke-width="1" opacity="1" d="M 675.5 350 L 676.5 352 L 675.5 350 Z " /><path fill="rgb(241,246,240)" stroke="rgb(241,246,240)" stroke-width="1" opacity="1" d="M 889.5 354 L 892 359.5 L 891 359.5 L 889.5 354 Z " /><path fill="rgb(241,246,240)" stroke="rgb(241,246,240)" stroke-width="1" opacity="1" d="M 336.5 355 L 335.5 357 L 336.5 355 Z " /><path fill="rgb(241,246,240)" stroke="rgb(241,246,240)" stroke-width="1" opacity="1" d="M 680.5 355 L 681.5 357 L 680.5 355 Z " /><path fill="rgb(241,246,240)" stroke="rgb(241,246,240)" stroke-width="1" opacity="1" d="M 133.5 357 L 134 358.5 L 130.5 366 L 130 364.5 L 133.5 357 Z " /><path fill="rgb(241,246,240)" stroke="rgb(241,246,240)" stroke-width="1" opacity="1" d="M 892.5 361 L 894 364.5 L 893 364.5 L 892.5 361 Z " /><path fill="rgb(241,246,240)" stroke="rgb(241,246,240)" stroke-width="1" opacity="1" d="M 684.5 363 L 685 723.5 L 684 723.5 L 684.5 363 Z " /><path fill="rgb(241,246,240)" stroke="rgb(241,246,240)" stroke-width="1" opacity="1" d="M 332.5 364 L 333 722.5 L 332 722.5 L 332.5 364 Z " /><path fill="rgb(241,246,240)" stroke="rgb(241,246,240)" stroke-width="1" opacity="1" d="M 129.5 367 L 130 368.5 L 127.5 374 L 127 372.5 L 129.5 367 Z " /><path fill="rgb(241,246,240)" stroke="rgb(241,246,240)" stroke-width="1" opacity="1" d="M 895.5 369 L 898 375.5 L 897 375.5 L 895.5 369 Z " /><path fill="rgb(241,246,240)" stroke="rgb(241,246,240)" stroke-width="1" opacity="1" d="M 493.5 377 L 496 378.5 L 494.5 378 L 492.5 379 L 493.5 377 Z " /><path fill="rgb(241,246,240)" stroke="rgb(241,246,240)" stroke-width="1" opacity="1" d="M 898.5 377 L 900 381.5 L 899 381.5 L 898.5 377 Z " /><path fill="rgb(241,246,240)" stroke="rgb(241,246,240)" stroke-width="1" opacity="1" d="M 125.5 378 L 126 379.5 L 124.5 383 L 124 380.5 L 125.5 378 Z " /><path fill="rgb(241,246,240)" stroke="rgb(241,246,240)" stroke-width="1" opacity="1" d="M 533.5 384 L 532.5 386 L 533.5 384 Z " /><path fill="rgb(241,246,240)" stroke="rgb(241,246,240)" stroke-width="1" opacity="1" d="M 902.5 389 L 905 397.5 L 904 397.5 L 902.5 389 Z " /><path fill="rgb(241,246,240)" stroke="rgb(241,246,240)" stroke-width="1" opacity="1" d="M 120.5 393 L 121 395.5 L 119.5 399 L 119 396.5 L 120.5 393 Z " /><path fill="rgb(241,246,240)" stroke="rgb(241,246,240)" stroke-width="1" opacity="1" d="M 905.5 399 L 907 404.5 L 906 404.5 L 905.5 399 Z " /><path fill="rgb(241,246,240)" stroke="rgb(241,246,240)" stroke-width="1" opacity="1" d="M 118.5 400 L 119 402.5 L 118 402.5 L 118.5 400 Z " /><path fill="rgb(241,246,240)" stroke="rgb(241,246,240)" stroke-width="1" opacity="1" d="M 907.5 406 L 908 408.5 L 907 408.5 L 907.5 406 Z " /><path fill="rgb(241,246,240)" stroke="rgb(241,246,240)" stroke-width="1" opacity="1" d="M 116.5 407 L 117 409.5 L 116 409.5 L 116.5 407 Z " /><path fill="rgb(241,246,240)" stroke="rgb(241,246,240)" stroke-width="1" opacity="1" d="M 908.5 410 L 909 412.5 L 908 412.5 L 908.5 410 Z " /><path fill="rgb(241,246,240)" stroke="rgb(241,246,240)" stroke-width="1" opacity="1" d="M 115.5 411 L 116 413.5 L 115 413.5 L 115.5 411 Z " /><path fill="rgb(241,246,240)" stroke="rgb(241,246,240)" stroke-width="1" opacity="1" d="M 909.5 414 L 911 420.5 L 910 420.5 L 909.5 414 Z " /><path fill="rgb(241,246,240)" stroke="rgb(241,246,240)" stroke-width="1" opacity="1" d="M 114.5 415 L 115 417.5 L 114 417.5 L 114.5 415 Z " /><path fill="rgb(241,246,240)" stroke="rgb(241,246,240)" stroke-width="1" opacity="1" d="M 511.5 417 L 514 417.5 L 511.5 418 L 511.5 417 Z " /><path fill="rgb(241,246,240)" stroke="rgb(241,246,240)" stroke-width="1" opacity="1" d="M 113.5 419 L 114 421.5 L 113 421.5 L 113.5 419 Z " /><path fill="rgb(241,246,240)" stroke="rgb(241,246,240)" stroke-width="1" opacity="1" d="M 911.5 422 L 912 425.5 L 911 425.5 L 911.5 422 Z " /><path fill="rgb(241,246,240)" stroke="rgb(241,246,240)" stroke-width="1" opacity="1" d="M 112.5 423 L 113 426.5 L 112 426.5 L 112.5 423 Z " /><path fill="rgb(241,246,240)" stroke="rgb(241,246,240)" stroke-width="1" opacity="1" d="M 912.5 427 L 913 429.5 L 912 429.5 L 912.5 427 Z " /><path fill="rgb(241,246,240)" stroke="rgb(241,246,240)" stroke-width="1" opacity="1" d="M 111.5 428 L 112 431.5 L 111 431.5 L 111.5 428 Z " /><path fill="rgb(241,246,240)" stroke="rgb(241,246,240)" stroke-width="1" opacity="1" d="M 913.5 431 L 914 434.5 L 913 434.5 L 913.5 431 Z " /><path fill="rgb(241,246,240)" stroke="rgb(241,246,240)" stroke-width="1" opacity="1" d="M 110.5 433 L 111 436.5 L 110 436.5 L 110.5 433 Z " /><path fill="rgb(241,246,240)" stroke="rgb(241,246,240)" stroke-width="1" opacity="1" d="M 914.5 436 L 915 440.5 L 914 440.5 L 914.5 436 Z " /><path fill="rgb(241,246,240)" stroke="rgb(241,246,240)" stroke-width="1" opacity="1" d="M 109.5 438 L 110 442.5 L 109 442.5 L 109.5 438 Z " /><path fill="rgb(241,246,240)" stroke="rgb(241,246,240)" stroke-width="1" opacity="1" d="M 915.5 442 L 916 446.5 L 915 446.5 L 915.5 442 Z " /><path fill="rgb(241,246,240)" stroke="rgb(241,246,240)" stroke-width="1" opacity="1" d="M 108.5 444 L 109 448.5 L 108 448.5 L 108.5 444 Z " /><path fill="rgb(241,246,240)" stroke="rgb(241,246,240)" stroke-width="1" opacity="1" d="M 916.5 448 L 917 452.5 L 916 452.5 L 916.5 448 Z " /><path fill="rgb(241,246,240)" stroke="rgb(241,246,240)" stroke-width="1" opacity="1" d="M 107.5 450 L 108 454.5 L 107 454.5 L 107.5 450 Z " /><path fill="rgb(241,246,240)" stroke="rgb(241,246,240)" stroke-width="1" opacity="1" d="M 917.5 454 L 918 460.5 L 917 460.5 L 917.5 454 Z " /><path fill="rgb(241,246,240)" stroke="rgb(241,246,240)" stroke-width="1" opacity="1" d="M 106.5 456 L 107 462.5 L 106 462.5 L 106.5 456 Z " /><path fill="rgb(241,246,240)" stroke="rgb(241,246,240)" stroke-width="1" opacity="1" d="M 508.5 462 L 517 462.5 L 508.5 463 L 508.5 462 Z " /><path fill="rgb(241,246,240)" stroke="rgb(241,246,240)" stroke-width="1" opacity="1" d="M 918.5 462 L 919 468.5 L 918 468.5 L 918.5 462 Z " /><path fill="rgb(241,246,240)" stroke="rgb(241,246,240)" stroke-width="1" opacity="1" d="M 500.5 463 L 503 463.5 L 500.5 464 L 500.5 463 Z " /><path fill="rgb(241,246,240)" stroke="rgb(241,246,240)" stroke-width="1" opacity="1" d="M 521.5 463 L 524 463.5 L 521.5 464 L 521.5 463 Z " /><path fill="rgb(241,246,240)" stroke="rgb(241,246,240)" stroke-width="1" opacity="1" d="M 105.5 465 L 106 471.5 L 105 471.5 L 105.5 465 Z " /><path fill="rgb(241,246,240)" stroke="rgb(241,246,240)" stroke-width="1" opacity="1" d="M 919.5 471 L 920 479.5 L 919 479.5 L 919.5 471 Z " /><path fill="rgb(241,246,240)" stroke="rgb(241,246,240)" stroke-width="1" opacity="1" d="M 104.5 473 L 105 484.5 L 104 484.5 L 104.5 473 Z " /><path fill="rgb(241,246,240)" stroke="rgb(241,246,240)" stroke-width="1" opacity="1" d="M 476.5 473 L 475.5 475 L 476.5 473 Z " /><path fill="rgb(241,246,240)" stroke="rgb(241,246,240)" stroke-width="1" opacity="1" d="M 550.5 475 L 551.5 477 L 550.5 475 Z " /><path fill="rgb(241,246,240)" stroke="rgb(241,246,240)" stroke-width="1" opacity="1" d="M 472.5 476 L 463.5 486 L 472.5 476 Z " /><path fill="rgb(241,246,240)" stroke="rgb(241,246,240)" stroke-width="1" opacity="1" d="M 552.5 480 L 557.5 486 L 552.5 480 Z " /><path fill="rgb(241,246,240)" stroke="rgb(241,246,240)" stroke-width="1" opacity="1" d="M 920.5 483 L 921 497.5 L 920 497.5 L 920.5 483 Z " /><path fill="rgb(241,246,240)" stroke="rgb(241,246,240)" stroke-width="1" opacity="1" d="M 559.5 484 L 561.5 487 L 559.5 484 Z " /><path fill="rgb(241,246,240)" stroke="rgb(241,246,240)" stroke-width="1" opacity="1" d="M 103.5 488 L 104 510.5 L 103 510.5 L 103.5 488 Z " /><path fill="rgb(241,246,240)" stroke="rgb(241,246,240)" stroke-width="1" opacity="1" d="M 461.5 488 L 460.5 490 L 461.5 488 Z " /><path fill="rgb(241,246,240)" stroke="rgb(241,246,240)" stroke-width="1" opacity="1" d="M 921.5 506 L 922 517.5 L 921 517.5 L 921.5 506 Z " /><path fill="rgb(241,246,240)" stroke="rgb(241,246,240)" stroke-width="1" opacity="1" d="M 103.5 513 L 104 536.5 L 103 536.5 L 103.5 513 Z " /><path fill="rgb(241,246,240)" stroke="rgb(241,246,240)" stroke-width="1" opacity="1" d="M 574.5 517 L 575 520.5 L 574 520.5 L 574.5 517 Z " /><path fill="rgb(241,246,240)" stroke="rgb(241,246,240)" stroke-width="1" opacity="1" d="M 449.5 519 L 450 522.5 L 449 522.5 L 449.5 519 Z " /><path fill="rgb(241,246,240)" stroke="rgb(241,246,240)" stroke-width="1" opacity="1" d="M 920.5 526 L 921 540.5 L 920 540.5 L 920.5 526 Z " /><path fill="rgb(241,246,240)" stroke="rgb(241,246,240)" stroke-width="1" opacity="1" d="M 575.5 528 L 576 536.5 L 575 536.5 L 575.5 528 Z " /><path fill="rgb(241,246,240)" stroke="rgb(241,246,240)" stroke-width="1" opacity="1" d="M 451.5 534 L 452 536.5 L 451 536.5 L 451.5 534 Z " /><path fill="rgb(241,246,240)" stroke="rgb(241,246,240)" stroke-width="1" opacity="1" d="M 104.5 540 L 105 550.5 L 104 550.5 L 104.5 540 Z " /><path fill="rgb(241,246,240)" stroke="rgb(241,246,240)" stroke-width="1" opacity="1" d="M 449.5 541 L 450 546.5 L 449 546.5 L 449.5 541 Z " /><path fill="rgb(241,246,240)" stroke="rgb(241,246,240)" stroke-width="1" opacity="1" d="M 919.5 544 L 920 553.5 L 919 553.5 L 919.5 544 Z " /><path fill="rgb(241,246,240)" stroke="rgb(241,246,240)" stroke-width="1" opacity="1" d="M 574.5 545 L 575 549.5 L 574 549.5 L 574.5 545 Z " /><path fill="rgb(241,246,240)" stroke="rgb(241,246,240)" stroke-width="1" opacity="1" d="M 450.5 552 L 451 555.5 L 450 555.5 L 450.5 552 Z " /><path fill="rgb(241,246,240)" stroke="rgb(241,246,240)" stroke-width="1" opacity="1" d="M 105.5 553 L 106 559.5 L 105 559.5 L 105.5 553 Z " /><path fill="rgb(241,246,240)" stroke="rgb(241,246,240)" stroke-width="1" opacity="1" d="M 573.5 554 L 574 556.5 L 573 556.5 L 573.5 554 Z " /><path fill="rgb(241,246,240)" stroke="rgb(241,246,240)" stroke-width="1" opacity="1" d="M 918.5 555 L 919 561.5 L 918 561.5 L 918.5 555 Z " /><path fill="rgb(241,246,240)" stroke="rgb(241,246,240)" stroke-width="1" opacity="1" d="M 451.5 559 L 452 561.5 L 451 561.5 L 451.5 559 Z " /><path fill="rgb(241,246,240)" stroke="rgb(241,246,240)" stroke-width="1" opacity="1" d="M 572.5 559 L 573 561.5 L 572 561.5 L 572.5 559 Z " /><path fill="rgb(241,246,240)" stroke="rgb(241,246,240)" stroke-width="1" opacity="1" d="M 106.5 561 L 107 567.5 L 106 567.5 L 106.5 561 Z " /><path fill="rgb(241,246,240)" stroke="rgb(241,246,240)" stroke-width="1" opacity="1" d="M 917.5 564 L 918 569.5 L 917 569.5 L 917.5 564 Z " /><path fill="rgb(241,246,240)" stroke="rgb(241,246,240)" stroke-width="1" opacity="1" d="M 107.5 570 L 108 574.5 L 107 574.5 L 107.5 570 Z " /><path fill="rgb(241,246,240)" stroke="rgb(241,246,240)" stroke-width="1" opacity="1" d="M 916.5 572 L 917 575.5 L 916 575.5 L 916.5 572 Z " /><path fill="rgb(241,246,240)" stroke="rgb(241,246,240)" stroke-width="1" opacity="1" d="M 108.5 576 L 109 580.5 L 108 580.5 L 108.5 576 Z " /><path fill="rgb(241,246,240)" stroke="rgb(241,246,240)" stroke-width="1" opacity="1" d="M 485.5 578 L 486.5 580 L 485.5 578 Z " /><path fill="rgb(241,246,240)" stroke="rgb(241,246,240)" stroke-width="1" opacity="1" d="M 915.5 578 L 916 581.5 L 915 581.5 L 915.5 578 Z " /><path fill="rgb(241,246,240)" stroke="rgb(241,246,240)" stroke-width="1" opacity="1" d="M 565.5 579 L 564.5 581 L 565.5 579 Z " /><path fill="rgb(241,246,240)" stroke="rgb(241,246,240)" stroke-width="1" opacity="1" d="M 458.5 580 L 459.5 582 L 458.5 580 Z " /><path fill="rgb(241,246,240)" stroke="rgb(241,246,240)" stroke-width="1" opacity="1" d="M 109.5 582 L 110 586.5 L 109 586.5 L 109.5 582 Z " /><path fill="rgb(241,246,240)" stroke="rgb(241,246,240)" stroke-width="1" opacity="1" d="M 460.5 583 L 461.5 585 L 460.5 583 Z " /><path fill="rgb(241,246,240)" stroke="rgb(241,246,240)" stroke-width="1" opacity="1" d="M 562.5 583 L 561.5 585 L 562.5 583 Z " /><path fill="rgb(241,246,240)" stroke="rgb(241,246,240)" stroke-width="1" opacity="1" d="M 464.5 584 L 465.5 586 L 464.5 584 Z " /><path fill="rgb(241,246,240)" stroke="rgb(241,246,240)" stroke-width="1" opacity="1" d="M 914.5 584 L 915 587.5 L 914 587.5 L 914.5 584 Z " /><path fill="rgb(241,246,240)" stroke="rgb(241,246,240)" stroke-width="1" opacity="1" d="M 110.5 588 L 111 591.5 L 110 591.5 L 110.5 588 Z " /><path fill="rgb(241,246,240)" stroke="rgb(241,246,240)" stroke-width="1" opacity="1" d="M 464.5 588 L 468.5 593 L 464.5 588 Z " /><path fill="rgb(241,246,240)" stroke="rgb(241,246,240)" stroke-width="1" opacity="1" d="M 558.5 588 L 556.5 591 L 558.5 588 Z " /><path fill="rgb(241,246,240)" stroke="rgb(241,246,240)" stroke-width="1" opacity="1" d="M 913.5 590 L 914 592.5 L 913 592.5 L 913.5 590 Z " /><path fill="rgb(241,246,240)" stroke="rgb(241,246,240)" stroke-width="1" opacity="1" d="M 470.5 591 L 471.5 593 L 470.5 591 Z " /><path fill="rgb(241,246,240)" stroke="rgb(241,246,240)" stroke-width="1" opacity="1" d="M 111.5 593 L 113 600.5 L 112 600.5 L 111.5 593 Z " /><path fill="rgb(241,246,240)" stroke="rgb(241,246,240)" stroke-width="1" opacity="1" d="M 554.5 593 L 553.5 595 L 554.5 593 Z " /><path fill="rgb(241,246,240)" stroke="rgb(241,246,240)" stroke-width="1" opacity="1" d="M 912.5 594 L 913 597.5 L 912 597.5 L 912.5 594 Z " /><path fill="rgb(241,246,240)" stroke="rgb(241,246,240)" stroke-width="1" opacity="1" d="M 471.5 596 L 472.5 598 L 471.5 596 Z " /><path fill="rgb(241,246,240)" stroke="rgb(241,246,240)" stroke-width="1" opacity="1" d="M 552.5 596 L 551.5 598 L 552.5 596 Z " /><path fill="rgb(241,246,240)" stroke="rgb(241,246,240)" stroke-width="1" opacity="1" d="M 911.5 599 L 912 602.5 L 910.5 607 L 910 603.5 L 911.5 599 Z " /><path fill="rgb(241,246,240)" stroke="rgb(241,246,240)" stroke-width="1" opacity="1" d="M 113.5 602 L 114 605.5 L 113 605.5 L 113.5 602 Z " /><path fill="rgb(241,246,240)" stroke="rgb(241,246,240)" stroke-width="1" opacity="1" d="M 114.5 607 L 115 609.5 L 114 609.5 L 114.5 607 Z " /><path fill="rgb(241,246,240)" stroke="rgb(241,246,240)" stroke-width="1" opacity="1" d="M 909.5 608 L 910 610.5 L 909 610.5 L 909.5 608 Z " /><path fill="rgb(241,246,240)" stroke="rgb(241,246,240)" stroke-width="1" opacity="1" d="M 115.5 611 L 117 616.5 L 116 616.5 L 115.5 611 Z " /><path fill="rgb(241,246,240)" stroke="rgb(241,246,240)" stroke-width="1" opacity="1" d="M 908.5 612 L 909 614.5 L 908 614.5 L 908.5 612 Z " /><path fill="rgb(241,246,240)" stroke="rgb(241,246,240)" stroke-width="1" opacity="1" d="M 531.5 617 L 533.5 620 L 531.5 617 Z " /><path fill="rgb(241,246,240)" stroke="rgb(241,246,240)" stroke-width="1" opacity="1" d="M 117.5 618 L 118 620.5 L 117 620.5 L 117.5 618 Z " /><path fill="rgb(241,246,240)" stroke="rgb(241,246,240)" stroke-width="1" opacity="1" d="M 906.5 619 L 907 621.5 L 906 621.5 L 906.5 619 Z " /><path fill="rgb(241,246,240)" stroke="rgb(241,246,240)" stroke-width="1" opacity="1" d="M 595.5 621 L 596.5 623 L 595.5 621 Z " /><path fill="rgb(241,246,240)" stroke="rgb(241,246,240)" stroke-width="1" opacity="1" d="M 118.5 622 L 119 624.5 L 118 624.5 L 118.5 622 Z " /><path fill="rgb(241,246,240)" stroke="rgb(241,246,240)" stroke-width="1" opacity="1" d="M 427.5 622 L 426.5 624 L 427.5 622 Z " /><path fill="rgb(241,246,240)" stroke="rgb(241,246,240)" stroke-width="1" opacity="1" d="M 905.5 623 L 906 625.5 L 905 625.5 L 905.5 623 Z " /><path fill="rgb(241,246,240)" stroke="rgb(241,246,240)" stroke-width="1" opacity="1" d="M 600.5 624 L 601.5 626 L 600.5 624 Z " /><path fill="rgb(241,246,240)" stroke="rgb(241,246,240)" stroke-width="1" opacity="1" d="M 421.5 626 L 420.5 628 L 421.5 626 Z " /><path fill="rgb(241,246,240)" stroke="rgb(241,246,240)" stroke-width="1" opacity="1" d="M 604.5 627 L 610.5 634 L 604.5 627 Z " /><path fill="rgb(241,246,240)" stroke="rgb(241,246,240)" stroke-width="1" opacity="1" d="M 120.5 629 L 124 640.5 L 123 640.5 L 120 631.5 L 120.5 629 Z " /><path fill="rgb(241,246,240)" stroke="rgb(241,246,240)" stroke-width="1" opacity="1" d="M 414.5 633 L 413.5 635 L 414.5 633 Z " /><path fill="rgb(241,246,240)" stroke="rgb(241,246,240)" stroke-width="1" opacity="1" d="M 902.5 633 L 903 635.5 L 899.5 645 L 899 642.5 L 902.5 633 Z " /><path fill="rgb(241,246,240)" stroke="rgb(241,246,240)" stroke-width="1" opacity="1" d="M 613.5 638 L 615 640.5 L 614 640.5 L 613.5 638 Z " /><path fill="rgb(241,246,240)" stroke="rgb(241,246,240)" stroke-width="1" opacity="1" d="M 434.5 644 L 433.5 646 L 434.5 644 Z " /><path fill="rgb(241,246,240)" stroke="rgb(241,246,240)" stroke-width="1" opacity="1" d="M 125.5 645 L 129 654.5 L 128 654.5 L 125.5 645 Z " /><path fill="rgb(241,246,240)" stroke="rgb(241,246,240)" stroke-width="1" opacity="1" d="M 898.5 646 L 899 647.5 L 897.5 650 L 897 648.5 L 898.5 646 Z " /><path fill="rgb(241,246,240)" stroke="rgb(241,246,240)" stroke-width="1" opacity="1" d="M 406.5 650 L 407 652.5 L 406 652.5 L 406.5 650 Z " /><path fill="rgb(241,246,240)" stroke="rgb(241,246,240)" stroke-width="1" opacity="1" d="M 895.5 654 L 896 655.5 L 891.5 666 L 891 664.5 L 895.5 654 Z " /><path fill="rgb(241,246,240)" stroke="rgb(241,246,240)" stroke-width="1" opacity="1" d="M 408.5 655 L 409 681.5 L 408 681.5 L 408.5 655 Z " /><path fill="rgb(241,246,240)" stroke="rgb(241,246,240)" stroke-width="1" opacity="1" d="M 618.5 655 L 619 684.5 L 618 684.5 L 618.5 655 Z " /><path fill="rgb(241,246,240)" stroke="rgb(241,246,240)" stroke-width="1" opacity="1" d="M 129.5 656 L 137 674.5 L 136 674.5 L 131 663.5 L 129.5 656 Z " /><path fill="rgb(241,246,240)" stroke="rgb(241,246,240)" stroke-width="1" opacity="1" d="M 890.5 667 L 891 668.5 L 889.5 671 L 889 669.5 L 890.5 667 Z " /><path fill="rgb(241,246,240)" stroke="rgb(241,246,240)" stroke-width="1" opacity="1" d="M 887.5 674 L 888 675.5 L 886.5 678 L 886 676.5 L 887.5 674 Z " /><path fill="rgb(241,246,240)" stroke="rgb(241,246,240)" stroke-width="1" opacity="1" d="M 138.5 678 L 140 681.5 L 139 681.5 L 138.5 678 Z " /><path fill="rgb(241,246,240)" stroke="rgb(241,246,240)" stroke-width="1" opacity="1" d="M 885.5 679 L 886 680.5 L 878.5 695 L 878 693.5 L 885.5 679 Z " /><path fill="rgb(241,246,240)" stroke="rgb(241,246,240)" stroke-width="1" opacity="1" d="M 142.5 687 L 144 689.5 L 142 688.5 L 142.5 687 Z " /><path fill="rgb(241,246,240)" stroke="rgb(241,246,240)" stroke-width="1" opacity="1" d="M 144.5 691 L 151 703.5 L 149 702.5 L 144 692.5 L 144.5 691 Z " /><path fill="rgb(241,246,240)" stroke="rgb(241,246,240)" stroke-width="1" opacity="1" d="M 874.5 702 L 874 703.5 L 870.5 710 L 871 708.5 L 874.5 702 Z " /><path fill="rgb(241,246,240)" stroke="rgb(241,246,240)" stroke-width="1" opacity="1" d="M 152.5 707 L 156 712.5 L 154 711.5 L 152.5 707 Z " /><path fill="rgb(241,246,240)" stroke="rgb(241,246,240)" stroke-width="1" opacity="1" d="M 868.5 713 L 868 714.5 L 862.5 724 L 863 722.5 L 868.5 713 Z " /><path fill="rgb(241,246,240)" stroke="rgb(241,246,240)" stroke-width="1" opacity="1" d="M 157.5 716 Q 185.9 765.6 225.5 804 Q 249.5 828 278 847.5 L 276.5 847 L 255.5 832 L 230.5 809 L 229 809 L 227.5 806 L 216 795.5 L 214 792.5 Q 179.8 758.9 157.5 716 Z " /><path fill="rgb(241,246,240)" stroke="rgb(241,246,240)" stroke-width="1" opacity="1" d="M 861.5 725 L 861 726.5 L 857.5 732 L 858 730.5 L 861.5 725 Z " /><path fill="rgb(241,246,240)" stroke="rgb(241,246,240)" stroke-width="1" opacity="1" d="M 681.5 730 L 680.5 732 L 681.5 730 Z " /><path fill="rgb(241,246,240)" stroke="rgb(241,246,240)" stroke-width="1" opacity="1" d="M 856.5 733 L 856 734.5 Q 828.4 778.9 790.5 813 L 787.5 815 Q 767.2 835.2 742.5 851 L 744.5 848 Q 782.2 823.2 812 790.5 Q 836.9 764.4 856.5 733 Z " /><path fill="rgb(241,246,240)" stroke="rgb(241,246,240)" stroke-width="1" opacity="1" d="M 676.5 735 L 675.5 737 L 676.5 735 Z " /><path fill="rgb(241,246,240)" stroke="rgb(241,246,240)" stroke-width="1" opacity="1" d="M 348.5 739 L 352 739.5 L 348.5 740 L 348.5 739 Z " /><path fill="rgb(241,246,240)" stroke="rgb(241,246,240)" stroke-width="1" opacity="1" d="M 279.5 848 L 293 857.5 L 291.5 857 L 281.5 851 L 279.5 848 Z " /><path fill="rgb(241,246,240)" stroke="rgb(241,246,240)" stroke-width="1" opacity="1" d="M 740.5 851 L 738.5 854 L 711.5 870 L 712.5 868 L 719.5 865 L 740.5 851 Z " /><path fill="rgb(241,246,240)" stroke="rgb(241,246,240)" stroke-width="1" opacity="1" d="M 294.5 858 L 301 862.5 L 299.5 862 Q 294.9 860.8 294.5 858 Z " /><path fill="rgb(241,246,240)" stroke="rgb(241,246,240)" stroke-width="1" opacity="1" d="M 302.5 863 L 306 865.5 L 304.5 865 L 302.5 863 Z " /><path fill="rgb(241,246,240)" stroke="rgb(241,246,240)" stroke-width="1" opacity="1" d="M 307.5 866 L 315 870.5 L 313.5 870 Q 307.9 869.2 307.5 866 Z " /><path fill="rgb(241,246,240)" stroke="rgb(241,246,240)" stroke-width="1" opacity="1" d="M 709.5 870 L 708.5 872 L 702.5 875 L 703.5 873 L 709.5 870 Z " /><path fill="rgb(241,246,240)" stroke="rgb(241,246,240)" stroke-width="1" opacity="1" d="M 316.5 871 L 343 884.5 L 341.5 885 L 317.5 873 L 316.5 871 Z " /><path fill="rgb(241,246,240)" stroke="rgb(241,246,240)" stroke-width="1" opacity="1" d="M 695.5 877 L 697 877.5 L 679.5 886 L 679.5 885 L 695.5 877 Z " /><path fill="rgb(241,246,240)" stroke="rgb(241,246,240)" stroke-width="1" opacity="1" d="M 344.5 885 L 350 887.5 L 348.5 888 L 344.5 886 L 344.5 885 Z " /><path fill="rgb(241,246,240)" stroke="rgb(241,246,240)" stroke-width="1" opacity="1" d="M 676.5 886 L 678 886.5 L 672.5 889 L 672.5 888 L 676.5 886 Z " /><path fill="rgb(241,246,240)" stroke="rgb(241,246,240)" stroke-width="1" opacity="1" d="M 351.5 888 L 359 891.5 L 357.5 892 L 351.5 889 L 351.5 888 Z " /><path fill="rgb(241,246,240)" stroke="rgb(241,246,240)" stroke-width="1" opacity="1" d="M 669.5 889 L 671 889.5 L 665.5 892 L 665.5 891 L 669.5 889 Z " /><path fill="rgb(241,246,240)" stroke="rgb(241,246,240)" stroke-width="1" opacity="1" d="M 360.5 892 L 364 893.5 L 362.5 894 L 360.5 892 Z " /><path fill="rgb(241,246,240)" stroke="rgb(241,246,240)" stroke-width="1" opacity="1" d="M 662.5 892 L 664 892.5 L 652.5 897 L 652.5 896 L 662.5 892 Z " /><path fill="rgb(241,246,240)" stroke="rgb(241,246,240)" stroke-width="1" opacity="1" d="M 365.5 894 L 375 897.5 L 373.5 898 L 365.5 895 L 365.5 894 Z " /><path fill="rgb(241,246,240)" stroke="rgb(241,246,240)" stroke-width="1" opacity="1" d="M 649.5 897 L 651 897.5 L 637.5 902 L 637.5 901 L 649.5 897 Z " /><path fill="rgb(241,246,240)" stroke="rgb(241,246,240)" stroke-width="1" opacity="1" d="M 376.5 898 L 384 900.5 L 381.5 901 L 376.5 899 L 376.5 898 Z " /><path fill="rgb(241,246,240)" stroke="rgb(241,246,240)" stroke-width="1" opacity="1" d="M 391.5 903 L 400 905.5 L 397.5 906 L 391.5 904 L 391.5 903 Z " /><path fill="rgb(241,246,240)" stroke="rgb(241,246,240)" stroke-width="1" opacity="1" d="M 624.5 905 L 627 905.5 L 624.5 906 L 624.5 905 Z " /><path fill="rgb(241,246,240)" stroke="rgb(241,246,240)" stroke-width="1" opacity="1" d="M 401.5 906 L 404 906.5 L 401.5 907 L 401.5 906 Z " /><path fill="rgb(241,246,240)" stroke="rgb(241,246,240)" stroke-width="1" opacity="1" d="M 620.5 906 L 623 906.5 L 617.5 908 L 617.5 907 L 620.5 906 Z " /><path fill="rgb(241,246,240)" stroke="rgb(241,246,240)" stroke-width="1" opacity="1" d="M 405.5 907 L 408 907.5 L 405.5 908 L 405.5 907 Z " /><path fill="rgb(241,246,240)" stroke="rgb(241,246,240)" stroke-width="1" opacity="1" d="M 409.5 908 L 415 909.5 L 412.5 910 L 409.5 909 L 409.5 908 Z " /><path fill="rgb(241,246,240)" stroke="rgb(241,246,240)" stroke-width="1" opacity="1" d="M 613.5 908 L 616 908.5 L 613.5 909 L 613.5 908 Z " /><path fill="rgb(241,246,240)" stroke="rgb(241,246,240)" stroke-width="1" opacity="1" d="M 609.5 909 L 612 909.5 L 605.5 911 L 605.5 910 L 609.5 909 Z " /><path fill="rgb(241,246,240)" stroke="rgb(241,246,240)" stroke-width="1" opacity="1" d="M 416.5 910 L 420 910.5 L 416.5 911 L 416.5 910 Z " /><path fill="rgb(241,246,240)" stroke="rgb(241,246,240)" stroke-width="1" opacity="1" d="M 421.5 911 L 424 911.5 L 421.5 912 L 421.5 911 Z " /><path fill="rgb(241,246,240)" stroke="rgb(241,246,240)" stroke-width="1" opacity="1" d="M 600.5 911 L 604 911.5 L 600.5 912 L 600.5 911 Z " /><path fill="rgb(241,246,240)" stroke="rgb(241,246,240)" stroke-width="1" opacity="1" d="M 425.5 912 L 429 912.5 L 425.5 913 L 425.5 912 Z " /><path fill="rgb(241,246,240)" stroke="rgb(241,246,240)" stroke-width="1" opacity="1" d="M 595.5 912 L 599 912.5 L 591.5 914 L 591.5 913 L 595.5 912 Z " /><path fill="rgb(241,246,240)" stroke="rgb(241,246,240)" stroke-width="1" opacity="1" d="M 430.5 913 L 433 913.5 L 430.5 914 L 430.5 913 Z " /><path fill="rgb(241,246,240)" stroke="rgb(241,246,240)" stroke-width="1" opacity="1" d="M 434.5 914 L 439 914.5 L 434.5 915 L 434.5 914 Z " /><path fill="rgb(241,246,240)" stroke="rgb(241,246,240)" stroke-width="1" opacity="1" d="M 585.5 914 L 590 914.5 L 585.5 915 L 585.5 914 Z " /><path fill="rgb(241,246,240)" stroke="rgb(241,246,240)" stroke-width="1" opacity="1" d="M 440.5 915 L 445 915.5 L 440.5 916 L 440.5 915 Z " /><path fill="rgb(241,246,240)" stroke="rgb(241,246,240)" stroke-width="1" opacity="1" d="M 579.5 915 L 584 915.5 L 579.5 916 L 579.5 915 Z " /><path fill="rgb(241,246,240)" stroke="rgb(241,246,240)" stroke-width="1" opacity="1" d="M 446.5 916 L 451 916.5 L 446.5 917 L 446.5 916 Z " /><path fill="rgb(241,246,240)" stroke="rgb(241,246,240)" stroke-width="1" opacity="1" d="M 573.5 916 L 578 916.5 L 573.5 917 L 573.5 916 Z " /><path fill="rgb(241,246,240)" stroke="rgb(241,246,240)" stroke-width="1" opacity="1" d="M 452.5 917 L 459 917.5 L 452.5 918 L 452.5 917 Z " /><path fill="rgb(241,246,240)" stroke="rgb(241,246,240)" stroke-width="1" opacity="1" d="M 566.5 917 L 572 917.5 L 566.5 918 L 566.5 917 Z " /><path fill="rgb(241,246,240)" stroke="rgb(241,246,240)" stroke-width="1" opacity="1" d="M 460.5 918 L 467 918.5 L 460.5 919 L 460.5 918 Z " /><path fill="rgb(241,246,240)" stroke="rgb(241,246,240)" stroke-width="1" opacity="1" d="M 558.5 918 L 564 918.5 L 558.5 919 L 558.5 918 Z " /><path fill="rgb(241,246,240)" stroke="rgb(241,246,240)" stroke-width="1" opacity="1" d="M 469.5 919 L 475 919.5 L 469.5 920 L 469.5 919 Z " /><path fill="rgb(241,246,240)" stroke="rgb(241,246,240)" stroke-width="1" opacity="1" d="M 549.5 919 L 556 919.5 L 549.5 920 L 549.5 919 Z " /><path fill="rgb(241,246,240)" stroke="rgb(241,246,240)" stroke-width="1" opacity="1" d="M 476.5 920 L 490 920.5 L 476.5 921 L 476.5 920 Z " /><path fill="rgb(241,246,240)" stroke="rgb(241,246,240)" stroke-width="1" opacity="1" d="M 534.5 920 L 548 920.5 L 534.5 921 L 534.5 920 Z " /><path fill="rgb(241,246,240)" stroke="rgb(241,246,240)" stroke-width="1" opacity="1" d="M 497.5 921 L 529 921.5 L 497.5 922 L 497.5 921 Z " /><path fill="rgb(255,255,255)" stroke="rgb(255,255,255)" stroke-width="1" opacity="1" d="M 486.5 104 L 537.5 104 L 538.5 105 L 551.5 105 L 552.5 106 L 560.5 106 L 561.5 107 L 568.5 107 L 569.5 108 L 586.5 110 L 631.5 121 L 672.5 136 Q 757.5 173 815 237.5 Q 864.6 291.4 894 365.5 L 905 398.5 L 914 435.5 L 914 440.5 L 917 453.5 L 917 460.5 L 918 461.5 L 918 468.5 L 919 469.5 L 919 479.5 L 920 480.5 L 921 525.5 L 920 526.5 L 920 543.5 L 919 544.5 L 917 571.5 L 910 607.5 L 899 645.5 L 886 678.5 Q 851 756 792.5 810 Q 734.4 865.9 651.5 897 L 616.5 908 L 572.5 917 L 549.5 919 L 548.5 920 L 534.5 920 L 533.5 921 L 490.5 921 L 489.5 920 L 475.5 920 L 474.5 919 L 451.5 917 L 415.5 910 L 375.5 898 L 343.5 885 Q 271 851.5 219 797.5 Q 164 742 132 663.5 L 119 625.5 L 110 587.5 L 110 582.5 L 107 569.5 L 106 553.5 L 105 552.5 L 104 513.5 L 103 511.5 L 104 510.5 L 104 485.5 L 105 484.5 L 106 463.5 L 107 462.5 L 107 455.5 L 113 422.5 Q 123.1 379.1 140 342.5 Q 176.1 265.1 235.5 211 Q 286.7 163.2 356.5 134 L 386.5 123 L 418.5 114 L 449.5 108 L 471.5 106 L 472.5 105 L 485.5 105 L 486.5 104 Z M 508 174 L 494 177 L 481 184 Q 467 194 460 212 L 454 232 L 453 244 L 452 245 L 452 281 L 453 282 L 455 300 L 459 313 L 310 313 L 304 316 L 300 320 L 297 329 L 297 759 L 300 768 Q 304 773 312 775 L 706 775 L 712 773 Q 718 769 720 760 L 720 328 L 717 320 L 709 313 L 479 313 L 474 293 L 473 282 L 472 281 L 472 270 L 471 269 L 471 257 L 472 256 L 473 238 L 477 223 L 485 208 Q 493 197 509 194 Q 531 193 544 202 Q 551 208 556 218 L 560 228 L 562 238 L 561 267 L 554 289 L 547 301 Q 547 307 550 310 L 554 312 L 563 311 Q 570 304 574 293 L 580 273 L 581 261 L 582 260 L 582 238 L 579 222 L 570 202 L 560 189 Q 550 180 535 176 L 524 175 L 523 174 L 508 174 Z " /><path fill="rgb(255,255,255)" stroke="rgb(255,255,255)" stroke-width="1" opacity="1" d="M 317 332 L 464.5 332 L 465 333.5 L 471 347 L 348.5 347 Q 339.4 349.4 335 356.5 L 332 364.5 L 332 722.5 Q 333.9 731.6 340.5 736 L 348.5 740 L 668.5 740 Q 677.5 737.5 682 730.5 L 685 723.5 L 685 363.5 Q 682.5 354.4 675.5 350 L 668.5 347 L 494.5 347 L 493 345.5 L 487 334.5 L 487 332 L 700 332 L 700 755 L 317 755 L 317 332 Z " /><path fill="rgb(255,255,255)" stroke="rgb(255,255,255)" stroke-width="1" opacity="1" d="M 493.5 378 Q 501.6 384.4 513.5 387 L 530.5 387 L 534.5 384 L 536 386.5 L 537 394.5 L 533 406.5 L 525.5 414 Q 518.9 418.9 505.5 417 Q 497.5 414.5 493 408.5 Q 486.2 402.3 488 387.5 L 493.5 378 Z " /><path fill="rgb(255,255,255)" stroke="rgb(255,255,255)" stroke-width="1" opacity="1" d="M 503.5 463 L 520.5 463 L 535.5 467 Q 549.8 472.8 559 483.5 Q 568.7 494.3 573 510.5 L 575 521.5 L 575 544.5 L 574 545.5 L 574 553.5 L 572 563.5 L 569 572.5 L 564 581.5 L 551 597.5 L 549 603.5 L 554.5 607 L 577.5 613 L 594.5 621 Q 605.1 626.4 612 635.5 L 618 650.5 L 618 685 L 406.5 685 L 406 684.5 L 406 653.5 Q 408.7 636.7 419.5 628 L 444.5 614 L 459.5 609 L 466.5 608 L 476 604 L 473 597.5 Q 461.7 587.8 455 573.5 L 450 551.5 L 449 523.5 L 452 507.5 L 458 493.5 Q 464.5 482.5 474.5 475 Q 486.1 466.1 503.5 463 Z M 507 465 L 493 468 L 476 477 Q 463 486 457 501 L 453 513 L 452 528 L 451 529 L 452 550 L 457 573 L 464 585 Q 473 592 479 604 L 473 608 L 454 613 L 441 618 L 422 629 L 412 641 L 408 656 L 408 682 L 409 682 L 616 682 L 616 652 L 611 638 Q 604 628 594 623 L 582 617 L 554 609 L 546 605 L 549 597 L 562 581 L 567 572 L 571 558 L 572 543 L 573 542 L 573 523 L 570 508 Q 566 495 558 486 Q 549 475 535 469 L 518 465 L 507 465 Z " /><path fill="rgb(255,255,255)" stroke="rgb(255,255,255)" stroke-width="1" opacity="1" d="M 507.5 485 L 517.5 485 L 526.5 487 Q 537.8 492.2 545 501.5 Q 555 515.5 553 541.5 L 549 562.5 Q 542.5 575 533 584.5 L 527 597.5 L 526 606.5 L 528 613.5 L 533.5 620 L 545.5 627 L 572.5 635 Q 585.1 639.9 594 648.5 Q 597.3 653.4 596 662 L 428.5 662 Q 427.3 661.8 428 655.5 L 432.5 646 L 451.5 635 L 479.5 627 Q 489.2 623.2 495 615.5 Q 500 610 498 597.5 L 491 584.5 L 476 566.5 L 472 548.5 L 471 527.5 L 475 509.5 Q 478.9 499.9 486.5 494 L 498.5 487 L 507.5 485 Z " /><path fill="rgb(3,62,167)" stroke="rgb(3,62,167)" stroke-width="1" opacity="1" d="M 310.5 313 L 458.5 313 L 460 314.5 L 465 332 L 317 332 L 317 755 L 700 755 L 700 332 L 486.5 332 L 485 330.5 L 479 313 L 706.5 313 Q 713.3 315.3 717 320.5 L 719 325.5 L 719 761.5 Q 717.2 768.7 711.5 772 L 707.5 774 L 310.5 774 Q 303.3 772.2 300 766.5 L 298 761.5 L 298 325.5 L 304.5 316 L 310.5 313 Z " /><path fill="rgb(3,62,167)" stroke="rgb(3,62,167)" stroke-width="1" opacity="1" d="M 509.5 349 L 522.5 350 L 528.5 352 L 544 362.5 Q 550.6 368.9 554 378.5 L 556 387.5 L 556 399.5 L 553 410.5 Q 548.3 420.3 540.5 427 Q 533.7 433.2 523.5 436 L 507.5 437 L 497.5 435 Q 486.9 431.1 480 423.5 Q 468.3 412.7 468 390.5 L 471 376.5 Q 474.1 368.1 480.5 363 L 483 364.5 L 491.5 375 Q 494.1 374.2 493 377.5 Q 486.2 383.2 487 396.5 Q 488.8 406.8 495.5 412 L 507.5 418 L 516.5 418 Q 527.6 415.6 533 407.5 Q 538.7 401.2 537 387.5 L 535 381.5 L 537 376.5 L 534 370 L 530.5 368 Q 519 369.5 512.5 366 L 500 356.5 L 497 352.5 L 498.5 351 L 509.5 349 Z " /><path fill="rgb(3,62,167)" stroke="rgb(3,62,167)" stroke-width="1" opacity="1" d="M 502.5 466 L 521.5 466 L 535.5 470 Q 549.2 475.8 558 486.5 L 568 503.5 L 571 513.5 Q 569.8 518.3 572 519.5 L 572 546.5 L 571 547.5 L 570 559.5 L 566 572.5 Q 560.2 584.2 551 592.5 L 545 603.5 L 554.5 610 L 561.5 611 L 582.5 618 L 600.5 628 L 608 634.5 L 615 648.5 L 615 682 L 409.5 682 L 409 681.5 L 409 651.5 Q 412.3 636.8 422.5 629 L 444.5 617 L 471.5 609 L 479 604.5 L 478 599.5 L 464 583.5 L 457 571.5 L 454 559.5 L 453 544.5 L 452 543.5 L 452 521.5 L 455 507.5 L 459 497.5 Q 465.6 485.1 476.5 477 Q 487 469 502.5 466 Z M 512 484 L 497 487 L 486 494 L 478 503 L 474 511 L 471 523 L 471 545 L 475 566 L 495 592 L 498 601 L 498 607 L 495 615 L 483 625 L 453 634 L 436 643 Q 426 647 428 663 L 596 663 L 597 662 L 596 652 L 594 648 L 579 637 L 564 631 L 545 626 L 535 620 Q 529 616 527 609 L 528 596 L 533 586 L 549 565 L 553 548 L 553 536 L 554 535 L 552 516 L 545 501 Q 538 492 528 487 L 512 484 Z " /><path fill="rgb(205,218,230)" stroke="rgb(205,218,230)" stroke-width="1" opacity="1" d="M 489.5 97 L 535.5 97 L 536.5 98 L 550.5 98 L 551.5 99 L 559.5 99 L 560.5 100 L 567.5 100 L 568.5 101 L 586.5 103 L 628.5 113 L 668.5 127 Q 755.8 163.2 815 227.5 Q 868.8 283.7 900 362.5 L 911 394.5 L 921 435.5 L 921 440.5 L 924 453.5 L 925 469.5 L 926 470.5 L 928 518.5 L 927 519.5 L 926 554.5 L 925 555.5 L 924 570.5 L 919 598.5 L 909 636.5 L 892 681.5 Q 857.9 756.4 802.5 810 Q 745.9 866.4 665.5 899 L 627.5 912 L 590.5 921 L 585.5 921 L 572.5 924 L 565.5 924 L 564.5 925 L 557.5 925 L 556.5 926 L 532.5 927 L 531.5 928 L 493.5 928 L 492.5 927 L 479.5 927 L 478.5 926 L 468.5 926 L 467.5 925 L 445.5 923 L 411.5 916 L 377.5 906 L 329.5 886 Q 256 849.5 204 791.5 Q 150.9 734.1 121 653.5 L 107 606.5 L 100 568.5 L 100 560.5 L 98 551.5 L 98 538.5 L 97 537.5 L 97 487.5 L 98 486.5 L 98 473.5 L 99 472.5 L 101 449.5 L 107 418.5 Q 117 377 133 341.5 Q 166.5 268.5 220.5 216 Q 270.8 165.8 339.5 134 Q 375.9 117.4 418.5 107 L 456.5 100 L 464.5 100 L 473.5 98 L 488.5 98 L 489.5 97 Z M 490 103 L 489 104 L 475 104 L 466 106 L 451 107 L 420 113 L 373 127 L 348 137 Q 285 165 238 208 Q 205 238 179 274 L 160 303 L 139 343 L 124 381 L 112 424 L 106 457 L 106 465 L 104 474 L 104 488 L 103 489 L 103 537 L 104 538 L 104 551 L 105 552 L 107 575 L 115 614 L 131 664 L 149 703 L 167 734 Q 187 766 214 793 L 216 796 L 228 806 L 229 809 L 231 809 L 256 832 L 291 857 L 318 873 L 358 892 L 398 906 L 435 915 L 452 917 L 453 918 L 460 918 L 461 919 L 476 920 L 477 921 L 495 921 L 498 922 L 548 921 L 549 920 L 556 920 L 557 919 L 564 919 L 565 918 L 572 918 L 585 915 L 590 915 L 627 906 L 660 895 Q 699 879 733 858 L 768 833 L 788 815 L 791 813 Q 850 759 886 681 L 903 636 L 912 603 L 918 570 L 919 555 L 920 554 L 921 519 L 922 518 L 920 472 L 919 471 L 919 463 L 918 462 L 918 455 L 915 442 L 915 437 L 905 396 L 894 364 L 876 324 L 855 288 Q 838 261 817 239 Q 757 171 668 133 L 628 119 L 586 109 L 574 108 L 568 106 L 551 105 L 550 104 L 536 104 L 535 103 L 490 103 Z " /><path fill="rgb(205,218,230)" stroke="rgb(205,218,230)" stroke-width="1" opacity="1" d="M 509.5 174 L 520 174.5 L 509.5 175 L 509.5 174 Z " /><path fill="rgb(205,218,230)" stroke="rgb(205,218,230)" stroke-width="1" opacity="1" d="M 501.5 175 L 504 175.5 L 501.5 176 L 501.5 175 Z " /><path fill="rgb(205,218,230)" stroke="rgb(205,218,230)" stroke-width="1" opacity="1" d="M 526.5 175 L 529 175.5 L 526.5 176 L 526.5 175 Z " /><path fill="rgb(205,218,230)" stroke="rgb(205,218,230)" stroke-width="1" opacity="1" d="M 478.5 186 L 477.5 188 L 478.5 186 Z " /><path fill="rgb(205,218,230)" stroke="rgb(205,218,230)" stroke-width="1" opacity="1" d="M 556.5 187 L 557.5 189 L 556.5 187 Z " /><path fill="rgb(205,218,230)" stroke="rgb(205,218,230)" stroke-width="1" opacity="1" d="M 473.5 191 L 471.5 194 L 473.5 191 Z " /><path fill="rgb(205,218,230)" stroke="rgb(205,218,230)" stroke-width="1" opacity="1" d="M 511.5 193 L 518 193.5 L 511.5 194 L 511.5 193 Z " /><path fill="rgb(205,218,230)" stroke="rgb(205,218,230)" stroke-width="1" opacity="1" d="M 563.5 194 L 564.5 196 L 563.5 194 Z " /><path fill="rgb(205,218,230)" stroke="rgb(205,218,230)" stroke-width="1" opacity="1" d="M 567.5 199 L 568.5 201 L 567.5 199 Z " /><path fill="rgb(205,218,230)" stroke="rgb(205,218,230)" stroke-width="1" opacity="1" d="M 490.5 201 L 485.5 207 L 490.5 201 Z " /><path fill="rgb(205,218,230)" stroke="rgb(205,218,230)" stroke-width="1" opacity="1" d="M 544.5 202 L 545.5 204 L 544.5 202 Z " /><path fill="rgb(205,218,230)" stroke="rgb(205,218,230)" stroke-width="1" opacity="1" d="M 549.5 207 L 550.5 209 L 549.5 207 Z " /><path fill="rgb(205,218,230)" stroke="rgb(205,218,230)" stroke-width="1" opacity="1" d="M 453.5 237 L 454 239.5 L 453 239.5 L 453.5 237 Z " /><path fill="rgb(205,218,230)" stroke="rgb(205,218,230)" stroke-width="1" opacity="1" d="M 581.5 239 L 582 245.5 L 581 245.5 L 581.5 239 Z " /><path fill="rgb(205,218,230)" stroke="rgb(205,218,230)" stroke-width="1" opacity="1" d="M 562.5 243 L 563 253.5 L 562 253.5 L 562.5 243 Z " /><path fill="rgb(205,218,230)" stroke="rgb(205,218,230)" stroke-width="1" opacity="1" d="M 452.5 245 L 453 249.5 L 452 249.5 L 452.5 245 Z " /><path fill="rgb(205,218,230)" stroke="rgb(205,218,230)" stroke-width="1" opacity="1" d="M 471.5 248 L 472 252.5 L 471 252.5 L 471.5 248 Z " /><path fill="rgb(205,218,230)" stroke="rgb(205,218,230)" stroke-width="1" opacity="1" d="M 581.5 248 L 582 255.5 L 581 255.5 L 581.5 248 Z " /><path fill="rgb(205,218,230)" stroke="rgb(205,218,230)" stroke-width="1" opacity="1" d="M 471.5 272 L 472 275.5 L 471 275.5 L 471.5 272 Z " /><path fill="rgb(205,218,230)" stroke="rgb(205,218,230)" stroke-width="1" opacity="1" d="M 452.5 274 L 453 277.5 L 452 277.5 L 452.5 274 Z " /><path fill="rgb(205,218,230)" stroke="rgb(205,218,230)" stroke-width="1" opacity="1" d="M 453.5 284 L 454 286.5 L 453 286.5 L 453.5 284 Z " /><path fill="rgb(205,218,230)" stroke="rgb(205,218,230)" stroke-width="1" opacity="1" d="M 454.5 290 L 455 292.5 L 454 292.5 L 454.5 290 Z " /><path fill="rgb(205,218,230)" stroke="rgb(205,218,230)" stroke-width="1" opacity="1" d="M 455.5 296 L 456 298.5 L 455 298.5 L 455.5 296 Z " /><path fill="rgb(205,218,230)" stroke="rgb(205,218,230)" stroke-width="1" opacity="1" d="M 714.5 317 L 715.5 319 L 714.5 317 Z " /><path fill="rgb(205,218,230)" stroke="rgb(205,218,230)" stroke-width="1" opacity="1" d="M 719.5 328 L 720 758.5 L 719 758.5 L 719.5 328 Z " /><path fill="rgb(205,218,230)" stroke="rgb(205,218,230)" stroke-width="1" opacity="1" d="M 471.5 346 L 481 362.5 Q 468.1 372.6 468 395.5 L 471 409.5 L 481.5 425 Q 487.9 431.6 497.5 435 L 507.5 437 L 516.5 437 Q 518 434.5 523.5 436 L 533.5 432 L 545 422.5 L 553 410.5 L 555 404.5 L 556 387.5 L 553 375.5 L 542.5 361 L 528.5 352 L 522.5 350 L 509.5 349 L 497.5 352 L 493 346.5 L 494.5 347 L 664.5 347 Q 665.8 349.3 670.5 348 L 680 354.5 L 684 362.5 L 684 725.5 L 677.5 735 L 666.5 740 L 352.5 740 Q 351.3 737.8 346.5 739 L 339 735 L 339 733 Q 336.3 734.1 337 731.5 L 333 724.5 L 333 362.5 L 339.5 352 L 350.5 347 L 470.5 347 L 471.5 346 Z M 509 462 Q 507 465 501 463 L 488 467 L 473 476 Q 463 484 457 495 L 451 510 L 449 520 L 449 547 L 453 570 L 460 584 L 476 603 L 471 606 L 446 613 L 422 626 Q 410 634 406 651 L 406 685 L 407 685 L 619 685 L 619 656 Q 617 654 618 649 Q 616 639 611 634 L 601 624 L 582 614 L 549 604 L 551 599 L 566 580 L 570 572 L 574 557 L 575 538 L 576 537 L 575 518 L 573 509 L 562 487 Q 552 474 537 467 L 524 463 L 509 462 Z " /><path fill="rgb(205,218,230)" stroke="rgb(205,218,230)" stroke-width="1" opacity="1" d="M 496.5 378 L 497.5 380 L 496.5 378 Z " /><path fill="rgb(205,218,230)" stroke="rgb(205,218,230)" stroke-width="1" opacity="1" d="M 534.5 383 L 535.5 385 L 534.5 383 Z " /><path fill="rgb(205,218,230)" stroke="rgb(205,218,230)" stroke-width="1" opacity="1" d="M 536.5 387 L 537 390.5 L 536 390.5 L 536.5 387 Z " /><path fill="rgb(205,218,230)" stroke="rgb(205,218,230)" stroke-width="1" opacity="1" d="M 487.5 389 L 488 396.5 L 487 396.5 L 487.5 389 Z " /><path fill="rgb(205,218,230)" stroke="rgb(205,218,230)" stroke-width="1" opacity="1" d="M 536.5 396 L 537 398.5 L 536 398.5 L 536.5 396 Z " /><path fill="rgb(205,218,230)" stroke="rgb(205,218,230)" stroke-width="1" opacity="1" d="M 490.5 405 L 491.5 407 L 490.5 405 Z " /><path fill="rgb(205,218,230)" stroke="rgb(205,218,230)" stroke-width="1" opacity="1" d="M 532.5 407 L 530.5 410 L 532.5 407 Z " /><path fill="rgb(205,218,230)" stroke="rgb(205,218,230)" stroke-width="1" opacity="1" d="M 493.5 409 L 495.5 412 L 493.5 409 Z " /><path fill="rgb(205,218,230)" stroke="rgb(205,218,230)" stroke-width="1" opacity="1" d="M 528.5 411 L 526.5 414 L 528.5 411 Z " /><path fill="rgb(205,218,230)" stroke="rgb(205,218,230)" stroke-width="1" opacity="1" d="M 507.5 417 L 511 417.5 L 507.5 418 L 507.5 417 Z " /><path fill="rgb(205,218,230)" stroke="rgb(205,218,230)" stroke-width="1" opacity="1" d="M 514.5 417 L 517 417.5 L 514.5 418 L 514.5 417 Z " /><path fill="rgb(205,218,230)" stroke="rgb(205,218,230)" stroke-width="1" opacity="1" d="M 508.5 465 L 517 465.5 L 508.5 466 L 508.5 465 Z " /><path fill="rgb(205,218,230)" stroke="rgb(205,218,230)" stroke-width="1" opacity="1" d="M 478.5 475 L 477.5 477 L 478.5 475 Z " /><path fill="rgb(205,218,230)" stroke="rgb(205,218,230)" stroke-width="1" opacity="1" d="M 548.5 477 L 550.5 480 L 548.5 477 Z " /><path fill="rgb(205,218,230)" stroke="rgb(205,218,230)" stroke-width="1" opacity="1" d="M 474.5 478 L 465.5 488 L 474.5 478 Z " /><path fill="rgb(205,218,230)" stroke="rgb(205,218,230)" stroke-width="1" opacity="1" d="M 503.5 485 L 506 485.5 L 503.5 486 L 503.5 485 Z " /><path fill="rgb(205,218,230)" stroke="rgb(205,218,230)" stroke-width="1" opacity="1" d="M 558.5 487 L 559.5 489 L 558.5 487 Z " /><path fill="rgb(205,218,230)" stroke="rgb(205,218,230)" stroke-width="1" opacity="1" d="M 492.5 489 L 491.5 491 L 492.5 489 Z " /><path fill="rgb(205,218,230)" stroke="rgb(205,218,230)" stroke-width="1" opacity="1" d="M 463.5 490 L 462.5 492 L 463.5 490 Z " /><path fill="rgb(205,218,230)" stroke="rgb(205,218,230)" stroke-width="1" opacity="1" d="M 533.5 490 L 534.5 492 L 533.5 490 Z " /><path fill="rgb(205,218,230)" stroke="rgb(205,218,230)" stroke-width="1" opacity="1" d="M 489.5 491 L 488.5 493 L 489.5 491 Z " /><path fill="rgb(205,218,230)" stroke="rgb(205,218,230)" stroke-width="1" opacity="1" d="M 561.5 491 L 562.5 493 L 561.5 491 Z " /><path fill="rgb(205,218,230)" stroke="rgb(205,218,230)" stroke-width="1" opacity="1" d="M 537.5 493 L 544.5 501 L 537.5 493 Z " /><path fill="rgb(205,218,230)" stroke="rgb(205,218,230)" stroke-width="1" opacity="1" d="M 485.5 494 L 481.5 499 L 485.5 494 Z " /><path fill="rgb(205,218,230)" stroke="rgb(205,218,230)" stroke-width="1" opacity="1" d="M 479.5 501 L 478.5 503 L 479.5 501 Z " /><path fill="rgb(205,218,230)" stroke="rgb(205,218,230)" stroke-width="1" opacity="1" d="M 545.5 502 L 546.5 504 L 545.5 502 Z " /><path fill="rgb(205,218,230)" stroke="rgb(205,218,230)" stroke-width="1" opacity="1" d="M 571.5 516 L 572 518.5 L 571 518.5 L 571.5 516 Z " /><path fill="rgb(205,218,230)" stroke="rgb(205,218,230)" stroke-width="1" opacity="1" d="M 452.5 518 L 453 520.5 L 452 520.5 L 452.5 518 Z " /><path fill="rgb(205,218,230)" stroke="rgb(205,218,230)" stroke-width="1" opacity="1" d="M 552.5 519 L 553 522.5 L 552 522.5 L 552.5 519 Z " /><path fill="rgb(205,218,230)" stroke="rgb(205,218,230)" stroke-width="1" opacity="1" d="M 471.5 522 L 472 524.5 L 471 524.5 L 471.5 522 Z " /><path fill="rgb(205,218,230)" stroke="rgb(205,218,230)" stroke-width="1" opacity="1" d="M 572.5 524 L 573 540.5 L 572 540.5 L 572.5 524 Z " /><path fill="rgb(205,218,230)" stroke="rgb(205,218,230)" stroke-width="1" opacity="1" d="M 553.5 529 L 554 534.5 L 553 534.5 L 553.5 529 Z " /><path fill="rgb(205,218,230)" stroke="rgb(205,218,230)" stroke-width="1" opacity="1" d="M 451.5 530 L 452 533.5 L 451 533.5 L 451.5 530 Z " /><path fill="rgb(205,218,230)" stroke="rgb(205,218,230)" stroke-width="1" opacity="1" d="M 471.5 540 L 472 544.5 L 471 544.5 L 471.5 540 Z " /><path fill="rgb(205,218,230)" stroke="rgb(205,218,230)" stroke-width="1" opacity="1" d="M 552.5 543 L 553 547.5 L 552 547.5 L 552.5 543 Z " /><path fill="rgb(205,218,230)" stroke="rgb(205,218,230)" stroke-width="1" opacity="1" d="M 452.5 544 L 453 548.5 L 452 548.5 L 452.5 544 Z " /><path fill="rgb(205,218,230)" stroke="rgb(205,218,230)" stroke-width="1" opacity="1" d="M 571.5 547 L 572 550.5 L 571 550.5 L 571.5 547 Z " /><path fill="rgb(205,218,230)" stroke="rgb(205,218,230)" stroke-width="1" opacity="1" d="M 472.5 550 L 473 553.5 L 472 553.5 L 472.5 550 Z " /><path fill="rgb(205,218,230)" stroke="rgb(205,218,230)" stroke-width="1" opacity="1" d="M 453.5 553 L 454 556.5 L 453 556.5 L 453.5 553 Z " /><path fill="rgb(205,218,230)" stroke="rgb(205,218,230)" stroke-width="1" opacity="1" d="M 570.5 554 L 571 556.5 L 570 556.5 L 570.5 554 Z " /><path fill="rgb(205,218,230)" stroke="rgb(205,218,230)" stroke-width="1" opacity="1" d="M 544.5 570 L 543.5 572 L 544.5 570 Z " /><path fill="rgb(205,218,230)" stroke="rgb(205,218,230)" stroke-width="1" opacity="1" d="M 481.5 574 L 484.5 578 L 481.5 574 Z " /><path fill="rgb(205,218,230)" stroke="rgb(205,218,230)" stroke-width="1" opacity="1" d="M 541.5 574 L 540.5 576 L 541.5 574 Z " /><path fill="rgb(205,218,230)" stroke="rgb(205,218,230)" stroke-width="1" opacity="1" d="M 537.5 579 L 536.5 581 L 537.5 579 Z " /><path fill="rgb(205,218,230)" stroke="rgb(205,218,230)" stroke-width="1" opacity="1" d="M 462.5 581 L 463.5 583 L 462.5 581 Z " /><path fill="rgb(205,218,230)" stroke="rgb(205,218,230)" stroke-width="1" opacity="1" d="M 560.5 581 L 559.5 583 L 560.5 581 Z " /><path fill="rgb(205,218,230)" stroke="rgb(205,218,230)" stroke-width="1" opacity="1" d="M 488.5 582 L 489.5 584 L 488.5 582 Z " /><path fill="rgb(205,218,230)" stroke="rgb(205,218,230)" stroke-width="1" opacity="1" d="M 466.5 586 L 469.5 590 L 466.5 586 Z " /><path fill="rgb(205,218,230)" stroke="rgb(205,218,230)" stroke-width="1" opacity="1" d="M 491.5 586 L 492.5 588 L 491.5 586 Z " /><path fill="rgb(205,218,230)" stroke="rgb(205,218,230)" stroke-width="1" opacity="1" d="M 556.5 586 L 554.5 589 L 556.5 586 Z " /><path fill="rgb(205,218,230)" stroke="rgb(205,218,230)" stroke-width="1" opacity="1" d="M 552.5 591 L 551.5 593 L 552.5 591 Z " /><path fill="rgb(205,218,230)" stroke="rgb(205,218,230)" stroke-width="1" opacity="1" d="M 472.5 593 L 474.5 596 L 472.5 593 Z " /><path fill="rgb(205,218,230)" stroke="rgb(205,218,230)" stroke-width="1" opacity="1" d="M 497.5 597 L 498 599.5 L 497 599.5 L 497.5 597 Z " /><path fill="rgb(205,218,230)" stroke="rgb(205,218,230)" stroke-width="1" opacity="1" d="M 476.5 598 L 477.5 600 L 476.5 598 Z " /><path fill="rgb(205,218,230)" stroke="rgb(205,218,230)" stroke-width="1" opacity="1" d="M 526.5 602 L 527 605.5 L 526 605.5 L 526.5 602 Z " /><path fill="rgb(205,218,230)" stroke="rgb(205,218,230)" stroke-width="1" opacity="1" d="M 478.5 604 L 477.5 606 L 478.5 604 Z " /><path fill="rgb(205,218,230)" stroke="rgb(205,218,230)" stroke-width="1" opacity="1" d="M 494.5 615 L 489.5 621 L 494.5 615 Z " /><path fill="rgb(205,218,230)" stroke="rgb(205,218,230)" stroke-width="1" opacity="1" d="M 535.5 620 L 536.5 622 L 535.5 620 Z " /><path fill="rgb(205,218,230)" stroke="rgb(205,218,230)" stroke-width="1" opacity="1" d="M 538.5 622 L 539.5 624 L 538.5 622 Z " /><path fill="rgb(205,218,230)" stroke="rgb(205,218,230)" stroke-width="1" opacity="1" d="M 591.5 622 L 592.5 624 L 591.5 622 Z " /><path fill="rgb(205,218,230)" stroke="rgb(205,218,230)" stroke-width="1" opacity="1" d="M 484.5 623 L 483.5 625 L 484.5 623 Z " /><path fill="rgb(205,218,230)" stroke="rgb(205,218,230)" stroke-width="1" opacity="1" d="M 429.5 624 L 428.5 626 L 429.5 624 Z " /><path fill="rgb(205,218,230)" stroke="rgb(205,218,230)" stroke-width="1" opacity="1" d="M 596.5 625 L 597.5 627 L 596.5 625 Z " /><path fill="rgb(205,218,230)" stroke="rgb(205,218,230)" stroke-width="1" opacity="1" d="M 424.5 627 L 423.5 629 L 424.5 627 Z " /><path fill="rgb(205,218,230)" stroke="rgb(205,218,230)" stroke-width="1" opacity="1" d="M 602.5 629 L 603.5 631 L 602.5 629 Z " /><path fill="rgb(205,218,230)" stroke="rgb(205,218,230)" stroke-width="1" opacity="1" d="M 420.5 630 L 417.5 634 L 420.5 630 Z " /><path fill="rgb(205,218,230)" stroke="rgb(205,218,230)" stroke-width="1" opacity="1" d="M 608.5 635 L 609.5 637 L 608.5 635 Z " /><path fill="rgb(205,218,230)" stroke="rgb(205,218,230)" stroke-width="1" opacity="1" d="M 415.5 636 L 414.5 638 L 415.5 636 Z " /><path fill="rgb(205,218,230)" stroke="rgb(205,218,230)" stroke-width="1" opacity="1" d="M 610.5 638 L 611.5 640 L 610.5 638 Z " /><path fill="rgb(205,218,230)" stroke="rgb(205,218,230)" stroke-width="1" opacity="1" d="M 591.5 645 L 593.5 648 L 591.5 645 Z " /><path fill="rgb(205,218,230)" stroke="rgb(205,218,230)" stroke-width="1" opacity="1" d="M 615.5 652 L 616 681.5 L 615 681.5 L 615.5 652 Z " /><path fill="rgb(205,218,230)" stroke="rgb(205,218,230)" stroke-width="1" opacity="1" d="M 596.5 657 L 597 661.5 L 595.5 663 L 428.5 663 L 428.5 662 L 595.5 662 L 596.5 657 Z " /><path fill="rgb(205,218,230)" stroke="rgb(205,218,230)" stroke-width="1" opacity="1" d="M 301.5 768 L 303.5 771 L 301.5 768 Z " /><path fill="rgb(205,218,230)" stroke="rgb(205,218,230)" stroke-width="1" opacity="1" d="M 715.5 768 L 712.5 772 L 715.5 768 Z " /><path fill="rgb(205,218,230)" stroke="rgb(205,218,230)" stroke-width="1" opacity="1" d="M 312.5 774 L 705 774.5 L 312.5 775 L 312.5 774 Z " /><path fill="rgb(175,215,124)" stroke="rgb(175,215,124)" stroke-width="1" opacity="0.25098039215686274" d="M 494.5 77 L 531 77.5 L 494.5 78 L 494.5 77 Z " /><path fill="rgb(175,215,124)" stroke="rgb(175,215,124)" stroke-width="1" opacity="0.25098039215686274" d="M 480.5 78 L 491 78.5 L 480.5 79 L 480.5 78 Z " /><path fill="rgb(175,215,124)" stroke="rgb(175,215,124)" stroke-width="1" opacity="0.25098039215686274" d="M 534.5 78 L 544 78.5 L 534.5 79 L 534.5 78 Z " /><path fill="rgb(175,215,124)" stroke="rgb(175,215,124)" stroke-width="1" opacity="0.25098039215686274" d="M 469.5 79 L 477 79.5 L 469.5 80 L 469.5 79 Z " /><path fill="rgb(175,215,124)" stroke="rgb(175,215,124)" stroke-width="1" opacity="0.25098039215686274" d="M 548.5 79 L 556 79.5 L 548.5 80 L 548.5 79 Z " /><path fill="rgb(175,215,124)" stroke="rgb(175,215,124)" stroke-width="1" opacity="0.25098039215686274" d="M 460.5 80 L 466 80.5 L 460.5 81 L 460.5 80 Z " /><path fill="rgb(175,215,124)" stroke="rgb(175,215,124)" stroke-width="1" opacity="0.25098039215686274" d="M 558.5 80 L 564 80.5 L 558.5 81 L 558.5 80 Z " /><path fill="rgb(175,215,124)" stroke="rgb(175,215,124)" stroke-width="1" opacity="0.25098039215686274" d="M 451.5 81 L 458 81.5 L 451.5 82 L 451.5 81 Z " /><path fill="rgb(175,215,124)" stroke="rgb(175,215,124)" stroke-width="1" opacity="0.25098039215686274" d="M 567.5 81 L 573 81.5 L 567.5 82 L 567.5 81 Z " /><path fill="rgb(175,215,124)" stroke="rgb(175,215,124)" stroke-width="1" opacity="0.25098039215686274" d="M 445.5 82 L 449 82.5 L 445.5 83 L 445.5 82 Z " /><path fill="rgb(175,215,124)" stroke="rgb(175,215,124)" stroke-width="1" opacity="0.25098039215686274" d="M 575.5 82 L 579 82.5 L 575.5 83 L 575.5 82 Z " /><path fill="rgb(175,215,124)" stroke="rgb(175,215,124)" stroke-width="1" opacity="0.25098039215686274" d="M 439.5 83 L 443 83.5 L 439.5 84 L 439.5 83 Z " /><path fill="rgb(175,215,124)" stroke="rgb(175,215,124)" stroke-width="1" opacity="0.25098039215686274" d="M 581.5 83 L 585 83.5 L 581.5 84 L 581.5 83 Z " /><path fill="rgb(175,215,124)" stroke="rgb(175,215,124)" stroke-width="1" opacity="0.25098039215686274" d="M 434.5 84 L 438 84.5 L 434.5 85 L 434.5 84 Z " /><path fill="rgb(175,215,124)" stroke="rgb(175,215,124)" stroke-width="1" opacity="0.25098039215686274" d="M 587.5 84 L 591 84.5 L 587.5 85 L 587.5 84 Z " /><path fill="rgb(175,215,124)" stroke="rgb(175,215,124)" stroke-width="1" opacity="0.25098039215686274" d="M 429.5 85 L 432 85.5 L 429.5 86 L 429.5 85 Z " /><path fill="rgb(175,215,124)" stroke="rgb(175,215,124)" stroke-width="1" opacity="0.25098039215686274" d="M 592.5 85 L 596 85.5 L 592.5 86 L 592.5 85 Z " /><path fill="rgb(175,215,124)" stroke="rgb(175,215,124)" stroke-width="1" opacity="0.25098039215686274" d="M 424.5 86 L 427 86.5 L 424.5 87 L 424.5 86 Z " /><path fill="rgb(175,215,124)" stroke="rgb(175,215,124)" stroke-width="1" opacity="0.25098039215686274" d="M 597.5 86 L 600 86.5 L 597.5 87 L 597.5 86 Z " /><path fill="rgb(175,215,124)" stroke="rgb(175,215,124)" stroke-width="1" opacity="0.25098039215686274" d="M 602.5 87 L 605 87.5 L 602.5 88 L 602.5 87 Z " /><path fill="rgb(175,215,124)" stroke="rgb(175,215,124)" stroke-width="1" opacity="0.25098039215686274" d="M 415.5 88 L 418 88.5 L 415.5 89 L 415.5 88 Z " /><path fill="rgb(175,215,124)" stroke="rgb(175,215,124)" stroke-width="1" opacity="0.25098039215686274" d="M 290.5 138 L 289.5 140 L 290.5 138 Z " /><path fill="rgb(175,215,124)" stroke="rgb(175,215,124)" stroke-width="1" opacity="0.25098039215686274" d="M 735.5 139 L 736.5 141 L 735.5 139 Z " /><path fill="rgb(175,215,124)" stroke="rgb(175,215,124)" stroke-width="1" opacity="0.25098039215686274" d="M 282.5 143 L 281.5 145 L 282.5 143 Z " /><path fill="rgb(175,215,124)" stroke="rgb(175,215,124)" stroke-width="1" opacity="0.25098039215686274" d="M 743.5 144 L 744.5 146 L 743.5 144 Z " /><path fill="rgb(175,215,124)" stroke="rgb(175,215,124)" stroke-width="1" opacity="0.25098039215686274" d="M 751.5 149 L 752.5 151 L 751.5 149 Z " /><path fill="rgb(175,215,124)" stroke="rgb(175,215,124)" stroke-width="1" opacity="0.25098039215686274" d="M 271.5 150 L 270.5 152 L 271.5 150 Z " /><path fill="rgb(175,215,124)" stroke="rgb(175,215,124)" stroke-width="1" opacity="0.25098039215686274" d="M 268.5 152 L 267.5 154 L 268.5 152 Z " /><path fill="rgb(175,215,124)" stroke="rgb(175,215,124)" stroke-width="1" opacity="0.25098039215686274" d="M 265.5 154 L 264.5 156 L 265.5 154 Z " /><path fill="rgb(175,215,124)" stroke="rgb(175,215,124)" stroke-width="1" opacity="0.25098039215686274" d="M 761.5 156 L 762.5 158 L 761.5 156 Z " /><path fill="rgb(175,215,124)" stroke="rgb(175,215,124)" stroke-width="1" opacity="0.25098039215686274" d="M 764.5 158 L 765.5 160 L 764.5 158 Z " /><path fill="rgb(175,215,124)" stroke="rgb(175,215,124)" stroke-width="1" opacity="0.25098039215686274" d="M 258.5 159 L 257.5 161 L 258.5 159 Z " /><path fill="rgb(175,215,124)" stroke="rgb(175,215,124)" stroke-width="1" opacity="0.25098039215686274" d="M 255.5 161 L 254.5 163 L 255.5 161 Z " /><path fill="rgb(175,215,124)" stroke="rgb(175,215,124)" stroke-width="1" opacity="0.25098039215686274" d="M 772.5 164 L 773.5 166 L 772.5 164 Z " /><path fill="rgb(175,215,124)" stroke="rgb(175,215,124)" stroke-width="1" opacity="0.25098039215686274" d="M 250.5 165 L 249.5 167 L 250.5 165 Z " /><path fill="rgb(175,215,124)" stroke="rgb(175,215,124)" stroke-width="1" opacity="0.25098039215686274" d="M 776.5 167 L 777.5 169 L 776.5 167 Z " /><path fill="rgb(175,215,124)" stroke="rgb(175,215,124)" stroke-width="1" opacity="0.25098039215686274" d="M 246.5 168 L 245.5 170 L 246.5 168 Z " /><path fill="rgb(175,215,124)" stroke="rgb(175,215,124)" stroke-width="1" opacity="0.25098039215686274" d="M 780.5 170 L 782.5 173 L 780.5 170 Z " /><path fill="rgb(175,215,124)" stroke="rgb(175,215,124)" stroke-width="1" opacity="0.25098039215686274" d="M 242.5 171 L 240.5 174 L 242.5 171 Z " /><path fill="rgb(175,215,124)" stroke="rgb(175,215,124)" stroke-width="1" opacity="0.25098039215686274" d="M 785.5 174 L 786.5 176 L 785.5 174 Z " /><path fill="rgb(175,215,124)" stroke="rgb(175,215,124)" stroke-width="1" opacity="0.25098039215686274" d="M 237.5 175 L 235.5 178 L 237.5 175 Z " /><path fill="rgb(175,215,124)" stroke="rgb(175,215,124)" stroke-width="1" opacity="0.25098039215686274" d="M 790.5 178 L 793.5 182 L 790.5 178 Z " /><path fill="rgb(175,215,124)" stroke="rgb(175,215,124)" stroke-width="1" opacity="0.25098039215686274" d="M 231.5 180 L 228.5 184 L 231.5 180 Z " /><path fill="rgb(175,215,124)" stroke="rgb(175,215,124)" stroke-width="1" opacity="0.25098039215686274" d="M 797.5 184 L 801.5 189 L 797.5 184 Z " /><path fill="rgb(175,215,124)" stroke="rgb(175,215,124)" stroke-width="1" opacity="0.25098039215686274" d="M 224.5 186 L 221.5 190 L 224.5 186 Z " /><path fill="rgb(175,215,124)" stroke="rgb(175,215,124)" stroke-width="1" opacity="0.25098039215686274" d="M 804.5 190 L 818.5 205 L 804.5 190 Z " /><path fill="rgb(175,215,124)" stroke="rgb(175,215,124)" stroke-width="1" opacity="0.25098039215686274" d="M 214.5 195 L 196.5 214 L 214.5 195 Z " /><path fill="rgb(175,215,124)" stroke="rgb(175,215,124)" stroke-width="1" opacity="0.25098039215686274" d="M 820.5 206 L 833.5 220 L 820.5 206 Z " /><path fill="rgb(175,215,124)" stroke="rgb(175,215,124)" stroke-width="1" opacity="0.25098039215686274" d="M 190.5 220 L 186.5 225 L 190.5 220 Z " /><path fill="rgb(175,215,124)" stroke="rgb(175,215,124)" stroke-width="1" opacity="0.25098039215686274" d="M 836.5 223 L 839.5 227 L 836.5 223 Z " /><path fill="rgb(175,215,124)" stroke="rgb(175,215,124)" stroke-width="1" opacity="0.25098039215686274" d="M 183.5 228 L 180.5 232 L 183.5 228 Z " /><path fill="rgb(175,215,124)" stroke="rgb(175,215,124)" stroke-width="1" opacity="0.25098039215686274" d="M 842.5 230 L 845.5 234 L 842.5 230 Z " /><path fill="rgb(175,215,124)" stroke="rgb(175,215,124)" stroke-width="1" opacity="0.25098039215686274" d="M 177.5 235 L 175.5 238 L 177.5 235 Z " /><path fill="rgb(175,215,124)" stroke="rgb(175,215,124)" stroke-width="1" opacity="0.25098039215686274" d="M 848.5 237 L 850.5 240 L 848.5 237 Z " /><path fill="rgb(175,215,124)" stroke="rgb(175,215,124)" stroke-width="1" opacity="0.25098039215686274" d="M 173.5 240 L 171.5 243 L 173.5 240 Z " /><path fill="rgb(175,215,124)" stroke="rgb(175,215,124)" stroke-width="1" opacity="0.25098039215686274" d="M 852.5 242 L 853.5 244 L 852.5 242 Z " /><path fill="rgb(175,215,124)" stroke="rgb(175,215,124)" stroke-width="1" opacity="0.25098039215686274" d="M 169.5 245 L 168.5 247 L 169.5 245 Z " /><path fill="rgb(175,215,124)" stroke="rgb(175,215,124)" stroke-width="1" opacity="0.25098039215686274" d="M 855.5 246 L 856.5 248 L 855.5 246 Z " /><path fill="rgb(175,215,124)" stroke="rgb(175,215,124)" stroke-width="1" opacity="0.25098039215686274" d="M 166.5 249 L 164.5 252 L 166.5 249 Z " /><path fill="rgb(175,215,124)" stroke="rgb(175,215,124)" stroke-width="1" opacity="0.25098039215686274" d="M 859.5 251 L 860.5 253 L 859.5 251 Z " /><path fill="rgb(175,215,124)" stroke="rgb(175,215,124)" stroke-width="1" opacity="0.25098039215686274" d="M 162.5 254 L 161.5 256 L 162.5 254 Z " /><path fill="rgb(175,215,124)" stroke="rgb(175,215,124)" stroke-width="1" opacity="0.25098039215686274" d="M 862.5 255 L 863.5 257 L 862.5 255 Z " /><path fill="rgb(175,215,124)" stroke="rgb(175,215,124)" stroke-width="1" opacity="0.25098039215686274" d="M 160.5 257 L 159.5 259 L 160.5 257 Z " /><path fill="rgb(175,215,124)" stroke="rgb(175,215,124)" stroke-width="1" opacity="0.25098039215686274" d="M 864.5 258 L 865.5 260 L 864.5 258 Z " /><path fill="rgb(175,215,124)" stroke="rgb(175,215,124)" stroke-width="1" opacity="0.25098039215686274" d="M 155.5 264 L 154.5 266 L 155.5 264 Z " /><path fill="rgb(175,215,124)" stroke="rgb(175,215,124)" stroke-width="1" opacity="0.25098039215686274" d="M 153.5 267 L 152.5 269 L 153.5 267 Z " /><path fill="rgb(175,215,124)" stroke="rgb(175,215,124)" stroke-width="1" opacity="0.25098039215686274" d="M 871.5 268 L 872.5 270 L 871.5 268 Z " /><path fill="rgb(175,215,124)" stroke="rgb(175,215,124)" stroke-width="1" opacity="0.25098039215686274" d="M 151.5 270 L 150.5 272 L 151.5 270 Z " /><path fill="rgb(175,215,124)" stroke="rgb(175,215,124)" stroke-width="1" opacity="0.25098039215686274" d="M 873.5 271 L 874.5 273 L 873.5 271 Z " /><path fill="rgb(175,215,124)" stroke="rgb(175,215,124)" stroke-width="1" opacity="0.25098039215686274" d="M 875.5 274 L 876.5 276 L 875.5 274 Z " /><path fill="rgb(175,215,124)" stroke="rgb(175,215,124)" stroke-width="1" opacity="0.25098039215686274" d="M 880.5 282 L 881.5 284 L 880.5 282 Z " /><path fill="rgb(175,215,124)" stroke="rgb(175,215,124)" stroke-width="1" opacity="0.25098039215686274" d="M 139.5 289 L 138.5 291 L 139.5 289 Z " /><path fill="rgb(175,215,124)" stroke="rgb(175,215,124)" stroke-width="1" opacity="0.25098039215686274" d="M 93.5 395 L 94 397.5 L 93 397.5 L 93.5 395 Z " /><path fill="rgb(175,215,124)" stroke="rgb(175,215,124)" stroke-width="1" opacity="0.25098039215686274" d="M 934.5 409 L 935 411.5 L 934 411.5 L 934.5 409 Z " /><path fill="rgb(175,215,124)" stroke="rgb(175,215,124)" stroke-width="1" opacity="0.25098039215686274" d="M 89.5 410 L 90 412.5 L 89 412.5 L 89.5 410 Z " /><path fill="rgb(175,215,124)" stroke="rgb(175,215,124)" stroke-width="1" opacity="0.25098039215686274" d="M 935.5 413 L 936 415.5 L 935 415.5 L 935.5 413 Z " /><path fill="rgb(175,215,124)" stroke="rgb(175,215,124)" stroke-width="1" opacity="0.25098039215686274" d="M 936.5 418 L 937 420.5 L 936 420.5 L 936.5 418 Z " /><path fill="rgb(175,215,124)" stroke="rgb(175,215,124)" stroke-width="1" opacity="0.25098039215686274" d="M 87.5 419 L 88 421.5 L 87 421.5 L 87.5 419 Z " /><path fill="rgb(175,215,124)" stroke="rgb(175,215,124)" stroke-width="1" opacity="0.25098039215686274" d="M 86.5 424 L 87 426.5 L 86 426.5 L 86.5 424 Z " /><path fill="rgb(175,215,124)" stroke="rgb(175,215,124)" stroke-width="1" opacity="0.25098039215686274" d="M 938.5 427 L 939 429.5 L 938 429.5 L 938.5 427 Z " /><path fill="rgb(175,215,124)" stroke="rgb(175,215,124)" stroke-width="1" opacity="0.25098039215686274" d="M 939.5 432 L 940 435.5 L 939 435.5 L 939.5 432 Z " /><path fill="rgb(175,215,124)" stroke="rgb(175,215,124)" stroke-width="1" opacity="0.25098039215686274" d="M 84.5 433 L 85 436.5 L 84 436.5 L 84.5 433 Z " /><path fill="rgb(175,215,124)" stroke="rgb(175,215,124)" stroke-width="1" opacity="0.25098039215686274" d="M 940.5 437 L 941 441.5 L 940 441.5 L 940.5 437 Z " /><path fill="rgb(175,215,124)" stroke="rgb(175,215,124)" stroke-width="1" opacity="0.25098039215686274" d="M 83.5 439 L 84 442.5 L 83 442.5 L 83.5 439 Z " /><path fill="rgb(175,215,124)" stroke="rgb(175,215,124)" stroke-width="1" opacity="0.25098039215686274" d="M 941.5 444 L 942 447.5 L 941 447.5 L 941.5 444 Z " /><path fill="rgb(175,215,124)" stroke="rgb(175,215,124)" stroke-width="1" opacity="0.25098039215686274" d="M 82.5 445 L 83 448.5 L 82 448.5 L 82.5 445 Z " /><path fill="rgb(175,215,124)" stroke="rgb(175,215,124)" stroke-width="1" opacity="0.25098039215686274" d="M 942.5 450 L 943 453.5 L 942 453.5 L 942.5 450 Z " /><path fill="rgb(175,215,124)" stroke="rgb(175,215,124)" stroke-width="1" opacity="0.25098039215686274" d="M 81.5 451 L 82 456.5 L 81 456.5 L 81.5 451 Z " /><path fill="rgb(175,215,124)" stroke="rgb(175,215,124)" stroke-width="1" opacity="0.25098039215686274" d="M 943.5 457 L 944 462.5 L 943 462.5 L 943.5 457 Z " /><path fill="rgb(175,215,124)" stroke="rgb(175,215,124)" stroke-width="1" opacity="0.25098039215686274" d="M 80.5 459 L 81 464.5 L 80 464.5 L 80.5 459 Z " /><path fill="rgb(175,215,124)" stroke="rgb(175,215,124)" stroke-width="1" opacity="0.25098039215686274" d="M 944.5 465 L 945 470.5 L 944 470.5 L 944.5 465 Z " /><path fill="rgb(175,215,124)" stroke="rgb(175,215,124)" stroke-width="1" opacity="0.25098039215686274" d="M 79.5 468 L 80 474.5 L 79 474.5 L 79.5 468 Z " /><path fill="rgb(175,215,124)" stroke="rgb(175,215,124)" stroke-width="1" opacity="0.25098039215686274" d="M 945.5 474 L 946 484.5 L 945 484.5 L 945.5 474 Z " /><path fill="rgb(175,215,124)" stroke="rgb(175,215,124)" stroke-width="1" opacity="0.25098039215686274" d="M 78.5 478 L 79 488.5 L 78 488.5 L 78.5 478 Z " /><path fill="rgb(175,215,124)" stroke="rgb(175,215,124)" stroke-width="1" opacity="0.25098039215686274" d="M 946.5 488 L 947 536.5 L 946 536.5 L 946.5 488 Z " /><path fill="rgb(175,215,124)" stroke="rgb(175,215,124)" stroke-width="1" opacity="0.25098039215686274" d="M 77.5 492 L 78 531.5 L 77 531.5 L 77.5 492 Z " /><path fill="rgb(175,215,124)" stroke="rgb(175,215,124)" stroke-width="1" opacity="0.25098039215686274" d="M 78.5 536 L 79 546.5 L 78 546.5 L 78.5 536 Z " /><path fill="rgb(175,215,124)" stroke="rgb(175,215,124)" stroke-width="1" opacity="0.25098039215686274" d="M 945.5 540 L 946 550.5 L 945 550.5 L 945.5 540 Z " /><path fill="rgb(175,215,124)" stroke="rgb(175,215,124)" stroke-width="1" opacity="0.25098039215686274" d="M 79.5 550 L 80 556.5 L 79 556.5 L 79.5 550 Z " /><path fill="rgb(175,215,124)" stroke="rgb(175,215,124)" stroke-width="1" opacity="0.25098039215686274" d="M 944.5 553 L 945 558.5 L 944 558.5 L 944.5 553 Z " /><path fill="rgb(175,215,124)" stroke="rgb(175,215,124)" stroke-width="1" opacity="0.25098039215686274" d="M 80.5 559 L 81 564.5 L 80 564.5 L 80.5 559 Z " /><path fill="rgb(175,215,124)" stroke="rgb(175,215,124)" stroke-width="1" opacity="0.25098039215686274" d="M 943.5 562 L 944 567.5 L 943 567.5 L 943.5 562 Z " /><path fill="rgb(175,215,124)" stroke="rgb(175,215,124)" stroke-width="1" opacity="0.25098039215686274" d="M 81.5 568 L 82 572.5 L 81 572.5 L 81.5 568 Z " /><path fill="rgb(175,215,124)" stroke="rgb(175,215,124)" stroke-width="1" opacity="0.25098039215686274" d="M 942.5 570 L 943 574.5 L 942 574.5 L 942.5 570 Z " /><path fill="rgb(175,215,124)" stroke="rgb(175,215,124)" stroke-width="1" opacity="0.25098039215686274" d="M 82.5 575 L 83 578.5 L 82 578.5 L 82.5 575 Z " /><path fill="rgb(175,215,124)" stroke="rgb(175,215,124)" stroke-width="1" opacity="0.25098039215686274" d="M 941.5 577 L 942 580.5 L 941 580.5 L 941.5 577 Z " /><path fill="rgb(175,215,124)" stroke="rgb(175,215,124)" stroke-width="1" opacity="0.25098039215686274" d="M 83.5 581 L 84 584.5 L 83 584.5 L 83.5 581 Z " /><path fill="rgb(175,215,124)" stroke="rgb(175,215,124)" stroke-width="1" opacity="0.25098039215686274" d="M 940.5 583 L 941 586.5 L 940 586.5 L 940.5 583 Z " /><path fill="rgb(175,215,124)" stroke="rgb(175,215,124)" stroke-width="1" opacity="0.25098039215686274" d="M 84.5 587 L 85 590.5 L 84 590.5 L 84.5 587 Z " /><path fill="rgb(175,215,124)" stroke="rgb(175,215,124)" stroke-width="1" opacity="0.25098039215686274" d="M 939.5 589 L 940 592.5 L 939 592.5 L 939.5 589 Z " /><path fill="rgb(175,215,124)" stroke="rgb(175,215,124)" stroke-width="1" opacity="0.25098039215686274" d="M 85.5 593 L 86 595.5 L 85 595.5 L 85.5 593 Z " /><path fill="rgb(175,215,124)" stroke="rgb(175,215,124)" stroke-width="1" opacity="0.25098039215686274" d="M 86.5 598 L 87 600.5 L 86 600.5 L 86.5 598 Z " /><path fill="rgb(175,215,124)" stroke="rgb(175,215,124)" stroke-width="1" opacity="0.25098039215686274" d="M 937.5 599 L 938 601.5 L 937 601.5 L 937.5 599 Z " /><path fill="rgb(175,215,124)" stroke="rgb(175,215,124)" stroke-width="1" opacity="0.25098039215686274" d="M 936.5 604 L 937 606.5 L 936 606.5 L 936.5 604 Z " /><path fill="rgb(175,215,124)" stroke="rgb(175,215,124)" stroke-width="1" opacity="0.25098039215686274" d="M 88.5 607 L 89 609.5 L 88 609.5 L 88.5 607 Z " /><path fill="rgb(175,215,124)" stroke="rgb(175,215,124)" stroke-width="1" opacity="0.25098039215686274" d="M 931.5 624 L 932 626.5 L 931 626.5 L 931.5 624 Z " /><path fill="rgb(175,215,124)" stroke="rgb(175,215,124)" stroke-width="1" opacity="0.25098039215686274" d="M 140.5 737 L 141.5 739 L 140.5 737 Z " /><path fill="rgb(175,215,124)" stroke="rgb(175,215,124)" stroke-width="1" opacity="0.25098039215686274" d="M 882.5 739 L 881.5 741 L 882.5 739 Z " /><path fill="rgb(175,215,124)" stroke="rgb(175,215,124)" stroke-width="1" opacity="0.25098039215686274" d="M 879.5 744 L 878.5 746 L 879.5 744 Z " /><path fill="rgb(175,215,124)" stroke="rgb(175,215,124)" stroke-width="1" opacity="0.25098039215686274" d="M 145.5 745 L 146.5 747 L 145.5 745 Z " /><path fill="rgb(175,215,124)" stroke="rgb(175,215,124)" stroke-width="1" opacity="0.25098039215686274" d="M 874.5 752 L 873.5 754 L 874.5 752 Z " /><path fill="rgb(175,215,124)" stroke="rgb(175,215,124)" stroke-width="1" opacity="0.25098039215686274" d="M 150.5 753 L 151.5 755 L 150.5 753 Z " /><path fill="rgb(175,215,124)" stroke="rgb(175,215,124)" stroke-width="1" opacity="0.25098039215686274" d="M 871.5 756 L 870.5 758 L 871.5 756 Z " /><path fill="rgb(175,215,124)" stroke="rgb(175,215,124)" stroke-width="1" opacity="0.25098039215686274" d="M 153.5 757 L 154.5 759 L 153.5 757 Z " /><path fill="rgb(175,215,124)" stroke="rgb(175,215,124)" stroke-width="1" opacity="0.25098039215686274" d="M 869.5 759 L 868.5 761 L 869.5 759 Z " /><path fill="rgb(175,215,124)" stroke="rgb(175,215,124)" stroke-width="1" opacity="0.25098039215686274" d="M 155.5 760 L 156.5 762 L 155.5 760 Z " /><path fill="rgb(175,215,124)" stroke="rgb(175,215,124)" stroke-width="1" opacity="0.25098039215686274" d="M 867.5 762 L 866.5 764 L 867.5 762 Z " /><path fill="rgb(175,215,124)" stroke="rgb(175,215,124)" stroke-width="1" opacity="0.25098039215686274" d="M 157.5 763 L 158.5 765 L 157.5 763 Z " /><path fill="rgb(175,215,124)" stroke="rgb(175,215,124)" stroke-width="1" opacity="0.25098039215686274" d="M 862.5 769 L 861.5 771 L 862.5 769 Z " /><path fill="rgb(175,215,124)" stroke="rgb(175,215,124)" stroke-width="1" opacity="0.25098039215686274" d="M 162.5 770 L 164.5 773 L 162.5 770 Z " /><path fill="rgb(175,215,124)" stroke="rgb(175,215,124)" stroke-width="1" opacity="0.25098039215686274" d="M 859.5 773 L 857.5 776 L 859.5 773 Z " /><path fill="rgb(175,215,124)" stroke="rgb(175,215,124)" stroke-width="1" opacity="0.25098039215686274" d="M 165.5 774 L 167.5 777 L 165.5 774 Z " /><path fill="rgb(175,215,124)" stroke="rgb(175,215,124)" stroke-width="1" opacity="0.25098039215686274" d="M 856.5 777 L 854.5 780 L 856.5 777 Z " /><path fill="rgb(175,215,124)" stroke="rgb(175,215,124)" stroke-width="1" opacity="0.25098039215686274" d="M 169.5 779 L 170.5 781 L 169.5 779 Z " /><path fill="rgb(175,215,124)" stroke="rgb(175,215,124)" stroke-width="1" opacity="0.25098039215686274" d="M 852.5 782 L 851.5 784 L 852.5 782 Z " /><path fill="rgb(175,215,124)" stroke="rgb(175,215,124)" stroke-width="1" opacity="0.25098039215686274" d="M 172.5 783 L 174.5 786 L 172.5 783 Z " /><path fill="rgb(175,215,124)" stroke="rgb(175,215,124)" stroke-width="1" opacity="0.25098039215686274" d="M 849.5 786 L 846.5 790 L 849.5 786 Z " /><path fill="rgb(175,215,124)" stroke="rgb(175,215,124)" stroke-width="1" opacity="0.25098039215686274" d="M 176.5 788 L 179.5 792 L 176.5 788 Z " /><path fill="rgb(175,215,124)" stroke="rgb(175,215,124)" stroke-width="1" opacity="0.25098039215686274" d="M 844.5 792 L 840.5 797 L 844.5 792 Z " /><path fill="rgb(175,215,124)" stroke="rgb(175,215,124)" stroke-width="1" opacity="0.25098039215686274" d="M 181.5 794 L 186.5 800 L 181.5 794 Z " /><path fill="rgb(175,215,124)" stroke="rgb(175,215,124)" stroke-width="1" opacity="0.25098039215686274" d="M 837.5 800 L 831.5 807 L 837.5 800 Z " /><path fill="rgb(175,215,124)" stroke="rgb(175,215,124)" stroke-width="1" opacity="0.25098039215686274" d="M 188.5 802 L 198.5 813 L 188.5 802 Z " /><path fill="rgb(175,215,124)" stroke="rgb(175,215,124)" stroke-width="1" opacity="0.25098039215686274" d="M 828.5 810 L 810.5 829 L 828.5 810 Z " /><path fill="rgb(175,215,124)" stroke="rgb(175,215,124)" stroke-width="1" opacity="0.25098039215686274" d="M 201.5 816 L 207.5 823 L 201.5 816 Z " /><path fill="rgb(175,215,124)" stroke="rgb(175,215,124)" stroke-width="1" opacity="0.25098039215686274" d="M 211.5 825 L 222.5 837 L 211.5 825 Z " /><path fill="rgb(175,215,124)" stroke="rgb(175,215,124)" stroke-width="1" opacity="0.25098039215686274" d="M 806.5 831 L 799.5 839 L 806.5 831 Z " /><path fill="rgb(175,215,124)" stroke="rgb(175,215,124)" stroke-width="1" opacity="0.25098039215686274" d="M 225.5 838 L 229.5 843 L 225.5 838 Z " /><path fill="rgb(175,215,124)" stroke="rgb(175,215,124)" stroke-width="1" opacity="0.25098039215686274" d="M 796.5 840 L 792.5 845 L 796.5 840 Z " /><path fill="rgb(175,215,124)" stroke="rgb(175,215,124)" stroke-width="1" opacity="0.25098039215686274" d="M 232.5 844 L 236.5 849 L 232.5 844 Z " /><path fill="rgb(175,215,124)" stroke="rgb(175,215,124)" stroke-width="1" opacity="0.25098039215686274" d="M 789.5 846 L 786.5 850 L 789.5 846 Z " /><path fill="rgb(175,215,124)" stroke="rgb(175,215,124)" stroke-width="1" opacity="0.25098039215686274" d="M 238.5 849 L 240.5 852 L 238.5 849 Z " /><path fill="rgb(175,215,124)" stroke="rgb(175,215,124)" stroke-width="1" opacity="0.25098039215686274" d="M 784.5 850 L 782.5 853 L 784.5 850 Z " /><path fill="rgb(175,215,124)" stroke="rgb(175,215,124)" stroke-width="1" opacity="0.25098039215686274" d="M 243.5 853 L 245.5 856 L 243.5 853 Z " /><path fill="rgb(175,215,124)" stroke="rgb(175,215,124)" stroke-width="1" opacity="0.25098039215686274" d="M 779.5 854 L 777.5 857 L 779.5 854 Z " /><path fill="rgb(175,215,124)" stroke="rgb(175,215,124)" stroke-width="1" opacity="0.25098039215686274" d="M 247.5 856 L 249.5 859 L 247.5 856 Z " /><path fill="rgb(175,215,124)" stroke="rgb(175,215,124)" stroke-width="1" opacity="0.25098039215686274" d="M 775.5 857 L 773.5 860 L 775.5 857 Z " /><path fill="rgb(175,215,124)" stroke="rgb(175,215,124)" stroke-width="1" opacity="0.25098039215686274" d="M 252.5 860 L 254.5 863 L 252.5 860 Z " /><path fill="rgb(175,215,124)" stroke="rgb(175,215,124)" stroke-width="1" opacity="0.25098039215686274" d="M 770.5 861 L 769.5 863 L 770.5 861 Z " /><path fill="rgb(175,215,124)" stroke="rgb(175,215,124)" stroke-width="1" opacity="0.25098039215686274" d="M 256.5 863 L 257.5 865 L 256.5 863 Z " /><path fill="rgb(175,215,124)" stroke="rgb(175,215,124)" stroke-width="1" opacity="0.25098039215686274" d="M 259.5 865 L 260.5 867 L 259.5 865 Z " /><path fill="rgb(175,215,124)" stroke="rgb(175,215,124)" stroke-width="1" opacity="0.25098039215686274" d="M 763.5 866 L 762.5 868 L 763.5 866 Z " /><path fill="rgb(175,215,124)" stroke="rgb(175,215,124)" stroke-width="1" opacity="0.25098039215686274" d="M 760.5 868 L 759.5 870 L 760.5 868 Z " /><path fill="rgb(175,215,124)" stroke="rgb(175,215,124)" stroke-width="1" opacity="0.25098039215686274" d="M 266.5 870 L 267.5 872 L 266.5 870 Z " /><path fill="rgb(175,215,124)" stroke="rgb(175,215,124)" stroke-width="1" opacity="0.25098039215686274" d="M 757.5 870 L 756.5 872 L 757.5 870 Z " /><path fill="rgb(175,215,124)" stroke="rgb(175,215,124)" stroke-width="1" opacity="0.25098039215686274" d="M 269.5 872 L 270.5 874 L 269.5 872 Z " /><path fill="rgb(175,215,124)" stroke="rgb(175,215,124)" stroke-width="1" opacity="0.25098039215686274" d="M 753.5 873 L 752.5 875 L 753.5 873 Z " /><path fill="rgb(175,215,124)" stroke="rgb(175,215,124)" stroke-width="1" opacity="0.25098039215686274" d="M 272.5 874 L 273.5 876 L 272.5 874 Z " /><path fill="rgb(175,215,124)" stroke="rgb(175,215,124)" stroke-width="1" opacity="0.25098039215686274" d="M 275.5 876 L 276.5 878 L 275.5 876 Z " /><path fill="rgb(175,215,124)" stroke="rgb(175,215,124)" stroke-width="1" opacity="0.25098039215686274" d="M 745.5 878 L 744.5 880 L 745.5 878 Z " /><path fill="rgb(175,215,124)" stroke="rgb(175,215,124)" stroke-width="1" opacity="0.25098039215686274" d="M 737.5 883 L 736.5 885 L 737.5 883 Z " /><path fill="rgb(175,215,124)" stroke="rgb(175,215,124)" stroke-width="1" opacity="0.25098039215686274" d="M 288.5 884 L 289.5 886 L 288.5 884 Z " /><path fill="rgb(175,215,124)" stroke="rgb(175,215,124)" stroke-width="1" opacity="0.25098039215686274" d="M 732.5 886 L 731.5 888 L 732.5 886 Z " /><path fill="rgb(175,215,124)" stroke="rgb(175,215,124)" stroke-width="1" opacity="0.25098039215686274" d="M 293.5 887 L 294.5 889 L 293.5 887 Z " /><path fill="rgb(175,215,124)" stroke="rgb(175,215,124)" stroke-width="1" opacity="0.25098039215686274" d="M 723.5 891 L 722.5 893 L 723.5 891 Z " /><path fill="rgb(175,215,124)" stroke="rgb(175,215,124)" stroke-width="1" opacity="0.25098039215686274" d="M 714.5 896 L 713.5 898 L 714.5 896 Z " /><path fill="rgb(175,215,124)" stroke="rgb(175,215,124)" stroke-width="1" opacity="0.25098039215686274" d="M 708.5 899 L 710 899.5 L 706.5 901 L 706.5 900 L 708.5 899 Z " /><path fill="rgb(175,215,124)" stroke="rgb(175,215,124)" stroke-width="1" opacity="0.25098039215686274" d="M 675.5 914 L 677 914.5 L 673.5 916 L 673.5 915 L 675.5 914 Z " /><path fill="rgb(175,215,124)" stroke="rgb(175,215,124)" stroke-width="1" opacity="0.25098039215686274" d="M 625.5 931 L 628 931.5 L 625.5 932 L 625.5 931 Z " /><path fill="rgb(175,215,124)" stroke="rgb(175,215,124)" stroke-width="1" opacity="0.25098039215686274" d="M 621.5 932 L 624 932.5 L 621.5 933 L 621.5 932 Z " /><path fill="rgb(175,215,124)" stroke="rgb(175,215,124)" stroke-width="1" opacity="0.25098039215686274" d="M 404.5 933 L 407 933.5 L 404.5 934 L 404.5 933 Z " /><path fill="rgb(175,215,124)" stroke="rgb(175,215,124)" stroke-width="1" opacity="0.25098039215686274" d="M 617.5 933 L 620 933.5 L 617.5 934 L 617.5 933 Z " /><path fill="rgb(175,215,124)" stroke="rgb(175,215,124)" stroke-width="1" opacity="0.25098039215686274" d="M 408.5 934 L 411 934.5 L 408.5 935 L 408.5 934 Z " /><path fill="rgb(175,215,124)" stroke="rgb(175,215,124)" stroke-width="1" opacity="0.25098039215686274" d="M 412.5 935 L 415 935.5 L 412.5 936 L 412.5 935 Z " /><path fill="rgb(175,215,124)" stroke="rgb(175,215,124)" stroke-width="1" opacity="0.25098039215686274" d="M 609.5 935 L 612 935.5 L 609.5 936 L 609.5 935 Z " /><path fill="rgb(175,215,124)" stroke="rgb(175,215,124)" stroke-width="1" opacity="0.25098039215686274" d="M 417.5 936 L 420 936.5 L 417.5 937 L 417.5 936 Z " /><path fill="rgb(175,215,124)" stroke="rgb(175,215,124)" stroke-width="1" opacity="0.25098039215686274" d="M 605.5 936 L 608 936.5 L 605.5 937 L 605.5 936 Z " /><path fill="rgb(175,215,124)" stroke="rgb(175,215,124)" stroke-width="1" opacity="0.25098039215686274" d="M 421.5 937 L 424 937.5 L 421.5 938 L 421.5 937 Z " /><path fill="rgb(175,215,124)" stroke="rgb(175,215,124)" stroke-width="1" opacity="0.25098039215686274" d="M 600.5 937 L 603 937.5 L 600.5 938 L 600.5 937 Z " /><path fill="rgb(175,215,124)" stroke="rgb(175,215,124)" stroke-width="1" opacity="0.25098039215686274" d="M 426.5 938 L 429 938.5 L 426.5 939 L 426.5 938 Z " /><path fill="rgb(175,215,124)" stroke="rgb(175,215,124)" stroke-width="1" opacity="0.25098039215686274" d="M 595.5 938 L 599 938.5 L 595.5 939 L 595.5 938 Z " /><path fill="rgb(175,215,124)" stroke="rgb(175,215,124)" stroke-width="1" opacity="0.25098039215686274" d="M 430.5 939 L 434 939.5 L 430.5 940 L 430.5 939 Z " /><path fill="rgb(175,215,124)" stroke="rgb(175,215,124)" stroke-width="1" opacity="0.25098039215686274" d="M 590.5 939 L 594 939.5 L 590.5 940 L 590.5 939 Z " /><path fill="rgb(175,215,124)" stroke="rgb(175,215,124)" stroke-width="1" opacity="0.25098039215686274" d="M 435.5 940 L 440 940.5 L 435.5 941 L 435.5 940 Z " /><path fill="rgb(175,215,124)" stroke="rgb(175,215,124)" stroke-width="1" opacity="0.25098039215686274" d="M 584.5 940 L 589 940.5 L 584.5 941 L 584.5 940 Z " /><path fill="rgb(175,215,124)" stroke="rgb(175,215,124)" stroke-width="1" opacity="0.25098039215686274" d="M 441.5 941 L 446 941.5 L 441.5 942 L 441.5 941 Z " /><path fill="rgb(175,215,124)" stroke="rgb(175,215,124)" stroke-width="1" opacity="0.25098039215686274" d="M 578.5 941 L 583 941.5 L 578.5 942 L 578.5 941 Z " /><path fill="rgb(175,215,124)" stroke="rgb(175,215,124)" stroke-width="1" opacity="0.25098039215686274" d="M 447.5 942 L 462 943.5 L 454.5 944 Q 453 941.5 447.5 943 L 447.5 942 Z " /><path fill="rgb(175,215,124)" stroke="rgb(175,215,124)" stroke-width="1" opacity="0.25098039215686274" d="M 571.5 942 L 577 942.5 L 571.5 943 L 571.5 942 Z " /><path fill="rgb(175,215,124)" stroke="rgb(175,215,124)" stroke-width="1" opacity="0.25098039215686274" d="M 563.5 943 L 570 943.5 L 563.5 944 L 563.5 943 Z " /><path fill="rgb(175,215,124)" stroke="rgb(175,215,124)" stroke-width="1" opacity="0.25098039215686274" d="M 463.5 944 L 470 944.5 L 463.5 945 L 463.5 944 Z " /><path fill="rgb(175,215,124)" stroke="rgb(175,215,124)" stroke-width="1" opacity="0.25098039215686274" d="M 555.5 944 L 562 944.5 L 555.5 945 L 555.5 944 Z " /><path fill="rgb(175,215,124)" stroke="rgb(175,215,124)" stroke-width="1" opacity="0.25098039215686274" d="M 471.5 945 L 509 946.5 L 481.5 947 L 480.5 946 L 471.5 946 L 471.5 945 Z " /><path fill="rgb(175,215,124)" stroke="rgb(175,215,124)" stroke-width="1" opacity="0.25098039215686274" d="M 542.5 945 L 553 945.5 L 543.5 946 L 542.5 947 L 516.5 947 L 516.5 946 L 541.5 946 L 542.5 945 Z " /></svg>