<svg width="24" height="24" viewBox="0 0 24 24" fill="none" xmlns="http://www.w3.org/2000/svg">
<path d="M15.6768 7.83984V9.48047H19.749V19.8223H4.25098V9.48047H8.32324V7.83984C8.3623 6.80469 8.72363 5.94531 9.40723 5.26172C10.0908 4.55859 10.96 4.19727 12.0146 4.17773C13.0498 4.19727 13.9092 4.55859 14.5928 5.26172C15.2764 5.94531 15.6377 6.80469 15.6768 7.83984ZM9.20215 7.83984V9.48047H9.99316V7.83984C9.99316 7.25391 10.1787 6.77539 10.5498 6.4043C10.9404 6.0332 11.4189 5.84766 11.9854 5.84766C12.5713 5.84766 13.0498 6.04297 13.4209 6.43359C13.8115 6.80469 14.0068 7.27344 14.0068 7.83984V9.48047H14.7979V7.83984C14.7783 7.03906 14.5049 6.375 13.9775 5.84766C13.4502 5.32031 12.7861 5.05664 11.9854 5.05664C11.2041 5.05664 10.5498 5.32031 10.0225 5.84766C9.49512 6.375 9.22168 7.03906 9.20215 7.83984ZM13.1279 9.48047H13.1572V7.83984C13.1377 7.50781 13.0205 7.23438 12.8057 7.01953C12.5908 6.80469 12.3174 6.69727 11.9854 6.69727C11.6729 6.69727 11.4092 6.80469 11.1943 7.01953C10.9795 7.23438 10.8721 7.50781 10.8721 7.83984V9.48047H12.0146C12.6787 9.48047 13.0498 9.48047 13.1279 9.48047ZM18.8701 10.3594H5.12988V18.9434H18.8701V14.6367C18.8701 12.1367 18.8701 10.7109 18.8701 10.3594ZM13.8018 13.6406C13.8018 14.1094 13.6553 14.5 13.3623 14.8125L13.8896 17.0098H10.1396L10.6377 14.8125C10.3447 14.4805 10.1982 14.0898 10.1982 13.6406C10.2178 13.1328 10.3936 12.7129 10.7256 12.3809C11.0576 12.0293 11.4775 11.8535 11.9854 11.8535C12.5127 11.8535 12.9424 12.0293 13.2744 12.3809C13.6064 12.7129 13.7822 13.1328 13.8018 13.6406ZM12.7764 16.1602L12.3955 14.5195L12.6006 14.3438C12.8154 14.1484 12.9229 13.9238 12.9229 13.6699C12.9229 13.3965 12.835 13.1719 12.6592 12.9961C12.4834 12.8203 12.2588 12.7324 11.9854 12.7324C11.7314 12.7324 11.5166 12.8203 11.3408 12.9961C11.165 13.1719 11.0771 13.3965 11.0771 13.6699C11.0771 13.9434 11.1846 14.168 11.3994 14.3438L11.6045 14.5195L11.2236 16.1602H12.0146C12.4443 16.1602 12.6982 16.1602 12.7764 16.1602Z" fill="#77BC1F"/>
</svg>
