<svg width="30" height="30" viewBox="0 0 24 24" fill="none" xmlns="http://www.w3.org/2000/svg">
<path d="M12 8.35254C13.0156 8.37207 13.875 8.7334 14.5781 9.43652C14.9297 9.78809 15.1934 10.1885 15.3691 10.6377C15.5645 11.0869 15.6523 11.5557 15.6328 12.0439C15.6133 13.0596 15.252 13.9092 14.5488 14.5928C13.8652 15.2764 13.0156 15.6279 12 15.6475C10.9844 15.6475 10.125 15.2861 9.42188 14.5635C9.07031 14.2119 8.79688 13.8213 8.60156 13.3916C8.42578 12.9424 8.34766 12.4736 8.36719 11.9854C8.38672 10.9502 8.73828 10.1006 9.42188 9.43652C10.125 8.75293 10.9844 8.3916 12 8.35254C12 8.37207 12 8.37207 12 8.35254ZM12 14.7686C12.7812 14.7686 13.4258 14.5146 13.9336 14.0068C14.4609 13.4795 14.7441 12.8154 14.7832 12.0146C14.7832 11.6631 14.7148 11.3213 14.5781 10.9893C14.4414 10.6377 14.2363 10.3252 13.9629 10.0518C13.416 9.50488 12.7617 9.23145 12 9.23145C11.2188 9.25098 10.5645 9.52441 10.0371 10.0518C9.5293 10.5596 9.25586 11.2041 9.2168 11.9854C9.2168 12.3564 9.28516 12.708 9.42188 13.04C9.55859 13.3721 9.76367 13.6748 10.0371 13.9482C10.584 14.4951 11.2383 14.7686 12 14.7686ZM20.7598 10.374C20.877 10.4131 20.9746 10.4912 21.0527 10.6084C21.1309 10.7061 21.1699 10.8232 21.1699 10.96V13.04C21.1504 13.333 21.0137 13.5381 20.7598 13.6553L19.1484 14.1533L18.5918 15.5596L19.3535 17.0244C19.4707 17.2979 19.4316 17.542 19.2363 17.7568L17.7422 19.251C17.5273 19.4463 17.2832 19.4854 17.0098 19.3682L15.5449 18.6064L14.168 19.1631L13.6406 20.7451C13.543 21.0186 13.3477 21.165 13.0547 21.1846H10.9453C10.6523 21.165 10.457 21.0186 10.3594 20.7451L9.83203 19.1631L8.45508 18.6064L6.99023 19.3682C6.7168 19.4658 6.47266 19.4268 6.25781 19.251L4.76367 17.7568C4.56836 17.542 4.5293 17.2979 4.64648 17.0244L5.4082 15.5596L4.85156 14.1533L3.24023 13.6553C2.98633 13.5381 2.84961 13.333 2.83008 13.04V10.9014C2.84961 10.6475 2.97656 10.4717 3.21094 10.374L4.85156 9.84668L5.4082 8.46973L4.64648 6.97559C4.5293 6.72168 4.56836 6.4873 4.76367 6.27246L6.25781 4.77832C6.47266 4.58301 6.7168 4.54395 6.99023 4.66113L8.45508 5.42285L9.83203 4.83691L10.3594 3.25488C10.457 2.98145 10.6523 2.83496 10.9453 2.81543H13.0547C13.3477 2.83496 13.543 2.98145 13.6406 3.25488L14.168 4.83691L15.5449 5.42285L17.0098 4.66113C17.2832 4.54395 17.5273 4.58301 17.7422 4.77832L19.2363 6.27246C19.4316 6.4873 19.4707 6.72168 19.3535 6.97559L18.5918 8.46973L19.1484 9.84668L19.9688 10.1104C20.418 10.2666 20.6816 10.3545 20.7598 10.374ZM20.291 12.8936V11.165L18.7676 10.667C18.5918 10.6084 18.4648 10.4912 18.3867 10.3154L17.7422 8.7334C17.6641 8.53809 17.6641 8.3623 17.7422 8.20605L18.4746 6.77051L17.2441 5.54004L15.8086 6.27246C15.6328 6.35059 15.457 6.36035 15.2812 6.30176L13.6992 5.62793C13.5234 5.5498 13.4062 5.42285 13.3477 5.24707L12.8496 3.72363H11.1211L10.623 5.24707C10.584 5.42285 10.4766 5.5498 10.3008 5.62793L8.68945 6.30176C8.51367 6.36035 8.33789 6.35059 8.16211 6.27246L6.75586 5.54004L5.52539 6.77051L6.22852 8.20605C6.32617 8.38184 6.33594 8.55762 6.25781 8.7334L5.58398 10.3154C5.50586 10.4912 5.37891 10.6084 5.20312 10.667L3.70898 11.165V12.8936L5.20312 13.3916C5.37891 13.4502 5.50586 13.5674 5.58398 13.7432L6.25781 15.3252C6.33594 15.501 6.33594 15.667 6.25781 15.8232L5.52539 17.2588L6.75586 18.4893L8.19141 17.7568C8.36719 17.6787 8.54297 17.6787 8.71875 17.7568L10.3008 18.4014C10.4766 18.4795 10.5938 18.6064 10.6523 18.7822L11.1504 20.3057H12.8789L13.377 18.7822C13.416 18.6064 13.5234 18.4795 13.6992 18.4014L15.3105 17.7568C15.4863 17.6787 15.6621 17.6787 15.8379 17.7568L17.2441 18.4893L18.4746 17.2588L17.7715 15.8232C17.6738 15.667 17.6641 15.501 17.7422 15.3252L18.416 13.7139C18.4941 13.5381 18.6211 13.4209 18.7969 13.3623L19.5586 13.1279C19.9883 12.9912 20.2324 12.9131 20.291 12.8936Z" fill="#77BC1F"/>
</svg>
