<?xml version="1.0" encoding="UTF-8"?>
<svg id="Ebene_1" data-name="Ebene 1" xmlns="http://www.w3.org/2000/svg" width="280" height="200" viewBox="0 0 280 200">
  <defs>
    <style>
      .cls-1 {
        stroke: #77bc1f;
        stroke-miterlimit: 10;
      }

      .cls-1, .cls-2 {
        fill: none;
        stroke-width: 2px;
      }

      .cls-2 {
        stroke: #fff;
        stroke-linecap: round;
        stroke-linejoin: round;
      }

      .cls-3 {
        opacity: .15;
      }

      .cls-4 {
        opacity: .2;
      }

      .cls-5 {
        fill: #77bc1f;
      }
    </style>
  </defs>
  <g>
    <g class="cls-4">
      <path d="M168.78761,44.45473c2.31812.00021,4.46729,1.49302,5.19482,3.82256l7.48877,23.94707c.90405-.13745,1.80371-.20424,2.69434-.20424,7.68823,0,14.65576,4.9816,17.01196,12.51431,2.625,8.43729-1.31323,17.52592-9.26416,21.38072l7.48022,23.99753c.32983,1.05315.3313,2.18179.00415,3.23579-.72363,2.33051-2.87134,3.82558-5.1897,3.82558-.53369,0-1.07642-.07925-1.61304-.2458l-39.35376-12.11656-43.29138,13.46286c-.73108.22675-1.47266.41814-2.22217.57353-1.63208.33833-3.25793.50089-4.86157.50089-11.05835,0-20.97559-7.74237-23.30872-18.99686-2.56628-12.17546,5.33472-24.17421,17.2157-27.8765l42.32385-13.1936,25.40259-32.53804c.68066-.86932,1.60962-1.51111,2.66357-1.84025.54028-.16877,1.08667-.24904,1.62451-.24899M168.78835,36.45472h-.00024c-1.35864-.00011-2.70801.20607-4.01001.61282-2.61426.81639-4.88892,2.38786-6.57739,4.54443l-23.87122,30.57652-39.93726,12.44962c-16.04626,5.00024-26.00134,21.32471-22.66284,37.16396,3.04236,14.67604,16.13953,25.34689,31.13672,25.34689,2.16699,0,4.349-.22456,6.48547-.66742.99731-.20679,1.99585-.46451,2.96826-.76611l40.93311-12.72949,36.98804,11.38814c1.27661.39629,2.61719.59996,3.96704.59996,5.91846,0,11.07446-3.7991,12.82983-9.45354.81274-2.6176.80908-5.38339-.01001-7.99875l-5.71362-18.33049c7.48462-6.59358,10.60938-17.04573,7.5022-27.0334-3.07349-9.82532-11.48193-16.7257-21.46851-17.94483l-5.73022-18.32349c-1.76172-5.64146-6.91772-9.43429-12.82935-9.43482h0Z"/>
    </g>
    <path class="cls-2" d="M201.17749,84.53445c-2.62926-8.40537-10.99932-13.63398-19.70627-12.3101l-7.48871-23.94706c-.89632-2.86995-3.94947-4.46991-6.81943-3.5736-1.05389.32914-1.98281.97094-2.66347,1.84026l-25.40273,32.53804-42.32385,13.1936c-11.88097,3.70229-19.78198,15.70105-17.21562,27.87652,2.6715,12.88653,15.28378,21.16744,28.17031,18.49594.74947-.15538,1.49103-.34676,2.22208-.57351l43.29149-13.46286,39.35361,12.11656c2.86707.88999,5.91275-.71274,6.80274-3.57979.32717-1.05399.32578-2.18261-.00401-3.23578l-7.48031-23.99754c7.951-3.85477,11.88908-12.94341,9.26416-21.38068Z"/>
  </g>
  <g>
    <g class="cls-4">
      <path d="M150.20363,144.28429l28.64233,28.66745-27.43896,8.55731-28.65063-28.66745,27.44727-8.55731M150.20265,136.28408c-.79541,0-1.59741.11876-2.38013.36279l-27.44727,8.55731c-2.67322.8334-4.71606,3.00371-5.38635,5.72232s.12964,5.58981,2.10889,7.57028l28.65076,28.66745c1.52319,1.52417,3.56836,2.34503,5.65918,2.34503.7959,0,1.59814-.1188,2.3811-.36301l27.43896-8.55731c2.67261-.83353,4.71533-3.00363,5.3855-5.72189.67041-2.71826-.12915-5.58916-2.10791-7.56969l-28.64233-28.66745c-1.52344-1.52472-3.56885-2.34584-5.6604-2.34584h0Z"/>
    </g>
    <polygon class="cls-2" points="122.75635 152.84161 151.40699 181.50907 178.84597 172.95175 150.20374 144.28429 122.75635 152.84161"/>
  </g>
  <path class="cls-2" d="M205.10695,49.08507c19.80425,2.89669,33.51054,21.29944,30.61387,41.10369-.98631,6.74325-3.85401,13.07175-8.27395,18.25909"/>
  <path class="cls-2" d="M203.34837,60.73044c13.37619,1.92305,22.66077,14.32553,20.73771,27.70172-.65744,4.57313-2.59621,8.86668-5.592,12.38393"/>
  <path class="cls-2" d="M233.01714,120.58125c19.66729-18.36198,20.72547-49.19081,2.36349-68.85811-7.52987-8.06515-17.5745-13.3354-28.48983-14.94817"/>
  <g class="cls-3">
    <path class="cls-5" d="M60.5832,54.57118c.0704-.41645-.06796-.84094-.37023-1.13593l-7.9515-7.75797c-.26833.49941-.17586,1.11586.22718,1.51457l8.01881,7.80846.07573-.42913Z"/>
    <path class="cls-5" d="M82.47718,37.263c.18636.37921.54903.64097.96764.69839l.6479.09256-5.02333-10.13922c-.27367-.57628-.93646-.85516-1.53982-.6479l4.9476,9.99617Z"/>
  </g>
  <g class="cls-3">
    <path class="cls-5" d="M40.57404,155.4837c.0639-.30669-.03467-.62466-.26084-.84143l-5.62916-5.48612c-.18801.35395-.11941.78957.16828,1.06862l5.67123,5.58708.05049-.32816Z"/>
    <path class="cls-5" d="M56.09839,143.24933c.12968.2692.38555.45557.68155.49644l.45437.06732-3.55083-7.20263c-.19909-.39966-.66102-.59302-1.08544-.45437l3.50035,7.09324Z"/>
  </g>
  <g class="cls-3">
    <path class="cls-5" d="M227.50577,156.84681c.04445-.25764-.04417-.52031-.2356-.69839l-4.93918-4.82138c-.16989.3077-.11114.69124.14305.93399l4.98127,4.85505.05046-.26926Z"/>
    <path class="cls-5" d="M241.11168,146.09335c.12082.23035.34134.39188.59741.43755l.40389.05891-3.12169-6.32755c-.17366-.35567-.58349-.52823-.95924-.40388l3.07963,6.23498Z"/>
  </g>
  <path class="cls-1" d="M68.22883,25.5435l5.52611,11.19869c.14746.30006.43443.50718.76566.55261l12.35717,1.79765c.55334.07871.93811.5911.8594,1.14445-.0318.22355-.13744.43004-.30013.58662l-8.94164,8.71527c-.23918.23341-.34866.5693-.29295.89882l2.11057,12.31057c.0945.55087-.27545,1.07405-.82632,1.16856-.22054.03783-.44739.00151-.64509-.10328l-11.05221-5.83903c-.29119-.14607-.63426-.14607-.92546,0l-11.05221,5.8124c-.49383.26177-1.10636.07364-1.36812-.42019-.1048-.1977-.14112-.42455-.10328-.64509l2.11057-12.31057c.0557-.32953-.05377-.66541-.29295-.89882l-8.96161-8.68864c-.4027-.38759-.41494-1.02824-.02735-1.43094.15658-.16269.36307-.26833.58662-.30013l12.36383-1.79765c.32876-.0475.61284-.25433.75901-.55261l5.52611-11.19869c.25048-.50376.8619-.70909,1.36567-.45862.19876.09882.3598.25986.45862.45862Z"/>
  <path class="cls-1" d="M44.61037,137.17107l3.755,7.54172c.09776.20293.29064.34342.51377.37423l8.32189,1.20515c.37437.05464.63356.40241.57893.77678-.02164.1483-.09132.28541-.19836.39031l-6.02576,5.87353c-.17049.1634-.2448.4031-.19663.63429l1.42081,8.29017c.06312.37303-.18811.7266-.56114.78973-.14623.02474-.29654.00135-.42835-.06664l-7.44657-3.91357c-.19625-.11331-.43804-.11331-.63429,0l-7.44657,3.91357c-.33623.17345-.74941.04149-.92286-.29474-.06799-.13181-.09137-.28212-.06663-.42835l1.42081-8.29018c.04817-.23119-.02614-.47089-.19663-.63429l-6.02576-5.87353c-.2702-.26482-.27456-.69854-.00974-.96873.10491-.10703.24202-.17672.39031-.19836l8.32189-1.20515c.22462-.03097.41936-.1711.52012-.37423l3.71694-7.54172c.18316-.33104.6-.45092.93105-.26776.11264.06232.20544.15512.26776.26776Z"/>
  <path class="cls-1" d="M231.78656,142.66881l2.91205,5.90311c.08103.1545.22894.26283.40068.29346l6.51261.94247c.30253.07496.48702.38098.41205.68351-.02108.08508-.06167.16407-.11859.23073l-4.70668,4.59382c-.12839.11944-.18783.29561-.15802.46841l1.1287,6.4844c.05377.28801-.13611.56507-.42411.61884-.11916.02224-.24234.00301-.34905-.05449l-5.82411-3.05878c-.15481-.0843-.34182-.0843-.49663,0l-5.82411,3.05878c-.25791.139-.57966.0426-.71867-.21531-.05751-.1067-.07674-.22989-.05449-.34904l1.1287-6.4844c.02981-.1728-.02962-.34897-.15802-.46841l-4.70668-4.59382c-.20238-.23703-.17431-.59325.06272-.79564.06665-.05692.14565-.09752.23073-.1186l6.47875-.93118c.17174-.03063.31965-.13897.40068-.29346l2.90077-5.9144c.15905-.26804.50528-.3564.77333-.19735.08127.04822.14913.11608.19735.19735Z"/>
</svg>