<?xml version="1.0" encoding="UTF-8"?>
<svg id="Ebene_1" data-name="Ebene 1" xmlns="http://www.w3.org/2000/svg" width="280" height="200" viewBox="0 0 280 200">
  <defs>
    <style>
      .cls-1 {
        stroke: #77bc1f;
        stroke-miterlimit: 10;
      }

      .cls-1, .cls-2, .cls-3 {
        fill: none;
        stroke-width: 2px;
      }

      .cls-4 {
        fill: #003ca6;
      }

      .cls-2 {
        stroke: #003ca6;
      }

      .cls-2, .cls-3 {
        stroke-linecap: round;
        stroke-linejoin: round;
      }

      .cls-3 {
        stroke: #003ca6;
      }

      .cls-5 {
        opacity: .1;
      }
    </style>
  </defs>
  <g>
    <g class="cls-5">
      <path class="cls-4" d="M168.78761,44.45473c2.31812.00023,4.46729,1.49303,5.19482,3.82257l7.48877,23.94707c.90405-.13745,1.80371-.20424,2.69434-.20424,7.68823,0,14.65576,4.98161,17.01196,12.51434,2.625,8.43725-1.31323,17.52589-9.26416,21.38068l7.48022,23.99754c.32983,1.05318.3313,2.18179.00415,3.23579-.72363,2.33052-2.87134,3.82559-5.1897,3.82559-.53369,0-1.07642-.07926-1.61304-.2458l-39.35376-12.11657-43.29138,13.46285c-.73108.22675-1.47266.41814-2.22217.5735-1.63208.33834-3.25806.50089-4.86157.50089-11.05847,0-20.97559-7.74234-23.30872-18.99682-2.56628-12.17547,5.33472-24.17426,17.2157-27.87654l42.32385-13.19357,25.40259-32.53803c.68066-.86932,1.60962-1.51115,2.66357-1.84026.54028-.16878,1.08667-.24904,1.62451-.24899M168.78835,36.45471h-.00024c-1.35864-.00011-2.70801.20609-4.01001.61282-2.61401.81625-4.88867,2.38776-6.57739,4.54443l-23.87134,30.57654-39.93713,12.44957c-16.04626,5.00025-26.00134,21.32471-22.66284,37.164,3.04236,14.676,16.13953,25.34686,31.1366,25.34686,2.16736,0,4.34949-.22457,6.48572-.66747.99683-.20661,1.99548-.46436,2.96814-.76603l40.93311-12.7295,36.98804,11.38815c1.27661.39629,2.61719.59996,3.96704.59996,5.91846,0,11.07446-3.79911,12.82983-9.45353.81274-2.61754.80908-5.38332-.01001-7.99868l-5.71362-18.33057c7.48462-6.59359,10.60938-17.04574,7.5022-27.0334-3.07324-9.82532-11.48193-16.7257-21.46851-17.94483l-5.73022-18.32349c-1.76172-5.64146-6.91772-9.43428-12.82935-9.43483h0Z"/>
    </g>
    <path class="cls-3" d="M201.17749,84.53445c-2.62926-8.40537-10.99932-13.63398-19.70627-12.3101l-7.48871-23.94706c-.89632-2.86995-3.94947-4.46991-6.81943-3.5736-1.05389.32914-1.98281.97094-2.66347,1.84026l-25.40273,32.53804-42.32385,13.1936c-11.88097,3.70229-19.78198,15.70105-17.21562,27.87652,2.6715,12.88653,15.28378,21.16744,28.17031,18.49594.74947-.15538,1.49103-.34676,2.22208-.57351l43.29149-13.46286,39.35361,12.11656c2.86707.88999,5.91275-.71274,6.80274-3.57979.32717-1.05399.32578-2.18261-.00401-3.23578l-7.48031-23.99754c7.951-3.85477,11.88908-12.94341,9.26416-21.38068Z"/>
  </g>
  <g>
    <g class="cls-5">
      <path class="cls-4" d="M150.20363,144.28428l28.64233,28.66747-27.43896,8.55732-28.65063-28.66745,27.44727-8.55734M150.20265,136.28408c-.79541,0-1.59741.11875-2.38013.36279l-27.44727,8.55734c-2.67322.83342-4.71606,3.00374-5.38635,5.72232-.67029,2.71861.12964,5.58982,2.10889,7.57029l28.65076,28.66745c1.52319,1.52416,3.56836,2.34503,5.65918,2.34503.7959,0,1.59814-.1188,2.3811-.363l27.43896-8.55732c2.67261-.83353,4.71533-3.0036,5.3855-5.7219.67041-2.71826-.12915-5.58913-2.10791-7.56968l-28.64233-28.66747c-1.52344-1.52473-3.56885-2.34584-5.6604-2.34584h0Z"/>
    </g>
    <polygon class="cls-3" points="122.75635 152.84161 151.40699 181.50907 178.84597 172.95175 150.20374 144.28429 122.75635 152.84161"/>
  </g>
  <path class="cls-2" d="M205.10695,49.08507c19.80425,2.89669,33.51054,21.29944,30.61387,41.10369-.98631,6.74325-3.85401,13.07175-8.27395,18.25909"/>
  <path class="cls-2" d="M203.34837,60.73044c13.37619,1.92305,22.66077,14.32553,20.73771,27.70172-.65744,4.57313-2.59621,8.86668-5.592,12.38393"/>
  <path class="cls-2" d="M233.01714,120.58125c19.66729-18.36198,20.72547-49.19081,2.36349-68.85811-7.52987-8.06515-17.5745-13.3354-28.48983-14.94817"/>
  <path class="cls-1" d="M68.22883,25.5435l5.52611,11.19869c.14746.30006.43443.50718.76566.55261l12.35717,1.79765c.55334.07871.93811.5911.8594,1.14445-.0318.22355-.13744.43004-.30013.58662l-8.94164,8.71527c-.23918.23341-.34866.5693-.29295.89882l2.11057,12.31057c.0945.55087-.27545,1.07405-.82632,1.16856-.22054.03783-.44739.00151-.64509-.10328l-11.05221-5.83903c-.29119-.14607-.63426-.14607-.92546,0l-11.05221,5.8124c-.49383.26177-1.10636.07364-1.36812-.42019-.1048-.1977-.14112-.42455-.10328-.64509l2.11057-12.31057c.0557-.32953-.05377-.66541-.29295-.89882l-8.96161-8.68864c-.4027-.38759-.41494-1.02824-.02735-1.43094.15658-.16269.36307-.26833.58662-.30013l12.36383-1.79765c.32876-.0475.61284-.25433.75901-.55261l5.52611-11.19869c.25048-.50376.8619-.70909,1.36567-.45862.19876.09882.3598.25986.45862.45862Z"/>
  <path class="cls-1" d="M44.61037,137.17107l3.755,7.54172c.09776.20293.29064.34342.51377.37423l8.32189,1.20515c.37437.05464.63356.40241.57893.77678-.02164.1483-.09132.28541-.19836.39031l-6.02576,5.87353c-.17049.1634-.2448.4031-.19663.63429l1.42081,8.29017c.06312.37303-.18811.7266-.56114.78973-.14623.02474-.29654.00135-.42835-.06664l-7.44657-3.91357c-.19625-.11331-.43804-.11331-.63429,0l-7.44657,3.91357c-.33623.17345-.74941.04149-.92286-.29474-.06799-.13181-.09137-.28212-.06663-.42835l1.42081-8.29018c.04817-.23119-.02614-.47089-.19663-.63429l-6.02576-5.87353c-.2702-.26482-.27456-.69854-.00974-.96873.10491-.10703.24202-.17672.39031-.19836l8.32189-1.20515c.22462-.03097.41936-.1711.52012-.37423l3.71694-7.54172c.18316-.33104.6-.45092.93105-.26776.11264.06232.20544.15512.26776.26776Z"/>
  <path class="cls-1" d="M231.78656,142.66881l2.91205,5.90311c.08103.1545.22894.26283.40068.29346l6.51261.94247c.30253.07496.48702.38098.41205.68351-.02108.08508-.06167.16407-.11859.23073l-4.70668,4.59382c-.12839.11944-.18783.29561-.15802.46841l1.1287,6.4844c.05377.28801-.13611.56507-.42411.61884-.11916.02224-.24234.00301-.34905-.05449l-5.82411-3.05878c-.15481-.0843-.34182-.0843-.49663,0l-5.82411,3.05878c-.25791.139-.57966.0426-.71867-.21531-.05751-.1067-.07674-.22989-.05449-.34904l1.1287-6.4844c.02981-.1728-.02962-.34897-.15802-.46841l-4.70668-4.59382c-.20238-.23703-.17431-.59325.06272-.79564.06665-.05692.14565-.09752.23073-.1186l6.47875-.93118c.17174-.03063.31965-.13897.40068-.29346l2.90077-5.9144c.15905-.26804.50528-.3564.77333-.19735.08127.04822.14913.11608.19735.19735Z"/>
</svg>