<?xml version="1.0" encoding="UTF-8"?>
<svg xmlns="http://www.w3.org/2000/svg" width="280" height="200" viewBox="0 0 280 200">
  <defs>
    <style>
      .cls-1 {
        fill: #77bc1f;
      }

      .cls-2 {
        stroke: #fff;
      }

      .cls-2, .cls-3 {
        fill: none;
        stroke-miterlimit: 10;
        stroke-width: 2px;
      }

      .cls-3 {
        stroke: #77bc1f;
      }

      .cls-4 {
        opacity: .1;
      }
    </style>
  </defs>
  <g id="Ebene_5" data-name="Ebene 5">
    <g>
      <g>
        <polygon class="cls-3" points="201.59818 183.48111 78.40182 183.48111 78.40182 60.05174 124.4897 16.51889 201.59818 16.51889 201.59818 183.48111"/>
        <polyline class="cls-3" points="124.48971 16.51889 124.48971 60.05002 78.40182 60.05002"/>
      </g>
      <g class="cls-4">
        <path class="cls-1" d="M201.59824,16.51889v166.96222h-123.19653V60.05174l46.08789-43.53285h77.10864M207.59824,10.51889h-85.49438l-1.73438,1.63818-46.08789,43.53285-1.87988,1.77576v132.01542h135.19653V10.51889h0Z"/>
      </g>
    </g>
  </g>
  <g id="Ebene_2" data-name="Ebene 2">
    <polygon class="cls-2" points="170.80469 95.11568 160.80734 85.11833 142 103.92567 123.19266 85.11833 113.19531 95.11568 132.00265 113.92302 113.19531 132.73036 123.19266 142.72771 142 123.92037 160.80734 142.72771 170.80469 132.73036 151.99735 113.92302 170.80469 95.11568"/>
  </g>
</svg>