<svg width="24" height="24" viewBox="0 0 24 24" fill="none" xmlns="http://www.w3.org/2000/svg">
<path d="M16.2041 10.916C16.1846 12.1465 15.833 13.2305 15.1494 14.168L19.0752 18.0938L18.46 18.709L14.5928 14.8418C14.085 15.3887 13.4795 15.8184 12.7764 16.1309C12.0928 16.4238 11.3506 16.5703 10.5498 16.5703C8.96777 16.5312 7.63965 15.9844 6.56543 14.9297C5.51074 13.8555 4.96387 12.5176 4.9248 10.916C4.96387 9.33398 5.51074 8.01562 6.56543 6.96094C7.63965 5.88672 8.96777 5.33008 10.5498 5.29102C12.1514 5.33008 13.4795 5.88672 14.5342 6.96094C15.6084 8.01562 16.165 9.33398 16.2041 10.916ZM10.5498 15.6914C11.8975 15.6523 13.0205 15.1836 13.9189 14.2852C14.8174 13.3867 15.2861 12.2637 15.3252 10.916C15.2861 9.56836 14.8174 8.44531 13.9189 7.54688C13.0205 6.64844 11.8975 6.17969 10.5498 6.14062C9.20215 6.17969 8.0791 6.64844 7.18066 7.54688C6.28223 8.44531 5.82324 9.56836 5.80371 10.916C5.82324 12.2637 6.28223 13.3867 7.18066 14.2852C8.0791 15.1836 9.20215 15.6523 10.5498 15.6914ZM7.26855 10.916C7.28809 9.99805 7.60059 9.22656 8.20605 8.60156C8.83105 7.97656 9.6123 7.6543 10.5498 7.63477V8.51367C9.86621 8.5332 9.29004 8.76758 8.82129 9.2168C8.37207 9.66602 8.14746 10.2324 8.14746 10.916H7.70801C7.4541 10.916 7.30762 10.916 7.26855 10.916Z" fill="#77BC1F"/>
</svg>
