<?xml version="1.0" encoding="UTF-8"?>
<svg id="Ebene_1" xmlns="http://www.w3.org/2000/svg" version="1.1" viewBox="0 0 17 17">
  <!-- Generator: Adobe Illustrator 29.1.0, SVG Export Plug-In . SVG Version: 2.1.0 Build 142)  -->
  <defs>
    <style>
      .st0 {
        stroke-linecap: round;
        stroke-linejoin: round;
      }

      .st0, .st1 {
        fill: none;
        stroke: #77bc1f;
      }

      .st1 {
        stroke-miterlimit: 10;
        stroke-width: 1px;
      }
    </style>
  </defs>
  <path class="st0" d="M5.4,13.8h-2.3v-7.1h2.3v7.1ZM14.1,13.8h-2.4v-3.2c0-.9-.3-1.6-1.2-1.6s-1,.4-1.2.9c0,.1,0,.4,0,.6v3.4h-2.3s0-6.4,0-7.1h2.3v1c.3-.5.9-1.2,2.1-1.2s2.7,1,2.7,3.2v4.1ZM5.6,4.2c0-.7-.6-1.2-1.3-1.2s-1.3.5-1.3,1.2.6,1.2,1.3,1.2,1.3-.6,1.3-1.2Z"/>
  <path class="st1" d="M15.6.5c.5,0,.9.4.9.9v14.2c0,.5-.4.9-.9.9H1.4c-.5,0-.9-.4-.9-.9V1.4c0-.5.4-.9.9-.9h14.2"/>
</svg>