<?xml version="1.0" encoding="UTF-8"?>
<svg id="Ebene_1" xmlns="http://www.w3.org/2000/svg" version="1.1" viewBox="0 0 17 17">
  <!-- Generator: Adobe Illustrator 29.1.0, SVG Export Plug-In . SVG Version: 2.1.0 Build 142)  -->
  <defs>
    <style>
      .st0 {
        fill: none;
        stroke: #7ab926;
        stroke-miterlimit: 10;
      }
    </style>
  </defs>
  <path class="st0" d="M16.2,4.6c-.2-.7-.7-1.2-1.4-1.4-1.2-.3-6.2-.3-6.2-.3,0,0-5,0-6.2.3-.7.2-1.2.7-1.4,1.4-.3,1.3-.3,3.9-.3,3.9,0,0,0,2.6.3,3.9.2.7.7,1.2,1.4,1.4,1.2.3,6.2.3,6.2.3,0,0,5,0,6.2-.3.7-.2,1.2-.7,1.4-1.4.3-1.3.3-3.9.3-3.9,0,0,0-2.6-.3-3.9h0ZM6.9,10.8v-4.7l4.1,2.4-4.1,2.4h0Z"/>
</svg>