<svg width="24" height="24" viewBox="0 0 24 24" fill="none" xmlns="http://www.w3.org/2000/svg">
<path d="M14.3991 19.7654C14.2038 19.7654 13.403 19.7654 11.9968 19.7654H9.59444C9.47725 19.7654 9.36983 19.7263 9.27218 19.6482C9.19405 19.5505 9.15499 19.4431 9.15499 19.3259V13.8181H6.2253C6.04952 13.7986 5.92257 13.7205 5.84444 13.5837C5.76632 13.4275 5.77608 13.281 5.87374 13.1443L11.6452 4.41382C11.7233 4.29663 11.8405 4.23804 11.9968 4.23804C12.153 4.21851 12.2702 4.2771 12.3483 4.41382L18.1491 13.1443C18.2273 13.281 18.2273 13.4275 18.1491 13.5837C18.071 13.7205 17.9441 13.7986 17.7683 13.8181H14.8386V19.3259C14.8386 19.4431 14.7995 19.5505 14.7214 19.6482C14.6433 19.7263 14.5358 19.7654 14.3991 19.7654ZM10.0339 18.8865C10.1901 18.8865 10.8444 18.8865 11.9968 18.8865H13.9597V13.3787C13.9597 13.2615 13.9987 13.1638 14.0769 13.0857C14.1745 12.988 14.2819 12.9392 14.3991 12.9392H16.9773L11.9968 5.43921L7.01632 12.9392H9.59444C9.71163 12.9587 9.80929 13.0076 9.88741 13.0857C9.98507 13.1638 10.0339 13.2615 10.0339 13.3787V18.8865Z" fill="#77BC1F"/>
</svg>
