<svg width="30" height="30" viewBox="0 0 24 24" fill="none" xmlns="http://www.w3.org/2000/svg">
<path d="M19.9941 3.91406C20.248 4.32422 20.3555 4.85156 20.3164 5.49609C20.2773 6.12109 19.9941 6.82422 19.4668 7.60547L19.5547 7.81055C20.0234 8.92383 20.0527 10.0176 19.6426 11.0918C19.2324 12.166 18.4805 12.9668 17.3867 13.4941C16.9375 13.6895 16.4688 13.8066 15.9805 13.8457L15.3652 15.6035L14.4863 15.9844L14.9844 17.0684L13.9004 17.5371L14.3984 18.6211L13.3145 19.1191L13.7832 20.2031L11.0879 21.4043L10.0039 18.9434L12.4941 12.4688L12.1719 12.1465L10.7656 13.6113H9.65234V14.9883H8.27539V16.3359H6.92773V17.7129H3.67578V14.6953L9.30078 9.07031C9.125 8.5625 9.03711 8.03516 9.03711 7.48828C9.05664 6.10156 9.52539 4.94922 10.4434 4.03125C11.3613 3.11328 12.5137 2.63477 13.9004 2.5957C14.8184 2.5957 15.668 2.83984 16.4492 3.32812C16.7617 3.15234 17.1133 3.02539 17.5039 2.94727C18.0312 2.83008 18.5098 2.85938 18.9395 3.03516C19.3887 3.21094 19.7402 3.50391 19.9941 3.91406ZM10.3848 12.7031L11.9961 10.9746L12.2891 11.0918C12.7969 11.3066 13.3242 11.4141 13.8711 11.4141C15.0039 11.3945 15.9414 11.0137 16.6836 10.2715C17.4453 9.50977 17.8359 8.5625 17.8555 7.42969C17.8555 6.90234 17.7578 6.39453 17.5625 5.90625C17.3672 5.41797 17.084 4.98828 16.7129 4.61719L16.4199 4.35352C16.2051 4.54883 16.0586 4.73438 15.9805 4.91016L15.834 5.11523C15.9121 5.1543 15.9805 5.20312 16.0391 5.26172C16.3516 5.59375 16.5078 5.97461 16.5078 6.4043C16.5078 6.83398 16.3516 7.21484 16.0391 7.54688C15.707 7.87891 15.3262 8.04492 14.8965 8.04492C14.4668 8.04492 14.0859 7.87891 13.7539 7.54688C13.4414 7.21484 13.2852 6.83398 13.2852 6.4043C13.2852 5.97461 13.4414 5.59375 13.7539 5.26172C14.125 4.92969 14.5449 4.7832 15.0137 4.82227C15.1699 4.49023 15.3945 4.17773 15.6875 3.88477C15.1211 3.5918 14.5156 3.44531 13.8711 3.44531C12.7578 3.46484 11.8203 3.85547 11.0586 4.61719C10.3164 5.37891 9.92578 6.31641 9.88672 7.42969C9.88672 7.97656 9.99414 8.49414 10.209 8.98242L10.3262 9.24609L4.55469 15.0469V16.8047H6.01953V15.4277H7.39648V14.0801H8.77344V12.7031H9.56445C10.0332 12.7031 10.3066 12.7031 10.3848 12.7031ZM14.9258 6.28711C14.8086 6.13086 14.7598 5.94531 14.7793 5.73047C14.623 5.75 14.4961 5.81836 14.3984 5.93555C14.2422 6.0918 14.1641 6.26758 14.1641 6.46289C14.1641 6.6582 14.2324 6.83398 14.3691 6.99023C14.5254 7.12695 14.7012 7.19531 14.8965 7.19531C15.0918 7.19531 15.2676 7.11719 15.4238 6.96094C15.541 6.84375 15.6094 6.7168 15.6289 6.58008H15.4531C15.2383 6.58008 15.0625 6.48242 14.9258 6.28711ZM17.0352 12.6445C17.9141 12.2344 18.5098 11.5996 18.8223 10.7402C19.1543 9.88086 19.1445 9.00195 18.793 8.10352L18.7344 7.98633C18.5586 9.23633 18.0215 10.2617 17.123 11.0625C16.2441 11.8633 15.1699 12.2832 13.9004 12.3223L13.4902 12.293L10.9707 18.8848L11.5566 20.2031L12.6406 19.7051L12.1719 18.6211L13.2559 18.1523L12.7578 17.0684L13.8418 16.5703L13.3438 15.4863L14.6621 14.9004L15.3652 12.9375H15.6582C16.1465 12.9375 16.6055 12.8398 17.0352 12.6445ZM18.6465 6.43359L18.9395 6.78516C19.2715 6.25781 19.4473 5.78906 19.4668 5.37891C19.4863 4.94922 19.4082 4.60742 19.2324 4.35352C18.9004 3.8457 18.3828 3.66016 17.6797 3.79688C17.5039 3.81641 17.3477 3.85547 17.2109 3.91406L17.3281 4.00195C17.9922 4.70508 18.4316 5.51562 18.6465 6.43359Z" fill="#77BC1F"/>
</svg>
