<svg width="24" height="24" viewBox="0 0 24 24" fill="none" xmlns="http://www.w3.org/2000/svg">
<path d="M12.0293 7.67704C11.4238 7.67704 10.8965 7.49149 10.4473 7.1204C9.99805 6.74931 9.70508 6.26102 9.56836 5.65556C9.45117 4.95243 9.57812 4.32743 9.94922 3.78056C10.3203 3.23368 10.8477 2.89188 11.5312 2.75516C12.2344 2.61845 12.8594 2.73563 13.4062 3.10673C13.9727 3.47782 14.3145 4.01493 14.4316 4.71806C14.5684 5.40165 14.4512 6.02665 14.0801 6.59306C13.709 7.13993 13.1816 7.49149 12.498 7.64774C12.3418 7.66727 12.1855 7.67704 12.0293 7.67704ZM11.707 3.57548C11.2578 3.67313 10.9062 3.90751 10.6523 4.2786C10.418 4.63016 10.3398 5.03056 10.418 5.47977C10.5156 5.92899 10.7402 6.28056 11.0918 6.53446C11.4629 6.76884 11.873 6.84696 12.3223 6.76884C12.7715 6.67118 13.1133 6.44657 13.3477 6.09501C13.6016 5.72391 13.6895 5.31376 13.6113 4.86454C13.5332 4.47391 13.3477 4.16141 13.0547 3.92704C12.7617 3.67313 12.4199 3.54618 12.0293 3.54618C11.9121 3.54618 11.8047 3.55595 11.707 3.57548ZM14.1387 8.79032H14.1094V18.1653H15.9258V21.3001H8.07422V18.1653H10.5059V11.9251H8.07422V8.79032H11.1211C12.8789 8.79032 13.8848 8.79032 14.1387 8.79032ZM15.0762 19.0442H13.2598V9.63993H8.98242V11.0462H11.4141V19.0442H8.98242V20.4212H15.0762V19.7474C15.0762 19.3372 15.0762 19.1028 15.0762 19.0442Z" fill="#77BC1F"/>
</svg>
