<?xml version="1.0" encoding="UTF-8"?>
<svg id="Ebene_5" data-name="Ebene 5" xmlns="http://www.w3.org/2000/svg" width="280" height="200" viewBox="0 0 280 200">
  <defs>
    <style>
      .cls-1 {
        fill: #003ca6;
      }

      .cls-2 {
        stroke: #77bc1f;
        stroke-miterlimit: 10;
        stroke-width: 3px;
      }

      .cls-2, .cls-3 {
        fill: none;
      }

      .cls-3 {
        stroke: #003ca6;
        stroke-linecap: round;
        stroke-linejoin: round;
        stroke-width: 2px;
      }

      .cls-4 {
        fill: #77bc1f;
      }

      .cls-5 {
        opacity: .1;
      }
    </style>
  </defs>
  <g>
    <g class="cls-5">
      <path class="cls-1" d="M201.15208,34.84793c2.20923,0,4,1.79089,4,4v122.30414c0,2.20911-1.79077,4-4,4h-122.3042c-2.20898,0-4-1.79089-4-4V38.84793c0-2.20911,1.79102-4,4-4h122.3042M201.15208,26.84793h-122.3042c-6.61694,0-12,5.38318-12,12v122.30414c0,6.61682,5.38306,12,12,12h122.3042c6.61694,0,12-5.38318,12-12V38.84793c0-6.61682-5.38306-12-12-12h0Z"/>
    </g>
    <rect class="cls-3" x="74.84795" y="34.84795" width="130.30411" height="130.30411" rx="4" ry="4"/>
  </g>
  <rect class="cls-2" x="127.48716" y="115.85966" width="14.47249" height="14.47249" rx="2.5957" ry="2.5957"/>
  <rect class="cls-2" x="177.63853" y="137.93968" width="10.49332" height="10.49332" rx="1.88202" ry="1.88202"/>
  <rect class="cls-2" x="177.63853" y="109.98002" width="10.49332" height="19.93772" rx="2.59421" ry="2.59421"/>
  <rect class="cls-2" x="147.83681" y="109.98002" width="21.34965" height="20.20607" rx="3.72518" ry="3.72518"/>
  <rect class="cls-2" x="127.48716" y="137.93968" width="41.6993" height="10.49332" rx="3.75173" ry="3.75173"/>
  <rect class="cls-2" x="128.34814" y="100.19107" width="8.64275" height="8.64275" rx="1.55011" ry="1.55011"/>
  <rect class="cls-2" x="126.15057" y="67.42198" width="13.84943" height="8.64275" rx="1.96224" ry="1.96224"/>
  <rect class="cls-2" x="165.51504" y="83.77034" width="23.35407" height="18.7837" rx="3.75649" ry="3.75649"/>
  <rect class="cls-2" x="125.57444" y="52.13053" width="31.04869" height="8.64275" rx="2.93804" ry="2.93804"/>
  <rect class="cls-2" x="134.71746" y="80.6849" width="35.16861" height="8.64275" rx="3.1269" ry="3.1269" transform="translate(237.30804 -67.29548) rotate(90)"/>
  <rect class="cls-2" x="90.1365" y="84.51944" width="49.8635" height="8.64275" rx="3.7233" ry="3.7233" transform="translate(230.1365 177.68163) rotate(180)"/>
  <rect class="cls-2" x="91.15049" y="100" width="8.64275" height="13.90195" rx="1.96596" ry="1.96596"/>
  <rect class="cls-2" x="105.71525" y="99.6225" width="14.71088" height="14.71088" rx="2.63845" ry="2.63845"/>
  <g>
    <rect class="cls-4" x="98.11424" y="58.11444" width="11.9668" height="11.9671"/>
    <path class="cls-4" d="M90.13645,50.13605v27.92316h27.9231v-27.92316h-27.9231ZM114.07078,74.07025h-19.94531v-19.94519h19.94531v19.94519Z"/>
  </g>
  <g>
    <rect class="cls-1" x="98.11424" y="129.75736" width="11.9668" height="11.9671"/>
    <path class="cls-1" d="M90.13645,121.77897v27.92316h27.9231v-27.92316h-27.9231ZM114.07078,145.71318h-19.94531v-19.94519h19.94531v19.94519Z"/>
  </g>
  <g>
    <rect class="cls-1" x="170.62488" y="58.11444" width="11.9668" height="11.9671"/>
    <path class="cls-1" d="M162.64709,50.13605v27.92316h27.9231v-27.92316h-27.9231ZM186.58142,74.07025h-19.94531v-19.94519h19.94531v19.94519Z"/>
  </g>
</svg>