<?xml version="1.0" encoding="UTF-8"?>
<svg id="Ebene_1" xmlns="http://www.w3.org/2000/svg" version="1.1" viewBox="0 0 17 17">
  <!-- Generator: Adobe Illustrator 29.1.0, SVG Export Plug-In . SVG Version: 2.1.0 Build 142)  -->
  <defs>
    <style>
      .st0 {
        fill: none;
        stroke: #7ab926;
        stroke-miterlimit: 10;
      }
    </style>
  </defs>
  <path class="st0" d="M15.6.5c.5,0,.9.4.9.9v14.2c0,.5-.4.9-.9.9h-4.3v-6.3h1.9l.4-2.4h-2.4v-.9c0-1.3.3-1.8,1.6-1.8s.7,0,.9,0v-2.2c-.4-.1-1.2-.2-1.7-.2-2.7,0-3.3,1.3-3.3,4v1h-2.2v2.4h2.4v6.4H1.4c-.5,0-.9-.4-.9-.9V1.4c0-.5.4-.9.9-.9h14.2"/>
</svg>